<svg id="svg" version="1.1" xmlns="http://www.w3.org/2000/svg" xmlns:xlink="http://www.w3.org/1999/xlink" width="400" height="106.66666666666667" viewBox="0, 0, 400,106.66666666666667"><g id="svgg"><path id="path0" d="M28.597 13.811 C 28.548 13.891,27.979 13.918,27.334 13.872 C 26.342 13.801,26.106 13.837,25.812 14.102 C 25.590 14.304,25.192 14.424,24.704 14.438 C 24.190 14.452,23.873 14.554,23.730 14.750 C 23.579 14.956,23.393 15.009,23.092 14.934 C 22.844 14.872,22.667 14.898,22.667 14.997 C 22.667 15.090,22.553 15.167,22.413 15.167 C 22.274 15.167,21.863 15.354,21.500 15.583 C 21.137 15.813,20.772 16.000,20.688 16.000 C 20.605 16.000,20.247 16.261,19.893 16.579 C 19.540 16.898,19.207 17.161,19.155 17.163 C 18.807 17.177,17.759 18.381,17.743 18.786 C 17.730 19.113,17.593 19.314,17.279 19.467 C 17.034 19.587,16.833 19.793,16.833 19.926 C 16.833 20.058,16.755 20.167,16.658 20.167 C 16.449 20.167,15.979 21.234,15.968 21.732 C 15.957 22.272,15.662 22.966,15.401 23.066 C 15.253 23.123,15.167 23.404,15.167 23.828 C 15.167 24.198,15.094 24.500,15.005 24.500 C 14.916 24.500,14.890 24.620,14.946 24.767 C 15.003 24.914,14.944 25.098,14.816 25.177 C 14.528 25.355,14.364 28.643,14.525 31.000 C 14.666 33.055,14.665 73.399,14.524 75.583 C 14.365 78.045,14.527 81.312,14.816 81.490 C 14.944 81.569,15.005 81.747,14.951 81.886 C 14.898 82.025,14.950 82.176,15.067 82.221 C 15.204 82.273,15.252 82.496,15.200 82.845 C 15.148 83.205,15.203 83.449,15.367 83.569 C 15.723 83.832,16.033 84.478,15.904 84.687 C 15.778 84.890,16.481 86.500,16.695 86.500 C 16.771 86.500,16.833 86.652,16.833 86.837 C 16.833 87.044,16.995 87.236,17.250 87.333 C 17.516 87.435,17.667 87.621,17.667 87.851 C 17.667 88.505,19.286 90.043,19.796 89.874 C 19.908 89.836,20.049 89.943,20.110 90.111 C 20.278 90.578,20.679 90.904,21.476 91.222 C 21.875 91.381,22.322 91.631,22.468 91.778 C 22.644 91.954,22.757 91.980,22.798 91.856 C 22.887 91.588,23.255 91.622,23.503 91.920 C 23.622 92.064,23.845 92.132,24.016 92.078 C 24.214 92.016,24.394 92.102,24.533 92.324 C 24.754 92.679,25.167 92.793,25.167 92.500 C 25.167 92.212,25.580 92.318,25.896 92.688 C 26.166 93.003,26.326 93.033,27.345 92.961 C 27.974 92.915,28.534 92.922,28.587 92.976 C 28.703 93.092,80.992 93.119,81.108 93.003 C 81.152 92.959,81.703 92.947,82.333 92.976 C 83.317 93.021,83.519 92.981,83.768 92.691 C 83.995 92.426,84.126 92.389,84.376 92.523 C 84.620 92.654,84.742 92.627,84.903 92.407 C 85.040 92.219,85.376 92.111,85.886 92.090 C 86.336 92.071,86.789 91.941,86.968 91.779 C 87.138 91.625,87.397 91.500,87.545 91.500 C 87.693 91.500,87.860 91.425,87.917 91.333 C 87.973 91.242,88.157 91.167,88.325 91.167 C 88.493 91.167,88.674 91.054,88.727 90.917 C 88.780 90.779,88.940 90.667,89.082 90.667 C 89.225 90.667,89.415 90.475,89.504 90.240 C 89.593 90.005,89.732 89.854,89.813 89.904 C 90.170 90.125,92.005 88.303,91.885 87.847 C 91.820 87.597,91.900 87.490,92.207 87.413 C 92.638 87.304,93.167 86.423,93.167 85.812 C 93.167 85.390,93.616 84.567,94.144 84.021 C 94.478 83.676,94.523 83.502,94.439 82.890 C 94.377 82.437,94.404 82.167,94.513 82.167 C 94.608 82.167,94.641 82.094,94.586 82.005 C 94.531 81.916,94.610 81.654,94.761 81.423 C 95.014 81.037,95.034 78.930,95.009 55.268 C 94.988 34.275,95.023 29.517,95.200 29.447 C 95.363 29.381,95.365 29.356,95.209 29.346 C 95.050 29.336,95.024 28.905,95.099 27.519 C 95.185 25.913,95.161 25.664,94.890 25.346 C 94.721 25.148,94.577 24.821,94.570 24.618 C 94.522 23.268,94.478 23.119,93.988 22.629 C 93.606 22.247,93.531 22.084,93.692 21.984 C 93.858 21.882,93.842 21.826,93.624 21.742 C 93.464 21.681,93.351 21.476,93.365 21.275 C 93.400 20.773,92.761 19.662,92.301 19.426 C 92.050 19.298,91.930 19.103,91.956 18.865 C 91.981 18.635,91.904 18.500,91.748 18.500 C 91.612 18.500,91.500 18.397,91.500 18.271 C 91.500 17.945,90.312 16.972,90.041 17.076 C 89.899 17.131,89.750 16.978,89.641 16.665 C 89.546 16.391,89.366 16.167,89.242 16.167 C 89.118 16.167,88.683 15.942,88.276 15.667 C 87.868 15.392,87.415 15.167,87.267 15.167 C 87.120 15.167,87.000 15.086,87.000 14.987 C 87.000 14.874,86.815 14.848,86.500 14.917 C 86.209 14.980,86.000 14.958,86.000 14.863 C 86.000 14.621,85.019 14.322,84.582 14.432 C 84.322 14.497,84.098 14.412,83.861 14.158 C 83.549 13.823,83.399 13.796,82.258 13.869 C 81.566 13.914,81.000 13.886,81.000 13.808 C 81.000 13.621,28.713 13.624,28.597 13.811 M65.396 24.277 C 68.992 24.515,69.233 25.004,69.302 32.188 L 69.354 37.626 70.677 38.950 C 72.407 40.680,72.406 40.709,70.519 42.555 C 69.705 43.352,69.105 44.045,69.186 44.095 C 69.267 44.145,69.333 44.744,69.333 45.427 C 69.333 46.667,69.333 46.667,69.667 46.333 C 70.439 45.561,73.167 47.447,73.167 48.753 C 73.167 49.241,70.779 51.864,69.433 52.855 C 69.035 53.148,68.890 53.333,69.058 53.333 C 69.281 53.333,69.333 53.511,69.333 54.274 L 69.333 55.215 70.340 54.117 C 71.831 52.489,72.142 52.504,73.852 54.279 C 75.307 55.790,75.430 55.487,71.966 58.931 C 70.289 60.599,69.016 61.924,69.138 61.875 C 69.315 61.805,69.349 62.068,69.305 63.158 C 69.266 64.131,69.298 64.444,69.417 64.238 C 70.608 62.167,71.715 62.054,73.394 63.834 C 74.749 65.270,74.756 65.368,73.683 67.572 C 73.234 68.495,72.604 69.813,72.284 70.500 C 71.963 71.188,71.103 72.987,70.372 74.500 C 66.295 82.935,66.676 81.603,66.671 87.442 L 66.667 91.968 64.958 92.081 C 61.674 92.298,44.417 92.111,44.109 91.855 C 43.865 91.652,43.832 91.082,43.826 86.855 C 43.817 81.050,44.242 82.031,39.750 77.450 C 35.638 73.256,33.729 71.204,33.280 70.494 C 32.991 70.038,32.979 69.419,33.036 58.548 C 33.103 45.830,33.014 46.816,34.250 45.083 C 34.576 44.625,35.029 43.987,35.255 43.667 C 35.481 43.346,35.834 42.850,36.041 42.565 C 36.248 42.280,36.567 41.830,36.750 41.565 C 39.321 37.850,39.706 37.506,40.553 38.172 L 40.984 38.512 41.034 32.631 L 41.083 26.750 41.554 25.964 C 42.049 25.138,42.849 24.535,43.726 24.326 C 44.378 24.170,63.147 24.128,65.396 24.277 M46.712 27.311 C 44.001 27.498,44.169 26.344,44.169 44.750 C 44.169 62.955,44.029 61.897,46.478 62.193 C 48.574 62.447,64.750 62.284,65.540 62.001 L 66.164 61.778 65.663 61.474 C 64.365 60.684,64.463 59.711,65.956 58.565 C 66.444 58.191,66.591 57.982,66.485 57.815 C 66.286 57.501,66.293 54.053,66.493 53.679 C 66.620 53.443,66.572 53.344,66.266 53.204 C 66.053 53.107,65.601 52.689,65.261 52.274 C 64.537 51.391,64.563 51.288,65.789 50.141 C 66.424 49.547,66.575 49.310,66.476 49.064 C 66.405 48.892,66.354 47.980,66.361 47.039 L 66.375 45.327 65.500 44.455 C 64.199 43.160,64.092 42.960,64.390 42.388 C 64.722 41.751,66.338 40.167,66.659 40.164 C 66.886 40.162,66.887 40.143,66.667 40.004 C 66.455 39.870,66.404 38.975,66.332 34.215 C 66.242 28.292,66.188 27.871,65.466 27.478 C 65.044 27.248,49.618 27.110,46.712 27.311 M59.557 28.609 C 61.659 28.737,61.622 28.624,60.208 30.638 C 59.590 31.520,58.971 32.405,58.833 32.605 C 57.768 34.155,56.090 36.572,54.915 38.250 C 54.145 39.350,53.104 40.850,52.603 41.583 C 52.103 42.317,51.300 43.479,50.820 44.167 C 49.178 46.516,47.901 48.358,46.665 50.157 L 45.927 51.230 45.787 50.573 C 45.567 49.549,45.727 30.178,45.959 29.635 C 46.242 28.973,46.756 28.761,48.333 28.654 C 50.422 28.512,57.510 28.483,59.557 28.609 M254.718 42.083 C 254.719 42.633,254.750 42.838,254.787 42.539 C 254.825 42.239,254.824 41.789,254.786 41.539 C 254.748 41.288,254.717 41.533,254.718 42.083 M195.407 43.915 C 195.415 45.123,195.465 45.416,195.667 45.431 C 195.804 45.441,195.826 45.418,195.714 45.380 C 195.583 45.335,195.492 44.805,195.455 43.864 L 195.398 42.417 195.407 43.915 M247.744 52.250 C 247.744 57.292,247.766 59.378,247.792 56.887 C 247.817 54.395,247.817 50.270,247.792 47.720 C 247.766 45.170,247.744 47.208,247.744 52.250 M126.333 43.552 C 126.333 43.581,126.577 43.825,126.875 44.094 L 127.417 44.583 126.927 44.042 C 126.471 43.537,126.333 43.423,126.333 43.552 M334.292 43.621 C 334.590 43.658,335.077 43.658,335.375 43.621 C 335.673 43.584,335.429 43.553,334.833 43.553 C 334.237 43.553,333.994 43.584,334.292 43.621 M304.583 44.500 L 303.750 44.614 304.532 44.640 C 304.962 44.655,305.360 44.592,305.417 44.500 C 305.473 44.408,305.496 44.345,305.468 44.360 C 305.440 44.374,305.042 44.437,304.583 44.500 M310.333 44.500 L 308.583 44.601 310.282 44.634 C 311.271 44.653,312.023 44.597,312.083 44.500 C 312.140 44.408,312.163 44.348,312.135 44.366 C 312.107 44.384,311.296 44.444,310.333 44.500 M40.453 45.803 C 40.199 46.232,39.752 46.947,39.461 47.391 L 38.933 48.198 38.871 51.641 C 38.837 53.534,38.872 55.496,38.949 56.000 L 39.090 56.917 40.087 56.917 L 41.083 56.917 41.041 53.000 C 41.018 50.846,40.980 48.170,40.958 47.053 L 40.917 45.023 40.453 45.803 M173.545 47.667 C 173.545 48.079,173.578 48.248,173.618 48.042 C 173.657 47.835,173.657 47.498,173.618 47.292 C 173.578 47.085,173.545 47.254,173.545 47.667 M117.039 49.000 C 117.039 49.321,117.073 49.452,117.115 49.292 C 117.157 49.131,117.157 48.869,117.115 48.708 C 117.073 48.548,117.039 48.679,117.039 49.000 M195.407 53.250 C 195.407 55.817,195.430 56.843,195.458 55.532 C 195.486 54.220,195.486 52.120,195.458 50.865 C 195.430 49.610,195.407 50.683,195.407 53.250 M329.372 50.500 C 329.372 50.821,329.406 50.952,329.448 50.792 C 329.490 50.631,329.490 50.369,329.448 50.208 C 329.406 50.048,329.372 50.179,329.372 50.500 M116.872 51.167 C 116.872 51.487,116.906 51.619,116.948 51.458 C 116.990 51.298,116.990 51.035,116.948 50.875 C 116.906 50.715,116.872 50.846,116.872 51.167 M148.728 53.417 C 148.728 54.333,148.756 54.687,148.790 54.203 C 148.824 53.718,148.823 52.968,148.789 52.536 C 148.755 52.104,148.727 52.500,148.728 53.417 M356.205 52.500 C 356.205 52.821,356.240 52.952,356.282 52.792 C 356.323 52.631,356.323 52.369,356.282 52.208 C 356.240 52.048,356.205 52.179,356.205 52.500 M266.998 53.617 C 266.953 54.186,266.977 54.590,267.051 54.516 C 267.125 54.442,267.162 53.976,267.132 53.482 L 267.079 52.583 266.998 53.617 M356.209 54.417 C 356.211 54.783,356.245 54.914,356.285 54.706 C 356.324 54.499,356.323 54.199,356.281 54.040 C 356.239 53.880,356.207 54.050,356.209 54.417 M54.125 64.118 C 54.331 64.157,54.669 64.157,54.875 64.118 C 55.081 64.078,54.913 64.045,54.500 64.045 C 54.087 64.045,53.919 64.078,54.125 64.118 M56.127 64.118 C 56.334 64.158,56.634 64.156,56.794 64.115 C 56.953 64.073,56.783 64.040,56.417 64.042 C 56.050 64.044,55.920 64.078,56.127 64.118 M50.167 68.167 L 49.583 68.289 50.115 68.311 C 50.408 68.323,50.693 68.258,50.750 68.167 C 50.807 68.075,50.830 68.010,50.802 68.022 C 50.773 68.034,50.487 68.099,50.167 68.167 M46.460 68.285 C 46.668 68.324,46.968 68.323,47.127 68.281 C 47.286 68.239,47.117 68.207,46.750 68.209 C 46.383 68.211,46.253 68.245,46.460 68.285 M60.460 68.285 C 60.668 68.324,60.968 68.323,61.127 68.281 C 61.286 68.239,61.117 68.207,60.750 68.209 C 60.383 68.211,60.253 68.245,60.460 68.285 M54.375 69.282 C 54.535 69.323,54.798 69.323,54.958 69.282 C 55.119 69.240,54.987 69.205,54.667 69.205 C 54.346 69.205,54.215 69.240,54.375 69.282 M46.297 71.456 C 46.782 71.490,47.532 71.490,47.964 71.456 C 48.396 71.421,48.000 71.394,47.083 71.394 C 46.167 71.395,45.813 71.423,46.297 71.456 M61.633 71.457 C 62.394 71.488,63.594 71.488,64.300 71.457 C 65.006 71.426,64.383 71.401,62.917 71.401 C 61.450 71.401,60.872 71.427,61.633 71.457 " stroke="none" fill="#8cacac" fill-rule="evenodd"></path><path id="path1" d="M48.266 28.820 C 45.604 29.019,45.809 27.988,45.869 40.903 L 45.917 51.056 47.038 49.403 C 47.654 48.494,48.667 47.020,49.288 46.128 C 49.909 45.236,50.792 43.962,51.250 43.296 C 51.708 42.631,52.946 40.848,54.000 39.335 C 55.054 37.821,56.202 36.171,56.551 35.666 C 56.899 35.162,57.606 34.150,58.120 33.417 C 60.415 30.147,61.188 28.966,61.094 28.872 C 60.944 28.721,50.170 28.678,48.266 28.820 M39.367 38.292 C 39.044 38.571,33.953 45.680,33.479 46.513 C 33.292 46.843,33.240 49.052,33.197 58.553 L 33.144 70.189 33.552 70.720 C 34.009 71.314,34.194 71.508,39.667 77.153 C 41.821 79.375,43.658 81.319,43.750 81.472 C 43.846 81.632,43.952 83.874,44.000 86.750 L 44.083 91.750 45.000 91.859 C 46.203 92.001,63.517 92.029,65.285 91.891 L 66.653 91.785 66.702 86.684 L 66.750 81.583 68.140 78.750 C 68.905 77.192,69.867 75.204,70.278 74.333 C 71.020 72.760,71.282 72.221,71.615 71.583 C 71.710 71.400,72.015 70.762,72.291 70.167 C 72.568 69.571,73.141 68.371,73.565 67.500 C 74.656 65.258,74.567 64.971,72.134 62.850 L 71.684 62.458 70.926 62.902 C 70.462 63.175,69.950 63.682,69.603 64.215 C 69.291 64.692,68.391 65.719,67.602 66.496 C 65.963 68.110,65.901 68.317,66.750 69.333 C 67.482 70.209,67.526 70.866,66.881 71.288 C 66.317 71.657,45.198 71.709,43.866 71.345 C 41.483 70.694,41.167 69.715,41.167 62.992 C 41.167 56.586,41.237 56.969,40.089 57.104 C 38.693 57.268,38.666 57.185,38.671 52.755 C 38.675 48.536,38.813 47.859,39.982 46.318 C 41.689 44.066,41.642 38.000,39.917 38.000 C 39.799 38.000,39.552 38.131,39.367 38.292 M67.881 39.219 C 67.128 39.878,66.233 40.642,65.893 40.917 C 65.262 41.427,64.333 42.592,64.333 42.873 C 64.333 43.234,66.395 45.167,66.781 45.167 C 67.638 45.167,71.833 41.444,71.833 40.684 C 71.833 40.279,69.751 37.987,69.404 38.010 C 69.319 38.016,68.634 38.560,67.881 39.219 M120.167 39.594 C 119.572 39.724,119.059 39.905,119.028 39.998 C 118.998 40.091,118.896 40.167,118.803 40.167 C 118.323 40.167,117.114 40.904,116.411 41.625 C 116.210 41.831,115.960 42.000,115.856 42.000 C 115.752 42.000,115.667 42.078,115.667 42.174 C 115.667 42.270,115.498 42.518,115.292 42.725 C 115.085 42.932,114.767 43.397,114.583 43.757 C 114.400 44.117,114.162 44.506,114.054 44.622 C 113.946 44.738,113.763 45.264,113.647 45.792 C 113.532 46.319,113.375 46.793,113.298 46.846 C 112.828 47.168,112.873 54.135,113.346 54.306 C 113.430 54.336,113.501 54.486,113.502 54.639 C 113.505 54.981,113.984 56.381,114.138 56.498 C 114.200 56.545,114.423 56.927,114.634 57.347 C 117.642 63.342,128.337 63.213,131.363 57.145 C 131.811 56.248,132.833 54.003,132.833 53.917 C 132.833 53.892,132.327 53.777,131.708 53.661 C 131.090 53.546,130.544 53.392,130.497 53.320 C 130.449 53.248,130.024 53.137,129.552 53.074 L 128.693 52.961 128.578 53.730 C 128.514 54.154,128.406 54.500,128.337 54.500 C 128.268 54.500,128.081 54.842,127.922 55.259 C 127.375 56.691,125.466 58.167,124.161 58.167 C 123.981 58.167,123.833 58.242,123.833 58.333 C 123.833 58.425,123.496 58.500,123.083 58.500 C 122.671 58.500,122.333 58.440,122.333 58.367 C 122.333 58.293,121.869 58.137,121.301 58.020 C 117.590 57.254,115.769 52.308,117.300 47.157 C 118.334 43.677,121.799 41.760,125.108 42.839 C 126.710 43.361,127.885 44.780,128.264 46.647 C 128.361 47.125,128.620 47.189,129.436 46.933 C 129.884 46.793,130.676 46.559,131.196 46.414 L 132.143 46.150 131.843 45.280 C 131.193 43.388,128.971 40.333,128.246 40.333 C 128.124 40.333,127.908 40.217,127.766 40.075 C 127.083 39.393,122.451 39.100,120.167 39.594 M294.725 39.583 C 293.792 39.923,293.062 40.641,292.801 41.476 C 292.683 41.856,292.529 42.167,292.459 42.167 C 292.390 42.167,292.333 42.879,292.333 43.750 L 292.333 45.333 291.250 45.333 L 290.167 45.333 290.167 47.021 L 290.167 48.708 290.708 48.591 C 291.006 48.527,291.517 48.435,291.843 48.386 L 292.435 48.298 292.363 55.089 L 292.290 61.880 292.770 61.766 C 293.034 61.703,293.831 61.607,294.542 61.554 L 295.833 61.457 295.833 55.159 C 295.833 47.653,295.676 48.333,297.411 48.333 L 298.786 48.333 298.893 47.309 C 298.952 46.745,299.000 46.068,299.000 45.804 L 299.000 45.324 297.458 45.370 L 295.917 45.417 295.971 44.424 C 296.060 42.786,296.474 42.484,298.431 42.628 L 299.446 42.703 299.742 41.485 C 299.905 40.816,300.120 40.136,300.221 39.975 C 300.322 39.814,300.345 39.623,300.273 39.551 C 300.010 39.288,295.464 39.314,294.725 39.583 M237.000 41.310 L 237.000 43.121 240.458 43.038 L 243.917 42.955 243.859 52.417 L 243.801 61.878 244.275 61.763 C 244.536 61.699,245.406 61.605,246.208 61.553 L 247.667 61.459 247.667 52.230 L 247.667 43.000 251.048 43.000 L 254.428 43.000 254.633 41.458 C 254.746 40.610,254.837 39.823,254.836 39.708 C 254.834 39.544,252.938 39.500,245.917 39.500 L 237.000 39.500 237.000 41.310 M268.854 50.682 L 268.876 61.865 269.396 61.762 C 269.682 61.705,270.495 61.614,271.201 61.558 L 272.486 61.458 272.556 51.104 C 272.594 45.409,272.681 40.469,272.748 40.125 L 272.870 39.500 270.851 39.500 L 268.832 39.500 268.854 50.682 M304.380 39.899 C 304.184 40.124,303.888 40.519,303.721 40.776 C 303.553 41.034,303.304 41.366,303.167 41.514 C 302.448 42.288,301.167 44.214,301.167 44.520 C 301.167 44.744,304.984 44.541,305.283 44.301 C 305.392 44.213,305.720 43.770,306.011 43.317 C 306.622 42.365,306.734 42.394,307.462 43.690 L 307.917 44.500 309.875 44.500 C 312.181 44.500,312.141 44.583,310.682 42.804 C 310.049 42.032,309.311 40.991,309.041 40.492 L 308.551 39.583 306.643 39.537 C 304.798 39.492,304.724 39.503,304.380 39.899 M332.167 41.607 L 332.167 43.713 333.042 43.608 C 333.523 43.550,334.336 43.502,334.848 43.501 L 335.779 43.500 335.973 41.708 C 336.080 40.723,336.167 39.823,336.167 39.708 C 336.167 39.553,335.655 39.500,334.167 39.500 L 332.167 39.500 332.167 41.607 M170.268 39.923 C 170.127 40.064,169.747 40.290,169.423 40.425 C 169.098 40.560,168.833 40.738,168.833 40.819 C 168.833 40.900,168.496 41.106,168.084 41.275 L 167.335 41.583 167.334 43.458 L 167.333 45.333 166.417 45.333 L 165.500 45.333 165.500 47.022 L 165.500 48.710 166.042 48.606 C 166.340 48.549,166.779 48.458,167.018 48.403 L 167.453 48.303 167.370 53.818 C 167.308 57.891,167.336 59.333,167.476 59.333 C 167.581 59.333,167.667 59.507,167.667 59.719 C 167.667 60.751,169.299 61.559,171.417 61.573 C 173.969 61.591,173.936 61.638,173.688 58.292 C 173.665 57.977,173.091 57.884,172.917 58.167 C 172.860 58.258,172.524 58.333,172.170 58.333 C 170.920 58.333,171.000 58.680,171.000 53.232 L 171.000 48.333 172.250 48.333 L 173.500 48.333 173.501 47.708 C 173.502 47.365,173.551 46.687,173.609 46.202 L 173.714 45.322 172.330 45.437 L 170.946 45.552 171.052 42.610 C 171.166 39.458,171.068 39.122,170.268 39.923 M194.548 39.971 C 194.384 40.138,194.006 40.373,193.708 40.491 C 193.410 40.610,193.167 40.766,193.167 40.837 C 193.167 40.909,192.960 41.041,192.708 41.131 C 191.637 41.513,191.500 41.797,191.500 43.645 L 191.500 45.333 190.577 45.333 L 189.655 45.333 189.702 46.958 L 189.750 48.583 190.250 48.565 C 190.525 48.555,191.001 48.488,191.308 48.416 L 191.867 48.285 191.759 49.267 C 191.547 51.192,191.467 57.667,191.655 57.667 C 191.760 57.667,191.833 58.046,191.833 58.589 C 191.833 60.730,193.002 61.586,195.917 61.580 C 197.974 61.576,198.372 61.406,198.158 60.626 C 198.076 60.328,198.020 59.896,198.035 59.667 C 198.126 58.232,197.706 57.429,197.250 58.167 C 197.193 58.258,196.858 58.333,196.504 58.333 C 195.254 58.333,195.333 58.680,195.333 53.232 L 195.333 48.333 196.583 48.333 L 197.833 48.333 197.833 47.858 C 197.833 47.596,197.882 46.919,197.941 46.352 L 198.049 45.321 196.664 45.437 L 195.279 45.552 195.390 42.610 C 195.510 39.422,195.406 39.095,194.548 39.971 M140.167 45.000 C 140.167 45.092,139.913 45.167,139.602 45.167 C 138.880 45.167,137.290 45.667,137.117 45.950 C 137.043 46.069,136.893 46.167,136.782 46.167 C 136.501 46.167,135.331 47.205,135.332 47.452 C 135.333 47.564,135.197 47.728,135.030 47.817 C 134.863 47.907,134.626 48.284,134.503 48.656 C 134.381 49.029,134.226 49.333,134.160 49.333 C 133.637 49.333,133.337 53.688,133.737 55.467 C 134.340 58.151,134.502 58.524,135.476 59.463 C 139.290 63.140,145.757 62.265,147.835 57.790 C 150.277 52.534,147.269 45.167,142.683 45.167 C 142.399 45.167,142.167 45.092,142.167 45.000 C 142.167 44.907,141.722 44.833,141.167 44.833 C 140.611 44.833,140.167 44.907,140.167 45.000 M157.167 45.000 C 157.167 45.092,157.019 45.167,156.839 45.167 C 156.467 45.167,154.960 45.651,154.833 45.811 C 154.448 46.298,154.228 46.306,154.298 45.829 L 154.371 45.333 152.526 45.333 L 150.680 45.333 150.694 53.599 L 150.708 61.864 151.146 61.757 C 151.386 61.697,152.197 61.606,152.948 61.554 L 154.313 61.459 154.365 56.021 C 154.421 50.084,154.418 50.106,155.443 49.136 C 156.678 47.967,159.268 48.030,160.066 49.247 C 160.319 49.633,160.347 50.314,160.337 55.775 L 160.326 61.872 160.871 61.759 C 161.171 61.697,161.998 61.606,162.708 61.556 L 164.000 61.465 164.000 55.846 C 164.000 47.182,163.213 45.167,159.828 45.167 C 159.556 45.167,159.333 45.092,159.333 45.000 C 159.333 44.906,158.861 44.833,158.250 44.833 C 157.639 44.833,157.167 44.906,157.167 45.000 M180.500 45.000 C 180.500 45.092,180.304 45.167,180.066 45.167 C 179.421 45.167,177.333 45.699,177.333 45.863 C 177.333 45.941,177.071 46.131,176.750 46.284 C 176.429 46.437,176.167 46.626,176.167 46.704 C 176.167 46.783,176.009 47.061,175.816 47.322 C 175.418 47.860,174.494 50.456,174.601 50.735 C 174.645 50.850,175.286 50.922,176.329 50.928 L 177.987 50.937 178.339 50.069 C 179.459 47.309,184.712 47.430,184.712 50.216 C 184.712 51.038,184.663 51.065,182.704 51.317 C 181.813 51.431,180.933 51.590,180.750 51.670 C 180.567 51.750,179.704 51.982,178.833 52.185 C 175.721 52.910,174.333 54.062,174.333 55.920 C 174.333 56.147,174.258 56.333,174.167 56.333 C 174.075 56.333,174.000 56.671,174.000 57.083 C 174.000 57.496,174.075 57.833,174.167 57.833 C 174.258 57.833,174.333 58.043,174.333 58.300 C 174.333 61.451,180.823 62.876,184.359 60.501 C 185.192 59.942,185.207 59.946,185.497 60.825 L 185.720 61.500 187.527 61.500 C 189.393 61.500,189.486 61.465,189.109 60.912 C 188.505 60.025,188.439 59.443,188.343 54.167 C 188.229 47.830,188.086 47.216,186.417 45.854 C 186.037 45.544,184.741 45.167,184.057 45.167 C 183.751 45.167,183.500 45.092,183.500 45.000 C 183.500 44.901,182.889 44.833,182.000 44.833 C 181.111 44.833,180.500 44.901,180.500 45.000 M205.167 44.976 C 205.167 45.055,204.725 45.165,204.184 45.222 C 203.176 45.327,202.418 45.586,202.030 45.956 C 201.909 46.072,201.732 46.167,201.638 46.167 C 201.424 46.167,199.833 47.778,199.833 47.994 C 199.833 48.082,199.552 48.738,199.208 49.452 L 198.583 50.750 198.583 53.500 C 198.583 56.131,198.817 57.833,199.177 57.833 C 199.251 57.833,199.364 58.002,199.428 58.208 C 199.585 58.713,200.409 59.636,201.238 60.239 C 205.275 63.172,211.129 61.758,212.924 57.417 C 214.400 53.847,212.984 47.500,210.415 46.169 C 210.147 46.030,209.833 45.829,209.717 45.723 C 209.485 45.510,208.058 45.167,207.408 45.167 C 207.184 45.167,207.000 45.092,207.000 45.000 C 207.000 44.908,206.588 44.833,206.083 44.833 C 205.579 44.833,205.167 44.898,205.167 44.976 M219.833 45.000 C 219.833 45.092,219.659 45.167,219.447 45.167 C 218.824 45.167,217.262 45.681,217.117 45.934 C 217.043 46.062,216.895 46.167,216.788 46.167 C 216.430 46.167,215.481 47.406,215.288 48.125 C 215.183 48.515,215.038 48.833,214.965 48.833 C 214.556 48.833,215.144 51.681,215.741 52.594 C 216.236 53.348,219.732 54.715,222.923 55.402 C 223.860 55.604,224.500 56.111,224.500 56.651 C 224.500 57.176,223.791 58.167,223.416 58.167 C 223.294 58.167,223.163 58.260,223.125 58.375 C 223.011 58.717,220.052 58.635,219.362 58.271 C 218.791 57.969,218.237 56.991,218.399 56.569 C 218.447 56.445,218.414 56.300,218.326 56.246 C 218.238 56.191,218.167 55.991,218.167 55.801 C 218.167 55.370,216.560 55.446,215.362 55.934 C 214.559 56.261,214.561 56.246,215.046 58.250 C 215.774 61.259,221.297 62.797,225.056 61.037 C 229.571 58.924,228.892 52.991,224.012 51.919 C 223.730 51.857,223.500 51.753,223.500 51.688 C 223.500 51.575,221.609 51.151,220.047 50.913 C 218.164 50.626,217.916 48.805,219.693 48.326 C 221.956 47.717,223.831 48.475,224.076 50.099 L 224.179 50.782 225.215 50.567 C 225.784 50.448,226.540 50.305,226.895 50.248 C 228.117 50.051,227.225 47.374,225.442 45.888 C 225.090 45.594,223.526 45.167,222.803 45.167 C 222.453 45.167,222.167 45.092,222.167 45.000 C 222.167 44.905,221.667 44.833,221.000 44.833 C 220.333 44.833,219.833 44.905,219.833 45.000 M258.833 45.000 C 258.833 45.092,258.564 45.167,258.234 45.167 C 257.904 45.167,257.222 45.287,256.717 45.433 C 255.838 45.689,255.618 45.821,254.788 46.596 C 254.584 46.786,254.285 46.990,254.125 47.049 C 253.965 47.108,253.833 47.267,253.833 47.402 C 253.833 47.537,253.696 47.746,253.528 47.866 C 253.360 47.985,253.087 48.440,252.922 48.875 C 252.757 49.310,252.568 49.667,252.502 49.667 C 251.889 49.667,251.883 56.854,252.496 57.333 C 252.554 57.379,252.708 57.679,252.836 58.000 C 253.532 59.731,256.332 61.469,258.855 61.736 C 262.216 62.090,264.888 60.720,266.382 57.877 C 267.298 56.135,267.285 56.110,265.417 55.916 C 264.867 55.859,264.215 55.775,263.968 55.729 C 263.603 55.660,263.475 55.731,263.276 56.114 C 263.048 56.553,261.929 57.768,261.233 58.333 C 261.018 58.507,260.544 58.582,259.671 58.578 C 257.599 58.568,256.377 57.594,255.908 55.575 C 255.635 54.400,255.091 54.509,261.500 54.459 L 266.917 54.417 266.860 52.833 C 266.712 48.702,264.475 45.535,261.483 45.222 C 260.942 45.165,260.500 45.055,260.500 44.976 C 260.500 44.898,260.125 44.833,259.667 44.833 C 259.208 44.833,258.833 44.908,258.833 45.000 M281.500 45.000 C 281.500 45.092,281.256 45.168,280.958 45.169 C 280.177 45.171,278.720 45.590,278.409 45.900 C 278.263 46.047,278.090 46.167,278.025 46.167 C 277.961 46.167,277.661 46.392,277.360 46.667 C 277.059 46.942,276.751 47.167,276.676 47.167 C 276.601 47.167,276.495 47.298,276.441 47.458 C 276.333 47.781,275.976 48.370,275.810 48.500 C 275.634 48.638,275.167 49.853,275.167 50.173 C 275.167 50.338,275.073 50.503,274.958 50.542 C 274.802 50.594,274.750 51.337,274.750 53.500 C 274.750 55.663,274.802 56.406,274.958 56.458 C 275.073 56.496,275.168 56.690,275.170 56.889 C 275.206 60.372,281.750 62.933,285.911 61.093 C 287.544 60.371,290.262 56.862,289.657 56.257 C 289.233 55.833,286.434 55.673,286.112 56.055 C 284.793 57.617,284.260 58.167,284.062 58.167 C 283.936 58.167,283.833 58.237,283.833 58.323 C 283.833 58.605,282.328 58.718,281.386 58.508 C 279.867 58.168,278.506 56.532,278.502 55.042 L 278.500 54.500 284.083 54.500 L 289.667 54.500 289.667 53.871 C 289.667 50.975,288.720 48.303,287.116 46.667 C 286.128 45.659,285.525 45.366,284.149 45.222 C 283.609 45.165,283.167 45.055,283.167 44.976 C 283.167 44.898,282.792 44.833,282.333 44.833 C 281.875 44.833,281.500 44.908,281.500 45.000 M322.667 45.000 C 322.667 45.092,322.460 45.168,322.208 45.169 C 321.540 45.173,320.634 45.527,320.162 45.970 L 319.750 46.356 319.698 45.845 L 319.646 45.333 317.823 45.333 L 316.000 45.333 316.000 53.605 L 316.000 61.877 316.625 61.749 C 316.969 61.679,317.775 61.575,318.417 61.519 L 319.583 61.417 319.672 56.167 C 319.767 50.552,319.821 50.174,320.648 49.278 C 321.866 47.958,324.786 48.000,325.508 49.347 C 325.648 49.610,325.696 51.416,325.677 55.793 L 325.651 61.874 326.200 61.766 C 326.503 61.707,327.335 61.613,328.049 61.558 L 329.348 61.456 329.299 55.186 L 329.250 48.917 328.761 47.788 C 328.278 46.675,328.127 46.465,327.362 45.839 C 326.993 45.537,325.687 45.167,324.992 45.167 C 324.813 45.167,324.667 45.092,324.667 45.000 C 324.667 44.907,324.222 44.833,323.667 44.833 C 323.111 44.833,322.667 44.907,322.667 45.000 M344.333 45.000 C 344.333 45.092,344.145 45.167,343.914 45.167 C 343.335 45.167,341.500 45.691,341.500 45.856 C 341.500 45.931,341.265 46.113,340.977 46.262 C 340.463 46.528,339.667 47.276,339.667 47.493 C 339.667 47.554,339.532 47.749,339.367 47.927 C 339.017 48.305,338.500 49.534,338.500 49.989 C 338.500 50.163,338.406 50.337,338.292 50.375 C 338.008 50.470,337.990 56.621,338.273 56.798 C 338.378 56.863,338.562 57.254,338.682 57.667 C 338.802 58.079,338.979 58.472,339.075 58.539 C 339.171 58.606,339.191 58.663,339.119 58.664 C 338.763 58.671,341.216 60.611,342.119 61.037 C 346.046 62.890,350.620 61.106,351.831 57.250 C 351.946 56.883,352.106 56.512,352.187 56.425 C 352.267 56.338,352.333 56.094,352.333 55.883 C 352.333 55.672,352.408 55.500,352.500 55.500 C 352.592 55.500,352.667 55.672,352.667 55.883 C 352.667 56.094,352.727 56.338,352.800 56.425 C 352.873 56.512,353.110 57.033,353.327 57.583 C 355.362 62.758,363.580 63.273,366.433 58.404 C 367.990 55.747,367.908 51.065,366.257 48.247 C 365.740 47.364,364.428 46.000,364.097 46.000 C 363.971 46.000,363.831 45.902,363.786 45.783 C 363.695 45.547,362.275 45.167,361.487 45.167 C 361.219 45.167,361.000 45.092,361.000 45.000 C 361.000 44.907,360.556 44.833,360.000 44.833 C 359.444 44.833,359.000 44.907,359.000 45.000 C 359.000 45.092,358.794 45.168,358.542 45.169 C 357.973 45.171,356.314 45.603,356.181 45.784 C 356.078 45.924,355.567 46.264,355.194 46.441 C 354.803 46.626,353.851 47.690,353.631 48.187 C 353.514 48.451,353.362 48.667,353.293 48.667 C 353.223 48.667,353.166 48.835,353.165 49.042 C 353.164 49.248,352.976 50.348,352.748 51.486 C 352.520 52.625,352.333 53.937,352.334 54.403 L 352.334 55.250 351.417 55.193 C 350.913 55.162,350.500 55.068,350.500 54.985 C 350.500 54.901,350.092 54.833,349.594 54.833 L 348.687 54.833 348.575 55.583 C 348.513 55.996,348.396 56.333,348.314 56.333 C 348.233 56.333,348.167 56.434,348.167 56.558 C 348.167 56.892,347.666 57.833,347.488 57.833 C 347.403 57.833,347.165 58.002,346.958 58.208 C 346.438 58.729,344.370 58.747,343.498 58.238 C 340.609 56.550,341.202 49.200,344.297 48.341 C 346.446 47.744,347.921 48.507,348.354 50.442 C 348.558 51.357,348.563 51.362,349.072 51.244 C 349.353 51.178,350.108 51.036,350.750 50.929 L 351.917 50.734 351.865 50.159 C 351.641 47.686,349.225 45.167,347.078 45.167 C 346.760 45.167,346.500 45.092,346.500 45.000 C 346.500 44.906,346.028 44.833,345.417 44.833 C 344.806 44.833,344.333 44.906,344.333 45.000 M374.000 45.000 C 374.000 45.092,373.808 45.167,373.574 45.167 C 372.936 45.167,371.618 45.520,371.333 45.768 C 370.186 46.765,369.684 47.340,369.491 47.875 C 369.368 48.219,369.206 48.500,369.133 48.500 C 368.676 48.500,369.187 51.754,369.773 52.569 C 370.336 53.353,373.346 54.582,376.169 55.180 C 377.893 55.546,378.821 56.251,378.580 57.011 C 378.452 57.414,377.668 58.167,377.377 58.167 C 377.261 58.167,377.167 58.235,377.167 58.319 C 377.167 58.570,375.916 58.702,374.733 58.575 C 373.240 58.415,372.696 57.945,372.418 56.571 L 372.218 55.583 371.229 55.597 C 369.991 55.615,368.626 56.100,368.738 56.482 C 368.780 56.630,368.867 57.050,368.930 57.417 C 369.567 61.122,374.749 63.007,379.057 61.102 C 383.608 59.089,382.939 52.780,378.083 51.912 C 377.717 51.846,377.374 51.725,377.321 51.642 C 377.268 51.559,376.556 51.372,375.738 51.225 C 372.815 50.700,372.104 50.233,372.670 49.208 C 373.735 47.281,377.960 47.997,378.089 50.126 C 378.134 50.858,378.126 50.854,379.174 50.592 C 379.674 50.467,380.440 50.315,380.875 50.255 C 381.804 50.127,381.785 50.224,381.231 48.472 C 380.526 46.240,379.087 45.167,376.798 45.167 C 376.451 45.167,376.167 45.092,376.167 45.000 C 376.167 44.906,375.694 44.833,375.083 44.833 C 374.472 44.833,374.000 44.906,374.000 45.000 M304.750 45.417 C 303.764 45.637,302.681 45.989,301.800 46.376 C 301.350 46.574,300.449 47.987,299.647 49.750 C 299.439 50.208,299.189 50.637,299.093 50.702 C 298.828 50.882,298.862 56.204,299.129 56.293 C 299.241 56.330,299.333 56.486,299.333 56.639 C 299.331 57.290,299.962 58.590,300.582 59.212 C 304.933 63.577,312.255 62.130,313.653 56.628 C 315.524 49.267,311.304 43.953,304.750 45.417 M332.167 53.602 L 332.167 61.871 332.708 61.765 C 333.006 61.707,333.831 61.614,334.542 61.558 L 335.833 61.457 335.835 55.020 C 335.835 51.480,335.909 47.951,335.997 47.179 C 336.211 45.317,336.230 45.333,333.980 45.333 L 332.167 45.333 332.167 53.602 M70.070 46.191 C 69.879 46.283,69.605 46.559,69.460 46.804 C 69.197 47.249,67.538 48.860,65.767 50.391 C 64.650 51.356,64.644 51.403,65.521 52.315 C 67.440 54.312,67.779 54.241,71.023 51.167 C 73.534 48.786,73.549 48.676,71.602 46.875 C 70.587 45.936,70.591 45.938,70.070 46.191 M284.143 48.573 C 285.121 49.085,286.137 50.791,285.700 51.190 C 285.636 51.249,284.383 51.346,282.917 51.406 C 281.450 51.467,279.912 51.531,279.500 51.550 C 278.589 51.591,278.453 51.239,278.980 50.205 C 279.577 49.036,280.482 48.431,282.083 48.129 C 282.513 48.048,283.578 48.278,284.143 48.573 M142.830 48.542 C 144.354 49.320,144.822 50.488,144.830 53.533 C 144.834 55.200,144.577 56.358,144.073 56.945 C 143.850 57.205,143.667 57.474,143.667 57.544 C 143.667 57.615,143.385 57.802,143.042 57.961 C 142.698 58.120,142.363 58.325,142.297 58.417 C 142.071 58.733,139.971 58.583,139.222 58.198 C 136.200 56.643,136.584 49.525,139.750 48.415 C 140.771 48.057,141.978 48.107,142.830 48.542 M207.583 48.493 C 208.968 49.154,209.387 49.792,209.683 51.692 C 210.003 53.744,209.652 56.348,208.962 57.038 C 208.800 57.200,208.667 57.405,208.667 57.492 C 208.667 57.580,208.385 57.782,208.042 57.942 C 207.698 58.102,207.363 58.312,207.298 58.408 C 207.160 58.611,205.303 58.642,204.621 58.453 C 202.082 57.749,201.149 52.172,203.126 49.524 C 204.024 48.322,206.181 47.823,207.583 48.493 M261.128 48.425 C 262.253 48.895,263.000 49.853,263.000 50.825 L 263.000 51.333 260.958 51.338 C 259.835 51.341,258.357 51.416,257.673 51.505 C 255.980 51.725,255.828 51.662,256.037 50.837 C 256.548 48.822,259.140 47.594,261.128 48.425 M308.158 48.510 C 309.077 48.927,309.775 49.690,310.044 50.574 C 310.297 51.404,310.326 55.792,310.080 55.964 C 309.986 56.030,309.815 56.299,309.699 56.563 C 309.444 57.142,308.661 58.000,308.387 58.000 C 308.279 58.000,308.059 58.131,307.899 58.292 C 307.505 58.685,305.477 58.682,304.728 58.287 C 303.076 57.416,302.295 55.073,302.691 52.175 C 303.124 49.001,305.592 47.346,308.158 48.510 M361.583 48.493 C 362.905 49.124,363.343 49.741,363.651 51.409 C 363.956 53.058,363.778 55.997,363.352 56.333 C 363.294 56.379,363.101 56.694,362.923 57.033 C 362.738 57.387,362.347 57.778,362.008 57.950 C 361.683 58.115,361.363 58.325,361.298 58.417 C 361.108 58.682,358.817 58.587,358.249 58.290 C 355.731 56.976,355.245 51.263,357.473 49.185 C 358.542 48.189,360.321 47.889,361.583 48.493 M71.078 53.527 C 70.748 53.817,70.131 54.510,69.706 55.069 C 68.761 56.310,68.075 57.005,66.667 58.147 C 64.329 60.043,64.316 60.417,66.527 61.958 C 67.459 62.608,67.501 62.611,68.391 62.089 C 69.168 61.634,74.833 55.995,74.833 55.677 C 74.833 55.307,72.427 53.000,72.042 53.000 C 71.842 53.000,71.408 53.237,71.078 53.527 M184.833 54.906 C 184.833 55.820,184.650 56.321,184.096 56.919 C 183.860 57.174,183.667 57.441,183.667 57.512 C 183.667 57.651,182.718 58.167,182.462 58.167 C 182.378 58.167,182.197 58.279,182.060 58.417 C 181.907 58.569,181.498 58.667,181.009 58.667 C 180.569 58.667,179.976 58.713,179.691 58.770 C 178.893 58.930,177.998 57.976,178.006 56.975 C 178.015 55.704,178.521 55.335,180.833 54.911 C 181.704 54.752,182.829 54.527,183.333 54.412 C 184.838 54.070,184.833 54.068,184.833 54.906 M53.401 64.554 C 52.652 65.199,52.652 68.135,53.401 68.779 C 54.059 69.344,57.140 69.323,57.569 68.750 C 58.298 67.776,58.242 65.255,57.475 64.560 C 56.872 64.014,54.034 64.010,53.401 64.554 M46.003 65.708 C 45.052 66.204,45.153 67.566,46.167 67.931 C 47.025 68.240,50.062 68.229,50.670 67.915 C 51.541 67.465,51.778 66.470,51.150 65.901 C 50.701 65.494,46.699 65.344,46.003 65.708 M59.911 65.659 C 58.984 66.034,58.883 67.397,59.750 67.832 C 60.599 68.259,63.944 68.268,64.621 67.845 C 65.543 67.270,65.516 66.021,64.575 65.663 C 64.059 65.467,60.392 65.464,59.911 65.659 M95.205 77.667 C 95.205 77.987,95.240 78.119,95.282 77.958 C 95.323 77.798,95.323 77.535,95.282 77.375 C 95.240 77.215,95.205 77.346,95.205 77.667 " stroke="none" fill="#fbfbfb" fill-rule="evenodd"></path><path id="path2" d="M24.917 14.167 C 24.860 14.258,24.964 14.333,25.147 14.333 C 25.330 14.333,25.527 14.258,25.583 14.167 C 25.640 14.075,25.536 14.000,25.353 14.000 C 25.170 14.000,24.973 14.075,24.917 14.167 M84.000 14.167 C 84.000 14.258,84.150 14.333,84.333 14.333 C 84.517 14.333,84.667 14.258,84.667 14.167 C 84.667 14.075,84.517 14.000,84.333 14.000 C 84.150 14.000,84.000 14.075,84.000 14.167 M17.243 19.011 C 17.183 19.109,17.173 19.229,17.222 19.278 C 17.342 19.397,17.667 19.187,17.667 18.990 C 17.667 18.777,17.379 18.791,17.243 19.011 M15.413 22.346 C 15.255 22.842,15.386 22.881,15.611 22.405 C 15.716 22.182,15.739 22.000,15.662 22.000 C 15.585 22.000,15.473 22.156,15.413 22.346 M45.167 24.334 C 41.420 24.646,41.240 25.045,41.278 33.000 C 41.317 41.420,41.321 43.296,41.315 50.500 C 41.298 69.132,41.445 70.305,43.897 71.037 C 44.880 71.331,66.082 71.319,66.625 71.025 C 67.167 70.731,67.094 70.144,66.417 69.333 C 65.570 68.320,65.625 68.161,67.500 66.234 L 69.167 64.521 69.167 63.253 L 69.167 61.986 68.444 62.410 C 67.541 62.939,67.317 62.939,66.687 62.408 C 66.207 62.005,66.146 61.994,65.466 62.200 C 64.259 62.565,45.956 62.510,45.137 62.138 C 44.144 61.688,44.169 62.121,44.169 44.750 C 44.169 27.454,44.145 27.881,45.128 27.393 C 45.929 26.995,63.433 26.830,64.900 27.207 C 66.435 27.601,66.410 27.491,66.461 33.970 C 66.514 40.687,66.417 40.279,67.675 39.061 C 68.228 38.526,68.790 38.027,68.924 37.953 C 69.129 37.838,69.166 36.968,69.165 32.367 L 69.164 26.917 68.672 26.060 C 67.763 24.474,67.780 24.477,59.776 24.319 C 51.822 24.163,47.166 24.167,45.167 24.334 M14.414 53.333 C 14.414 66.487,14.434 71.869,14.458 65.292 C 14.482 58.715,14.482 47.952,14.458 41.375 C 14.434 34.798,14.414 40.179,14.414 53.333 M95.104 30.021 C 94.963 30.725,95.011 70.472,95.158 74.250 C 95.222 75.900,95.287 66.506,95.304 53.375 C 95.320 40.244,95.305 29.500,95.271 29.500 C 95.236 29.500,95.161 29.734,95.104 30.021 M300.269 40.206 C 300.239 40.322,300.134 40.679,300.037 41.000 C 299.940 41.321,299.811 41.893,299.752 42.273 L 299.644 42.962 298.261 42.875 C 296.491 42.765,296.167 43.004,296.167 44.417 L 296.167 45.333 297.323 45.333 C 297.995 45.333,298.529 45.255,298.595 45.147 C 298.673 45.021,299.080 44.998,299.858 45.074 C 301.028 45.190,301.667 45.101,301.667 44.822 C 301.667 44.737,301.512 44.667,301.322 44.667 C 300.881 44.667,301.020 44.092,301.593 43.542 C 302.310 42.856,302.589 40.941,302.042 40.465 C 301.640 40.116,300.343 39.926,300.269 40.206 M254.833 41.667 L 254.833 43.167 251.333 43.167 L 247.833 43.167 247.833 52.417 L 247.833 61.667 247.108 61.667 C 244.468 61.667,244.086 61.875,244.520 63.077 C 244.794 63.834,245.314 64.000,247.418 64.000 C 249.052 64.000,249.314 63.960,249.635 63.660 L 250.000 63.320 250.000 54.410 L 250.000 45.500 253.065 45.500 C 257.085 45.500,256.917 45.617,256.917 42.839 C 256.917 40.526,256.726 40.178,255.458 40.170 L 254.833 40.167 254.833 41.667 M272.833 50.917 L 272.833 61.667 272.191 61.667 C 269.653 61.667,269.343 61.839,269.596 63.106 C 269.772 63.984,273.318 64.455,274.401 63.745 L 274.791 63.490 274.802 52.122 C 274.815 39.319,274.903 40.167,273.558 40.167 L 272.833 40.167 272.833 50.917 M309.142 40.542 C 309.332 40.748,309.752 41.254,310.076 41.667 C 310.400 42.079,310.816 42.569,311.000 42.756 C 311.183 42.942,311.333 43.159,311.333 43.237 C 311.333 43.315,311.521 43.552,311.750 43.765 C 312.607 44.558,312.387 44.667,309.917 44.667 C 308.185 44.667,307.667 44.617,307.667 44.451 C 307.667 44.246,307.576 44.102,306.877 43.206 L 306.583 42.829 306.000 43.741 L 305.417 44.653 303.812 44.660 C 302.100 44.667,301.965 44.726,301.768 45.549 C 301.588 46.300,301.787 46.352,302.827 45.823 C 305.710 44.358,309.931 44.933,312.083 47.083 C 315.068 50.064,315.084 56.742,312.114 59.792 C 311.645 60.273,311.174 60.667,311.068 60.667 C 310.961 60.667,310.781 60.779,310.667 60.916 C 310.554 61.053,310.151 61.254,309.772 61.362 C 309.393 61.470,308.979 61.638,308.852 61.736 C 308.456 62.038,305.131 62.075,304.479 61.784 C 304.170 61.646,303.655 61.448,303.334 61.344 C 302.367 61.031,300.500 59.619,300.500 59.200 C 300.500 59.112,300.387 58.947,300.250 58.833 C 299.667 58.349,300.524 60.243,301.411 61.399 C 304.250 65.097,311.097 65.157,314.374 61.512 C 315.872 59.846,315.917 59.657,315.917 55.000 L 315.917 50.917 315.429 49.953 C 315.161 49.424,314.504 48.549,313.971 48.010 C 312.882 46.912,312.843 46.833,313.383 46.833 C 314.696 46.833,314.480 45.562,312.833 43.604 C 312.100 42.731,311.500 41.956,311.500 41.881 C 311.500 41.422,309.957 40.167,309.393 40.167 L 308.798 40.167 309.142 40.542 M336.131 41.875 L 336.083 43.583 334.449 43.631 L 332.816 43.679 332.866 44.464 L 332.917 45.250 334.542 45.298 C 335.835 45.336,336.167 45.395,336.167 45.589 C 336.167 45.897,337.667 45.933,337.967 45.633 C 338.103 45.497,338.167 44.687,338.167 43.076 C 338.167 40.366,338.078 40.167,336.868 40.167 L 336.178 40.167 336.131 41.875 M171.458 40.615 C 171.198 40.683,171.167 40.942,171.167 43.012 L 171.167 45.333 172.250 45.333 L 173.333 45.333 173.333 43.179 C 173.333 40.526,173.087 40.189,171.458 40.615 M195.792 40.680 C 195.537 40.828,195.500 41.132,195.500 43.092 L 195.500 45.333 196.500 45.333 L 197.500 45.333 197.500 43.089 C 197.500 40.518,197.082 39.928,195.792 40.680 M129.000 40.801 C 129.000 40.871,129.221 41.059,129.492 41.219 C 129.763 41.379,130.153 41.751,130.359 42.046 C 130.565 42.342,130.818 42.636,130.921 42.700 C 131.024 42.764,131.208 43.121,131.331 43.492 C 131.453 43.863,131.606 44.167,131.671 44.167 C 131.859 44.167,132.377 46.192,132.222 46.322 C 131.936 46.564,129.000 47.203,128.619 47.107 L 128.221 47.007 128.626 47.879 C 128.848 48.358,129.088 48.862,129.157 49.000 C 129.410 49.498,130.903 49.399,133.290 48.724 C 135.024 48.234,134.492 45.451,132.190 42.964 C 131.056 41.739,129.000 40.345,129.000 40.801 M121.502 43.036 C 115.928 44.276,115.361 55.784,120.772 57.842 L 121.197 58.003 120.701 57.377 C 118.979 55.200,118.673 51.012,120.010 47.894 C 121.243 45.016,125.364 44.114,127.625 46.226 C 128.278 46.836,128.294 46.748,127.742 45.582 C 127.338 44.728,126.817 44.078,126.052 43.476 C 125.319 42.899,123.087 42.683,121.502 43.036 M237.550 44.107 C 237.687 45.433,237.629 45.409,240.925 45.472 L 243.833 45.528 243.833 44.347 L 243.833 43.167 240.643 43.167 L 237.453 43.167 237.550 44.107 M68.167 44.756 C 67.662 45.158,67.081 45.490,66.875 45.493 C 66.509 45.500,66.500 45.545,66.500 47.333 C 66.500 49.537,66.509 49.541,68.022 48.001 L 69.167 46.836 69.167 45.418 C 69.167 44.638,69.148 44.006,69.125 44.012 C 69.102 44.019,68.671 44.354,68.167 44.756 M162.716 46.401 C 163.615 47.381,163.795 47.842,164.088 49.899 C 164.408 52.151,164.438 61.477,164.125 61.577 C 164.010 61.614,163.260 61.693,162.458 61.753 L 161.000 61.863 161.000 62.662 C 161.000 63.820,161.342 64.000,163.544 64.000 C 166.570 64.000,166.367 64.545,166.300 56.625 L 166.250 50.667 166.792 50.769 L 167.333 50.870 167.333 49.769 L 167.333 48.667 166.667 48.667 C 166.053 48.667,166.000 48.702,166.000 49.119 C 166.000 49.487,165.904 49.380,165.481 48.541 C 164.945 47.476,164.421 46.972,163.215 46.357 C 162.325 45.904,162.265 45.909,162.716 46.401 M173.632 47.292 L 173.583 48.583 172.375 48.632 L 171.167 48.681 171.172 53.216 C 171.178 58.420,171.170 58.384,172.340 58.158 C 172.749 58.079,173.140 58.011,173.208 58.007 C 173.277 58.003,173.333 56.387,173.333 54.417 L 173.333 50.833 173.958 50.832 C 174.581 50.831,174.583 50.828,174.616 50.096 C 174.636 49.656,174.887 48.859,175.241 48.113 C 176.061 46.385,175.918 46.000,174.452 46.000 L 173.681 46.000 173.632 47.292 M187.102 46.375 C 187.275 46.578,187.503 46.821,187.607 46.914 C 188.279 47.510,188.470 48.958,188.555 54.083 C 188.639 59.198,188.731 59.986,189.352 60.859 C 189.853 61.564,189.767 61.611,187.819 61.714 C 185.621 61.830,185.557 61.812,185.313 60.998 L 185.123 60.364 184.089 60.932 C 183.521 61.244,182.942 61.500,182.803 61.500 C 182.665 61.500,182.309 61.621,182.014 61.768 C 181.386 62.081,178.048 62.049,177.648 61.726 C 177.521 61.623,177.161 61.484,176.848 61.417 C 176.175 61.273,174.734 59.910,174.572 59.265 C 174.282 58.110,173.804 58.762,173.925 60.147 L 174.040 61.461 173.442 61.658 C 171.897 62.168,169.321 61.777,168.297 60.877 C 167.531 60.203,168.477 62.148,169.290 62.920 C 170.772 64.326,175.656 64.514,176.079 63.182 C 176.205 62.785,176.699 62.721,176.985 63.065 C 178.026 64.320,182.680 64.546,185.133 63.461 C 185.747 63.189,185.903 63.174,186.138 63.361 C 186.837 63.919,187.208 64.000,189.050 64.000 C 191.741 64.000,192.179 63.521,191.208 61.639 L 190.750 60.750 190.667 55.647 L 190.583 50.545 190.959 50.716 C 191.442 50.936,191.441 50.937,191.581 49.708 L 191.699 48.667 191.016 48.667 C 190.422 48.667,190.332 48.715,190.323 49.042 L 190.312 49.417 190.161 49.042 C 190.079 48.835,189.933 48.667,189.839 48.667 C 189.744 48.667,189.667 48.522,189.667 48.346 C 189.667 47.816,188.841 47.001,187.784 46.489 C 186.863 46.043,186.811 46.034,187.102 46.375 M198.000 47.333 L 198.000 48.667 196.750 48.667 L 195.500 48.667 195.500 53.230 C 195.500 58.595,195.448 58.439,197.125 58.075 C 197.500 57.994,197.500 57.991,197.500 54.413 L 197.500 50.833 198.065 50.833 C 198.586 50.833,198.639 50.785,198.746 50.208 C 198.809 49.865,198.958 49.471,199.076 49.333 C 199.195 49.196,199.383 48.797,199.496 48.447 C 199.608 48.096,199.805 47.770,199.933 47.721 C 200.808 47.385,199.914 46.000,198.824 46.000 L 198.000 46.000 198.000 47.333 M299.000 47.333 L 299.000 48.667 297.583 48.667 L 296.167 48.667 296.167 55.145 L 296.167 61.624 294.500 61.742 C 292.662 61.872,292.571 61.955,293.007 63.101 C 293.358 64.025,296.641 64.461,297.756 63.731 L 298.167 63.462 298.167 57.147 C 298.167 50.872,298.169 50.833,298.512 50.833 C 298.956 50.833,299.286 50.498,299.436 49.895 C 299.586 49.293,300.210 48.109,300.752 47.399 C 301.428 46.512,301.124 46.000,299.921 46.000 L 299.000 46.000 299.000 47.333 M336.167 53.833 L 336.167 61.667 335.524 61.667 C 332.987 61.667,332.676 61.839,332.930 63.106 C 333.106 63.990,336.652 64.454,337.746 63.737 L 338.148 63.474 338.130 55.029 C 338.110 45.525,338.175 46.000,336.891 46.000 L 336.167 46.000 336.167 53.833 M350.291 46.645 C 350.656 46.999,351.078 47.524,351.228 47.811 C 351.377 48.098,351.612 48.551,351.750 48.817 C 352.231 49.748,352.159 50.864,351.609 51.016 C 350.257 51.388,348.500 51.392,348.500 51.022 C 348.500 50.826,348.425 50.667,348.333 50.667 C 348.242 50.667,348.167 50.534,348.167 50.372 C 348.167 48.067,344.064 47.741,342.672 49.935 C 341.328 52.054,342.003 58.000,343.587 58.000 C 343.713 58.000,343.877 58.103,343.950 58.230 C 344.023 58.356,344.346 58.515,344.667 58.582 L 345.250 58.706 344.902 58.311 C 343.462 56.679,343.829 52.163,345.493 51.042 C 346.336 50.473,348.328 50.634,348.332 51.271 C 348.333 51.375,348.436 51.545,348.563 51.649 C 348.689 51.754,348.885 52.173,348.999 52.580 C 349.271 53.551,349.851 53.779,351.291 53.482 L 352.272 53.279 352.491 51.848 C 352.612 51.061,352.813 50.071,352.938 49.649 C 353.259 48.564,352.732 47.636,351.352 46.859 C 351.133 46.736,350.700 46.492,350.389 46.318 C 349.566 45.855,349.546 45.922,350.291 46.645 M145.907 46.365 C 146.549 46.737,148.000 48.554,148.000 48.986 C 148.000 49.136,148.103 49.407,148.229 49.588 C 149.367 51.218,148.925 56.893,147.510 58.833 C 145.181 62.028,139.599 63.080,136.796 60.853 C 135.859 60.108,135.167 59.426,135.167 59.248 C 135.167 59.131,135.049 58.991,134.906 58.936 C 134.559 58.803,134.713 59.328,135.309 60.311 C 135.552 60.711,135.833 61.183,135.935 61.359 C 136.206 61.828,136.866 62.500,137.055 62.500 C 137.145 62.500,137.462 62.686,137.760 62.913 C 139.874 64.526,144.964 64.568,147.177 62.992 C 147.429 62.813,147.702 62.667,147.784 62.667 C 147.979 62.667,149.140 61.474,149.431 60.974 C 150.589 58.989,150.579 59.035,150.634 55.121 L 150.685 51.492 150.027 50.121 C 149.238 48.476,148.033 47.192,146.708 46.586 C 145.761 46.152,145.341 46.036,145.907 46.365 M211.278 46.792 C 214.915 50.351,214.639 57.593,210.756 60.528 C 207.311 63.132,201.207 62.069,199.580 58.583 C 199.373 58.140,199.346 58.126,199.340 58.458 C 199.334 58.781,199.244 58.833,198.697 58.833 L 198.060 58.833 198.186 59.625 C 198.256 60.060,198.363 60.619,198.424 60.865 C 198.617 61.645,195.098 62.355,194.285 61.700 C 194.174 61.611,193.840 61.486,193.542 61.423 C 193.244 61.359,192.880 61.144,192.732 60.945 C 192.472 60.594,192.466 60.603,192.556 61.214 C 192.812 62.974,194.530 64.000,197.222 64.000 C 200.332 64.000,200.692 63.726,200.421 61.563 C 200.339 60.907,200.359 60.663,200.486 60.741 C 200.585 60.803,200.667 60.946,200.667 61.059 C 200.667 61.173,200.960 61.552,201.318 61.901 C 204.065 64.585,209.473 64.990,212.447 62.736 C 212.739 62.514,213.045 62.333,213.126 62.333 C 213.303 62.333,214.000 61.617,214.000 61.436 C 214.000 61.368,214.185 61.068,214.412 60.772 C 215.215 59.718,215.362 59.132,214.994 58.445 C 214.414 57.364,214.359 56.000,214.894 56.000 C 215.136 56.000,215.333 55.925,215.333 55.833 C 215.333 55.742,215.446 55.667,215.583 55.667 C 215.780 55.667,215.835 55.428,215.840 54.542 L 215.847 53.417 216.174 54.074 C 216.645 55.017,217.154 55.500,217.676 55.500 C 217.958 55.500,218.164 55.609,218.225 55.792 C 218.809 57.550,218.928 57.754,219.583 58.106 C 220.564 58.632,221.144 58.791,220.867 58.457 C 220.614 58.153,220.311 57.171,220.417 57.000 C 220.457 56.935,221.249 57.100,222.177 57.368 C 223.793 57.835,223.873 57.843,224.093 57.553 C 224.700 56.753,224.120 55.850,222.833 55.590 C 218.301 54.677,215.723 53.366,215.321 51.772 C 215.214 51.344,215.060 50.954,214.980 50.904 C 214.899 50.854,214.832 50.574,214.830 50.282 C 214.828 49.989,214.679 49.563,214.500 49.333 C 214.321 49.104,214.172 48.839,214.170 48.743 C 214.166 48.551,212.806 47.167,212.621 47.167 C 212.557 47.167,212.139 46.942,211.692 46.667 C 210.615 46.003,210.506 46.036,211.278 46.792 M226.208 46.392 C 226.369 46.518,226.500 46.698,226.500 46.792 C 226.500 46.887,226.598 47.002,226.717 47.048 C 226.837 47.094,227.038 47.458,227.164 47.857 C 227.290 48.257,227.452 48.662,227.523 48.758 C 227.594 48.854,227.701 49.241,227.761 49.616 C 227.890 50.424,227.891 50.424,225.917 50.595 C 225.183 50.658,224.535 50.785,224.477 50.877 C 224.290 51.169,224.046 50.860,223.851 50.083 C 223.461 48.536,221.902 47.938,219.836 48.544 C 218.657 48.890,218.297 49.883,219.178 50.356 C 220.206 50.908,220.717 51.048,221.017 50.861 C 221.951 50.278,224.045 50.721,224.403 51.577 C 224.568 51.971,224.759 52.167,224.980 52.167 C 225.161 52.167,225.412 52.269,225.538 52.395 C 225.663 52.520,225.938 52.677,226.149 52.744 C 229.347 53.759,228.540 60.257,225.083 61.318 C 224.717 61.431,224.236 61.612,224.014 61.720 C 223.497 61.973,219.145 61.988,218.817 61.738 C 218.689 61.640,218.256 61.457,217.856 61.330 C 217.407 61.189,216.784 60.770,216.231 60.238 C 215.737 59.764,215.333 59.398,215.333 59.424 C 215.333 59.715,216.148 61.229,216.603 61.785 C 218.083 63.591,219.439 64.084,222.917 64.081 L 225.583 64.079 226.864 63.454 C 230.222 61.815,231.409 58.169,229.603 55.043 C 229.145 54.249,228.819 53.990,227.376 53.270 C 226.808 52.986,226.916 52.889,227.909 52.786 C 229.422 52.630,229.741 52.396,229.800 51.398 C 229.897 49.722,228.684 47.462,227.293 46.733 C 226.513 46.324,225.856 46.117,226.208 46.392 M264.321 46.487 C 264.497 46.664,264.797 46.891,264.987 46.993 C 265.178 47.095,265.333 47.277,265.333 47.397 C 265.333 47.517,265.481 47.748,265.661 47.911 C 265.841 48.074,266.110 48.555,266.259 48.979 C 266.408 49.403,266.600 49.884,266.687 50.048 C 266.890 50.432,267.155 52.478,267.162 53.708 L 267.167 54.667 261.583 54.667 C 257.227 54.667,256.000 54.712,256.001 54.875 C 256.008 56.408,257.355 58.061,259.031 58.593 C 259.348 58.694,259.328 58.631,258.862 58.066 C 258.011 57.033,258.061 57.000,260.485 57.000 L 262.637 57.000 263.000 56.250 C 263.425 55.372,263.492 55.360,265.694 55.782 C 267.441 56.117,267.457 56.154,266.600 57.917 C 266.035 59.082,264.799 60.667,264.457 60.667 C 264.358 60.667,264.152 60.779,264.000 60.917 C 262.830 61.975,259.227 62.329,257.072 61.598 C 255.485 61.059,253.500 59.642,253.500 59.047 C 253.500 58.929,253.424 58.833,253.330 58.833 C 252.707 58.833,254.106 61.122,255.475 62.342 C 258.622 65.148,265.074 64.702,267.646 61.501 C 268.801 60.064,268.855 59.766,268.798 55.117 C 268.743 50.584,268.794 50.878,267.755 49.024 C 267.342 48.288,266.094 47.163,265.136 46.664 C 264.017 46.082,263.887 46.053,264.321 46.487 M287.042 46.505 C 287.147 46.674,287.368 46.847,287.531 46.890 C 287.695 46.933,287.903 47.163,287.994 47.401 C 288.084 47.639,288.237 47.833,288.333 47.833 C 288.430 47.833,288.580 48.021,288.667 48.251 C 288.754 48.480,288.971 48.986,289.148 49.376 C 289.511 50.173,289.833 52.195,289.833 53.679 L 289.833 54.667 284.250 54.667 C 281.179 54.667,278.669 54.723,278.671 54.792 C 278.722 56.367,280.127 58.156,281.612 58.536 C 281.953 58.623,281.945 58.588,281.487 57.956 C 280.792 56.996,280.784 57.000,283.158 57.000 L 285.315 57.000 285.570 56.542 C 285.710 56.290,285.873 55.952,285.932 55.792 C 286.067 55.424,286.487 55.423,288.377 55.785 L 289.865 56.071 289.777 56.614 C 289.729 56.913,289.575 57.366,289.437 57.621 C 289.298 57.875,289.101 58.268,288.999 58.495 C 287.848 61.054,282.685 63.008,280.326 61.777 C 280.093 61.655,279.645 61.504,279.330 61.441 C 278.367 61.248,276.414 59.725,276.093 58.917 C 276.016 58.722,275.930 58.666,275.887 58.780 C 275.717 59.233,276.702 60.880,277.798 61.977 C 280.976 65.155,287.630 64.905,290.296 61.508 C 291.461 60.023,292.137 58.171,291.842 57.275 C 291.712 56.883,291.708 56.579,291.828 56.263 C 292.070 55.628,292.032 53.780,291.750 52.500 C 291.413 50.967,291.426 50.833,291.917 50.833 C 292.318 50.833,292.333 50.794,292.333 49.750 L 292.333 48.667 291.417 48.667 C 290.912 48.667,290.500 48.726,290.500 48.798 C 290.500 48.870,289.992 48.439,289.371 47.840 C 288.246 46.755,286.614 45.819,287.042 46.505 M328.318 46.601 C 329.461 48.055,329.656 49.507,329.662 56.625 L 329.667 61.667 329.024 61.667 C 328.671 61.667,327.921 61.715,327.358 61.774 L 326.333 61.881 326.333 62.532 C 326.333 63.722,326.853 64.001,329.066 63.996 C 330.578 63.993,330.987 63.939,331.301 63.697 L 331.685 63.402 331.627 56.743 C 331.573 50.579,331.545 50.027,331.243 49.320 C 330.603 47.821,329.756 46.896,328.573 46.402 L 327.959 46.145 328.318 46.601 M365.556 47.106 C 366.075 47.638,366.500 48.169,366.500 48.287 C 366.500 48.404,366.569 48.500,366.653 48.500 C 366.738 48.500,366.916 48.856,367.049 49.292 C 367.183 49.727,367.395 50.421,367.521 50.833 C 367.805 51.763,367.832 55.610,367.559 56.184 C 367.455 56.404,367.279 56.919,367.167 57.330 C 366.716 58.988,364.660 61.051,363.083 61.427 C 362.808 61.492,362.479 61.629,362.352 61.729 C 361.972 62.030,358.642 62.079,357.979 61.793 C 357.670 61.660,357.117 61.454,356.750 61.336 C 354.984 60.766,353.118 58.493,352.744 56.458 C 352.593 55.633,352.390 55.666,352.246 56.542 C 351.478 61.204,345.157 63.682,341.298 60.833 C 341.050 60.650,340.787 60.500,340.715 60.500 C 340.527 60.500,339.762 59.661,339.499 59.167 C 339.080 58.380,339.142 59.152,339.565 59.995 C 342.211 65.264,350.090 65.737,353.303 60.819 L 353.960 59.813 354.133 60.307 C 355.455 64.101,362.752 65.454,366.629 62.625 C 367.681 61.857,368.923 60.327,369.080 59.604 C 369.192 59.091,369.201 59.101,369.738 60.250 C 371.630 64.301,377.929 65.601,382.108 62.803 C 384.491 61.209,385.298 56.866,383.561 54.991 C 383.344 54.757,383.167 54.480,383.167 54.375 C 383.167 54.270,382.989 54.087,382.771 53.967 C 382.553 53.848,382.134 53.613,381.839 53.446 C 381.182 53.074,380.991 53.204,381.451 53.709 C 382.532 54.896,382.625 57.780,381.629 59.214 C 381.083 60.001,380.461 60.667,380.274 60.667 C 380.183 60.667,379.985 60.779,379.833 60.917 C 378.319 62.287,371.496 62.238,371.035 60.854 C 371.000 60.751,370.885 60.664,370.778 60.661 C 370.421 60.651,369.895 60.084,369.580 59.372 C 369.409 58.984,369.215 58.667,369.148 58.667 C 369.038 58.667,368.500 56.597,368.500 56.175 C 368.500 56.079,368.688 56.000,368.917 56.000 C 369.146 56.000,369.333 55.925,369.333 55.833 C 369.333 55.742,369.446 55.667,369.583 55.667 C 369.782 55.667,369.835 55.418,369.840 54.458 L 369.847 53.250 370.176 53.910 C 370.663 54.886,371.315 55.500,371.865 55.500 C 372.193 55.500,372.339 55.588,372.353 55.792 C 372.420 56.817,373.231 58.167,373.779 58.167 C 373.901 58.167,374.000 58.233,374.000 58.314 C 374.000 58.396,374.225 58.495,374.500 58.536 C 375.020 58.612,375.120 58.520,374.830 58.230 C 374.623 58.023,374.333 57.056,374.444 56.944 C 374.489 56.900,374.763 56.936,375.054 57.025 C 375.345 57.113,376.108 57.325,376.750 57.495 L 377.917 57.805 378.205 57.444 C 378.882 56.595,378.214 55.942,376.111 55.399 C 370.995 54.077,369.333 53.144,369.333 51.592 C 369.333 51.450,369.258 51.333,369.167 51.333 C 369.075 51.333,369.000 51.028,369.000 50.655 C 369.000 49.870,368.443 48.968,367.307 47.911 C 366.191 46.874,365.954 46.700,365.258 46.409 L 364.611 46.139 365.556 47.106 M380.442 46.598 C 380.587 46.819,380.758 47.000,380.824 47.000 C 381.050 47.000,381.872 49.657,381.771 50.061 C 381.678 50.429,381.567 50.465,380.169 50.574 C 379.343 50.639,378.667 50.761,378.667 50.846 C 378.667 50.931,378.548 51.000,378.403 51.000 C 378.251 51.000,378.180 51.088,378.236 51.208 C 378.289 51.323,378.379 51.545,378.434 51.701 C 378.490 51.858,378.808 52.075,379.143 52.184 C 379.477 52.293,379.787 52.427,379.833 52.482 C 380.305 53.053,382.669 52.973,383.500 52.359 C 384.830 51.374,383.026 47.350,380.862 46.473 L 380.179 46.196 380.442 46.598 M281.586 48.457 C 280.285 48.837,278.833 50.239,278.833 51.116 C 278.833 51.503,281.817 51.404,282.333 51.000 C 282.927 50.535,284.352 50.548,285.125 51.026 C 285.672 51.364,285.700 51.366,285.611 51.067 C 285.558 50.893,285.469 50.553,285.412 50.312 C 285.115 49.064,283.006 48.042,281.586 48.457 M139.973 48.605 C 136.864 49.677,136.352 56.898,139.305 58.021 C 139.546 58.112,139.782 58.246,139.830 58.318 C 139.878 58.390,140.133 58.502,140.397 58.566 L 140.878 58.684 140.451 58.177 C 138.916 56.353,139.355 51.964,141.168 51.019 C 142.214 50.474,143.517 50.591,144.375 51.308 C 144.898 51.745,144.484 50.294,143.926 49.736 C 143.788 49.597,143.616 49.393,143.545 49.283 C 143.094 48.582,141.123 48.208,139.973 48.605 M180.750 48.399 C 180.658 48.432,180.257 48.558,179.858 48.679 C 179.154 48.892,178.167 50.309,178.167 51.108 C 178.167 51.226,178.073 51.294,177.958 51.258 C 177.844 51.223,177.169 51.147,176.458 51.090 L 175.167 50.986 175.167 51.830 C 175.167 53.028,175.613 53.228,176.892 52.603 C 177.421 52.344,178.379 52.076,179.191 51.959 C 180.420 51.782,180.644 51.694,181.103 51.212 C 181.667 50.620,183.547 50.412,184.369 50.852 C 184.741 51.051,184.718 50.052,184.334 49.334 C 184.011 48.731,181.585 48.098,180.750 48.399 M204.875 48.640 C 203.073 49.276,202.296 50.743,202.302 53.500 C 202.307 55.752,203.292 58.000,204.274 58.000 C 204.389 58.000,204.543 58.103,204.617 58.230 C 204.690 58.356,204.975 58.494,205.250 58.537 C 205.525 58.580,205.675 58.586,205.583 58.549 C 204.596 58.161,204.105 54.136,204.846 52.503 C 205.713 50.593,207.632 50.037,209.027 51.292 L 209.722 51.917 209.608 51.333 C 209.186 49.184,206.946 47.909,204.875 48.640 M258.259 48.671 C 257.239 49.069,256.167 50.359,256.167 51.187 C 256.167 51.509,259.225 51.346,259.667 51.000 C 260.238 50.553,261.550 50.557,262.391 51.008 C 262.979 51.323,263.021 51.326,262.938 51.049 C 262.889 50.885,262.802 50.553,262.745 50.312 C 262.388 48.812,260.070 47.964,258.259 48.671 M305.738 48.490 C 304.357 48.820,303.306 50.023,302.992 51.631 C 302.461 54.353,303.231 57.317,304.638 57.967 C 304.975 58.123,305.287 58.294,305.333 58.348 C 305.379 58.402,305.583 58.488,305.787 58.540 L 306.158 58.633 305.766 58.108 C 304.664 56.631,304.646 53.253,305.732 51.781 C 306.722 50.440,308.559 50.260,309.792 51.383 C 310.312 51.857,310.292 51.456,309.742 50.400 C 309.188 49.333,308.685 48.901,307.634 48.589 C 306.704 48.313,306.518 48.303,305.738 48.490 M359.083 48.559 C 357.972 48.919,357.675 49.148,357.033 50.136 L 356.417 51.083 356.417 53.417 C 356.417 56.150,356.843 57.280,358.121 57.930 C 358.467 58.106,358.787 58.294,358.833 58.348 C 358.879 58.402,359.094 58.491,359.311 58.546 L 359.705 58.645 359.367 58.281 C 357.869 56.664,358.169 52.368,359.868 51.112 C 360.882 50.363,362.881 50.651,363.509 51.638 C 363.643 51.849,363.660 51.755,363.579 51.250 C 363.520 50.883,363.403 50.558,363.319 50.528 C 363.235 50.497,363.164 50.385,363.160 50.278 C 363.120 49.140,360.586 48.072,359.083 48.559 M373.940 48.505 C 372.686 48.881,372.410 49.989,373.458 50.442 C 373.802 50.591,374.252 50.790,374.458 50.885 C 374.730 51.009,374.944 50.997,375.234 50.842 C 375.495 50.702,376.053 50.651,376.829 50.695 L 378.024 50.762 377.914 50.176 C 377.629 48.660,375.879 47.924,373.940 48.505 M156.390 48.801 C 154.691 49.494,154.500 50.295,154.500 56.737 L 154.500 61.624 152.833 61.742 C 150.995 61.872,150.904 61.955,151.340 63.101 C 151.731 64.130,155.357 64.492,156.258 63.591 L 156.667 63.182 156.667 58.152 C 156.667 54.787,156.731 52.906,156.862 52.470 C 157.238 51.215,158.691 50.410,159.851 50.814 L 160.377 50.998 160.279 50.398 C 160.010 48.741,158.280 48.030,156.390 48.801 M321.980 48.695 C 320.130 49.189,319.833 50.281,319.833 56.613 L 319.833 61.667 319.125 61.668 C 318.735 61.669,318.023 61.717,317.542 61.775 L 316.667 61.880 316.667 62.671 C 316.667 63.830,317.003 64.000,319.303 64.000 C 320.999 64.000,321.147 63.973,321.559 63.591 L 322.000 63.183 322.000 58.236 C 322.000 54.967,322.066 53.056,322.195 52.603 C 322.632 51.062,324.007 50.341,325.399 50.922 C 325.686 51.042,325.703 50.998,325.597 50.429 C 325.280 48.742,324.038 48.147,321.980 48.695 M68.583 53.667 C 68.260 54.024,67.106 54.139,66.917 53.833 C 66.612 53.340,66.500 53.854,66.500 55.750 C 66.500 58.202,66.449 58.172,67.972 56.601 L 69.167 55.369 69.167 54.351 C 69.167 53.263,69.061 53.139,68.583 53.667 M132.667 54.657 C 132.667 54.835,132.597 55.023,132.513 55.075 C 132.428 55.128,132.306 55.412,132.241 55.708 C 132.033 56.656,131.110 58.210,130.135 59.255 C 126.044 63.639,116.835 62.573,114.596 57.456 C 114.467 57.159,114.354 57.008,114.347 57.119 C 114.319 57.539,115.535 59.826,116.171 60.548 C 116.535 60.962,116.833 61.379,116.833 61.475 C 116.833 61.570,117.010 61.746,117.227 61.866 C 117.443 61.985,118.024 62.360,118.518 62.698 C 121.542 64.765,127.810 64.655,130.768 62.483 C 132.354 61.319,134.693 57.992,134.159 57.662 C 134.011 57.570,133.823 56.694,133.563 54.875 C 133.471 54.236,132.667 54.041,132.667 54.657 M183.667 54.609 C 183.162 54.715,182.510 54.808,182.216 54.817 C 181.923 54.826,181.510 54.901,181.300 54.984 C 181.089 55.068,180.483 55.223,179.953 55.331 C 178.356 55.655,177.640 56.939,178.489 57.956 C 179.074 58.657,180.333 58.918,180.333 58.338 C 180.333 57.881,181.079 57.536,182.534 57.319 C 184.091 57.088,184.297 56.926,184.512 55.762 C 184.763 54.403,184.748 54.382,183.667 54.609 M57.649 64.295 C 58.668 65.056,58.593 68.676,57.548 69.153 C 56.363 69.692,53.509 69.488,52.905 68.821 C 52.070 67.898,52.482 64.643,53.500 64.113 C 54.304 63.695,57.003 63.813,57.649 64.295 M51.198 65.625 C 52.135 66.629,52.038 67.611,50.943 68.197 C 50.106 68.646,46.034 68.428,45.488 67.905 C 44.791 67.237,44.803 66.318,45.518 65.650 L 46.035 65.167 48.403 65.167 L 50.771 65.167 51.198 65.625 M64.537 65.341 C 66.468 65.877,65.939 68.093,63.818 68.352 C 60.963 68.700,58.667 68.067,58.667 66.932 C 58.667 66.503,59.386 65.467,59.798 65.303 C 60.252 65.123,63.855 65.151,64.537 65.341 M15.349 84.000 C 15.334 84.353,15.623 84.766,15.778 84.611 C 15.849 84.540,15.827 84.430,15.728 84.366 C 15.630 84.302,15.507 84.137,15.455 84.000 C 15.370 83.778,15.358 83.778,15.349 84.000 M17.205 87.698 C 17.241 87.807,17.360 87.926,17.469 87.962 C 17.591 88.002,17.628 87.926,17.566 87.764 C 17.449 87.461,17.105 87.398,17.205 87.698 " stroke="none" fill="#343434" fill-rule="evenodd"></path><path id="path3" d="M240.368 43.123 C 240.982 43.155,242.032 43.156,242.701 43.124 C 243.370 43.092,242.867 43.066,241.583 43.066 C 240.300 43.065,239.753 43.091,240.368 43.123 M249.458 43.124 C 250.398 43.154,251.935 43.154,252.875 43.124 C 253.815 43.095,253.046 43.070,251.167 43.070 C 249.287 43.070,248.519 43.095,249.458 43.124 M298.846 47.952 C 298.834 48.299,298.747 48.324,297.375 48.376 L 295.917 48.431 297.380 48.466 C 298.876 48.501,299.177 48.372,298.946 47.797 C 298.898 47.680,298.854 47.749,298.846 47.952 M171.708 48.455 C 172.052 48.491,172.615 48.491,172.958 48.455 C 173.302 48.419,173.021 48.389,172.333 48.389 C 171.646 48.389,171.365 48.419,171.708 48.455 M195.955 48.454 C 196.250 48.490,196.775 48.491,197.121 48.455 C 197.467 48.419,197.225 48.389,196.583 48.388 C 195.942 48.387,195.659 48.417,195.955 48.454 M202.039 53.500 C 202.039 53.821,202.073 53.952,202.115 53.792 C 202.157 53.631,202.157 53.369,202.115 53.208 C 202.073 53.048,202.039 53.179,202.039 53.500 M188.372 58.000 C 188.372 58.321,188.406 58.452,188.448 58.292 C 188.490 58.131,188.490 57.869,188.448 57.708 C 188.406 57.548,188.372 57.679,188.372 58.000 M129.658 59.458 L 129.083 60.083 129.708 59.509 C 130.290 58.974,130.410 58.833,130.283 58.833 C 130.255 58.833,129.974 59.115,129.658 59.458 M186.042 61.615 C 186.202 61.657,186.465 61.657,186.625 61.615 C 186.785 61.573,186.654 61.539,186.333 61.539 C 186.012 61.539,185.881 61.573,186.042 61.615 M41.221 66.917 C 41.222 67.558,41.252 67.800,41.288 67.455 C 41.324 67.109,41.324 66.584,41.287 66.288 C 41.250 65.992,41.221 66.275,41.221 66.917 " stroke="none" fill="#cccccc" fill-rule="evenodd"></path><path id="path4" d="M47.963 28.789 C 48.355 28.824,48.955 28.824,49.296 28.788 C 49.637 28.752,49.317 28.723,48.583 28.724 C 47.850 28.724,47.571 28.754,47.963 28.789 M59.250 28.766 C 60.017 28.891,61.296 28.907,61.224 28.792 C 61.182 28.723,60.645 28.677,60.032 28.689 C 59.418 28.702,59.067 28.736,59.250 28.766 M45.740 41.417 C 45.740 43.892,45.763 44.927,45.791 43.718 C 45.820 42.509,45.820 40.484,45.791 39.218 C 45.763 37.952,45.740 38.942,45.740 41.417 M68.409 38.708 L 67.750 39.417 68.458 38.758 C 69.117 38.145,69.243 38.000,69.117 38.000 C 69.090 38.000,68.771 38.319,68.409 38.708 M70.750 39.167 C 71.108 39.533,71.438 39.833,71.484 39.833 C 71.530 39.833,71.275 39.533,70.917 39.167 C 70.559 38.800,70.228 38.500,70.182 38.500 C 70.137 38.500,70.392 38.800,70.750 39.167 M65.406 41.208 L 64.917 41.750 65.458 41.260 C 65.963 40.804,66.077 40.667,65.948 40.667 C 65.919 40.667,65.675 40.910,65.406 41.208 M272.578 51.417 C 272.578 56.917,272.599 59.143,272.625 56.363 C 272.651 53.584,272.651 49.084,272.625 46.363 C 272.599 43.643,272.578 45.917,272.578 51.417 M254.545 42.333 C 254.545 42.746,254.578 42.915,254.618 42.708 C 254.657 42.502,254.657 42.165,254.618 41.958 C 254.578 41.752,254.545 41.921,254.545 42.333 M335.879 42.833 C 335.879 43.246,335.911 43.415,335.951 43.208 C 335.991 43.002,335.991 42.665,335.951 42.458 C 335.911 42.252,335.879 42.421,335.879 42.833 M64.333 43.103 C 64.333 43.190,64.765 43.671,65.292 44.172 L 66.250 45.083 65.333 44.087 C 64.829 43.539,64.398 43.058,64.375 43.018 C 64.352 42.977,64.333 43.016,64.333 43.103 M33.214 47.750 C 33.216 48.208,33.248 48.376,33.286 48.123 C 33.325 47.869,33.324 47.494,33.284 47.289 C 33.244 47.084,33.213 47.292,33.214 47.750 M335.909 54.750 C 335.909 58.508,335.931 60.070,335.958 58.219 C 335.985 56.369,335.985 53.294,335.958 51.386 C 335.931 49.478,335.909 50.992,335.909 54.750 M295.909 55.083 C 295.909 58.658,295.931 60.097,295.958 58.281 C 295.985 56.464,295.985 53.539,295.958 51.781 C 295.931 50.022,295.909 51.508,295.909 55.083 M38.702 52.607 C 38.670 56.078,38.696 56.495,38.958 56.781 C 39.119 56.956,39.175 56.990,39.083 56.858 C 38.991 56.723,38.877 54.873,38.827 52.683 L 38.738 48.750 38.702 52.607 M65.491 50.458 L 64.917 51.083 65.542 50.509 C 65.885 50.193,66.167 49.912,66.167 49.884 C 66.167 49.757,66.026 49.877,65.491 50.458 M164.074 56.333 C 164.074 59.129,164.097 60.273,164.125 58.875 C 164.153 57.477,164.153 55.190,164.125 53.792 C 164.097 52.394,164.074 53.538,164.074 56.333 M329.407 56.333 C 329.407 59.129,329.430 60.273,329.458 58.875 C 329.486 57.477,329.486 55.190,329.458 53.792 C 329.430 52.394,329.407 53.538,329.407 56.333 M279.127 51.618 C 279.334 51.658,279.634 51.656,279.794 51.615 C 279.953 51.573,279.783 51.540,279.417 51.542 C 279.050 51.544,278.920 51.578,279.127 51.618 M367.553 53.500 C 367.553 54.096,367.584 54.340,367.621 54.042 C 367.658 53.744,367.658 53.256,367.621 52.958 C 367.584 52.660,367.553 52.904,367.553 53.500 M213.548 53.583 C 213.549 54.042,213.581 54.209,213.620 53.956 C 213.658 53.703,213.657 53.328,213.617 53.123 C 213.578 52.918,213.546 53.125,213.548 53.583 M356.042 53.417 C 356.044 53.783,356.078 53.914,356.118 53.706 C 356.158 53.499,356.156 53.199,356.115 53.040 C 356.073 52.880,356.040 53.050,356.042 53.417 M73.417 54.000 C 73.775 54.367,74.105 54.667,74.151 54.667 C 74.197 54.667,73.941 54.367,73.583 54.000 C 73.225 53.633,72.895 53.333,72.849 53.333 C 72.803 53.333,73.059 53.633,73.417 54.000 M268.879 54.000 C 268.879 54.413,268.911 54.581,268.951 54.375 C 268.991 54.169,268.991 53.831,268.951 53.625 C 268.911 53.419,268.879 53.587,268.879 54.000 M150.725 55.000 C 150.725 55.779,150.754 56.098,150.789 55.708 C 150.824 55.319,150.824 54.681,150.789 54.292 C 150.754 53.902,150.725 54.221,150.725 55.000 M228.042 56.583 C 228.044 56.950,228.078 57.080,228.118 56.873 C 228.158 56.666,228.156 56.366,228.115 56.206 C 228.073 56.047,228.040 56.217,228.042 56.583 M71.997 58.792 L 69.917 60.917 72.042 58.836 C 74.016 56.903,74.242 56.667,74.122 56.667 C 74.098 56.667,73.142 57.623,71.997 58.792 M350.240 59.875 L 349.750 60.417 350.292 59.927 C 350.797 59.471,350.910 59.333,350.781 59.333 C 350.752 59.333,350.509 59.577,350.240 59.875 M47.465 65.457 C 48.041 65.490,48.941 65.489,49.465 65.456 C 49.988 65.423,49.517 65.397,48.417 65.397 C 47.317 65.397,46.888 65.424,47.465 65.457 M61.208 65.456 C 61.644 65.490,62.356 65.490,62.792 65.456 C 63.227 65.422,62.871 65.393,62.000 65.393 C 61.129 65.393,60.773 65.422,61.208 65.456 M52.712 66.667 C 52.712 67.079,52.745 67.248,52.784 67.042 C 52.824 66.835,52.824 66.498,52.784 66.292 C 52.745 66.085,52.712 66.254,52.712 66.667 M45.167 66.907 C 45.167 67.131,45.228 67.352,45.303 67.398 C 45.378 67.444,45.407 67.261,45.368 66.991 C 45.280 66.396,45.167 66.348,45.167 66.907 M48.294 68.285 C 48.501 68.324,48.801 68.323,48.960 68.281 C 49.120 68.239,48.950 68.207,48.583 68.209 C 48.217 68.211,48.086 68.245,48.294 68.285 M62.127 68.285 C 62.334 68.324,62.634 68.323,62.794 68.281 C 62.953 68.239,62.783 68.207,62.417 68.209 C 62.050 68.211,61.920 68.245,62.127 68.285 M53.970 71.625 C 56.107 71.651,59.557 71.651,61.636 71.625 C 63.716 71.598,61.967 71.577,57.750 71.577 C 53.533 71.577,51.832 71.598,53.970 71.625 M38.160 75.708 C 38.850 76.444,39.000 76.577,39.000 76.451 C 39.000 76.425,38.644 76.068,38.208 75.660 L 37.417 74.917 38.160 75.708 M43.903 85.250 C 43.903 87.083,43.928 87.856,43.957 86.967 C 43.987 86.078,43.988 84.578,43.958 83.634 C 43.928 82.689,43.904 83.417,43.903 85.250 M44.794 91.951 C 45.001 91.991,45.301 91.990,45.460 91.948 C 45.620 91.906,45.450 91.874,45.083 91.875 C 44.717 91.877,44.586 91.911,44.794 91.951 M65.211 91.953 C 65.464 91.991,65.839 91.990,66.044 91.951 C 66.249 91.911,66.042 91.880,65.583 91.881 C 65.125 91.882,64.957 91.915,65.211 91.953 M51.875 92.125 C 53.594 92.152,56.406 92.152,58.125 92.125 C 59.844 92.098,58.438 92.076,55.000 92.076 C 51.563 92.076,50.156 92.098,51.875 92.125 " stroke="none" fill="#c4d4d4" fill-rule="evenodd"></path><path id="path5" d="M15.773 22.083 C 15.826 22.221,15.782 22.333,15.675 22.333 C 15.568 22.333,15.532 22.416,15.594 22.518 C 15.674 22.646,15.752 22.634,15.852 22.476 C 16.044 22.172,16.037 21.833,15.839 21.833 C 15.750 21.833,15.720 21.946,15.773 22.083 M62.464 24.290 C 62.948 24.324,63.698 24.323,64.131 24.289 C 64.563 24.255,64.167 24.227,63.250 24.228 C 62.333 24.228,61.980 24.256,62.464 24.290 M41.048 27.917 C 41.049 28.375,41.081 28.543,41.120 28.289 C 41.158 28.036,41.157 27.661,41.117 27.456 C 41.078 27.251,41.046 27.458,41.048 27.917 M46.455 27.287 C 46.750 27.324,47.275 27.324,47.621 27.288 C 47.967 27.252,47.725 27.222,47.083 27.221 C 46.442 27.221,46.159 27.250,46.455 27.287 M62.788 27.287 C 63.084 27.324,63.609 27.324,63.955 27.288 C 64.300 27.252,64.058 27.222,63.417 27.221 C 62.775 27.221,62.492 27.250,62.788 27.287 M44.205 29.333 C 44.205 29.654,44.240 29.785,44.282 29.625 C 44.323 29.465,44.323 29.202,44.282 29.042 C 44.240 28.881,44.205 29.012,44.205 29.333 M66.407 34.417 C 66.407 37.258,66.430 38.444,66.458 37.052 C 66.486 35.660,66.486 33.335,66.458 31.885 C 66.430 30.436,66.408 31.575,66.407 34.417 M14.581 53.250 C 14.581 64.892,14.601 69.630,14.625 63.779 C 14.649 57.928,14.649 48.403,14.625 42.612 C 14.601 36.821,14.581 41.608,14.581 53.250 M272.745 51.417 C 272.745 57.008,272.766 59.272,272.792 56.446 C 272.817 53.621,272.817 49.046,272.792 46.280 C 272.766 43.513,272.745 45.825,272.745 51.417 M335.998 42.451 C 335.953 43.111,335.977 43.591,336.050 43.517 C 336.124 43.443,336.160 42.903,336.132 42.316 L 336.080 41.250 335.998 42.451 M122.875 42.786 C 123.127 42.824,123.540 42.824,123.792 42.786 C 124.044 42.748,123.837 42.717,123.333 42.717 C 122.829 42.717,122.623 42.748,122.875 42.786 M171.058 44.000 C 171.058 44.779,171.087 45.098,171.122 44.708 C 171.157 44.319,171.157 43.681,171.122 43.292 C 171.087 42.902,171.058 43.221,171.058 44.000 M297.377 42.786 C 297.631 42.825,298.006 42.824,298.211 42.784 C 298.416 42.744,298.208 42.713,297.750 42.714 C 297.292 42.716,297.124 42.748,297.377 42.786 M243.875 43.750 C 243.877 44.117,243.911 44.247,243.951 44.040 C 243.991 43.832,243.990 43.532,243.948 43.373 C 243.906 43.214,243.874 43.383,243.875 43.750 M296.048 44.583 C 296.049 45.042,296.081 45.209,296.120 44.956 C 296.158 44.703,296.157 44.328,296.117 44.123 C 296.078 43.918,296.046 44.125,296.048 44.583 M66.395 47.167 C 66.395 48.129,66.423 48.523,66.456 48.042 C 66.490 47.560,66.490 46.773,66.456 46.292 C 66.423 45.810,66.395 46.204,66.395 47.167 M67.994 48.125 L 67.083 49.083 68.042 48.172 C 68.932 47.326,69.076 47.167,68.953 47.167 C 68.927 47.167,68.495 47.598,67.994 48.125 M336.076 54.333 C 336.076 58.321,336.098 59.952,336.125 57.958 C 336.151 55.965,336.151 52.702,336.125 50.708 C 336.098 48.715,336.076 50.346,336.076 54.333 M171.073 53.167 C 171.073 55.688,171.096 56.719,171.125 55.458 C 171.153 54.198,171.153 52.135,171.125 50.875 C 171.096 49.615,171.073 50.646,171.073 53.167 M296.076 55.083 C 296.076 58.658,296.098 60.097,296.125 58.281 C 296.152 56.464,296.152 53.539,296.125 51.781 C 296.098 50.022,296.076 51.508,296.076 55.083 M329.320 49.458 C 329.400 50.034,329.411 50.045,329.466 49.605 C 329.499 49.341,329.460 49.060,329.380 48.980 C 329.296 48.896,329.271 49.100,329.320 49.458 M176.708 51.115 C 176.869 51.157,177.131 51.157,177.292 51.115 C 177.452 51.073,177.321 51.039,177.000 51.039 C 176.679 51.039,176.548 51.073,176.708 51.115 M256.042 51.167 C 256.089 51.343,256.353 51.422,256.930 51.435 L 257.750 51.453 257.003 51.381 C 256.592 51.342,256.192 51.222,256.115 51.114 C 256.018 50.977,255.995 50.994,256.042 51.167 M329.574 56.333 C 329.574 59.221,329.597 60.402,329.625 58.958 C 329.652 57.515,329.652 55.152,329.625 53.708 C 329.597 52.265,329.574 53.446,329.574 56.333 M279.208 51.453 C 279.460 51.491,279.873 51.491,280.125 51.453 C 280.377 51.415,280.171 51.383,279.667 51.383 C 279.162 51.383,278.956 51.415,279.208 51.453 M154.407 56.833 C 154.407 59.446,154.430 60.515,154.458 59.208 C 154.486 57.902,154.486 55.765,154.458 54.458 C 154.430 53.152,154.407 54.221,154.407 56.833 M302.725 53.500 C 302.725 54.279,302.754 54.598,302.789 54.208 C 302.824 53.819,302.824 53.181,302.789 52.792 C 302.754 52.402,302.725 52.721,302.725 53.500 M367.720 53.500 C 367.720 54.096,367.750 54.340,367.787 54.042 C 367.824 53.744,367.824 53.256,367.787 52.958 C 367.750 52.660,367.720 52.904,367.720 53.500 M213.717 53.500 C 213.717 54.004,213.748 54.210,213.786 53.958 C 213.824 53.706,213.824 53.294,213.786 53.042 C 213.748 52.790,213.717 52.996,213.717 53.500 M66.397 55.750 C 66.397 56.850,66.424 57.278,66.457 56.702 C 66.490 56.125,66.489 55.225,66.456 54.702 C 66.423 54.178,66.397 54.650,66.397 55.750 M184.653 54.792 C 184.733 55.367,184.745 55.379,184.800 54.938 C 184.833 54.675,184.794 54.394,184.713 54.313 C 184.629 54.229,184.604 54.434,184.653 54.792 M44.205 60.167 C 44.205 60.487,44.240 60.619,44.282 60.458 C 44.323 60.298,44.323 60.035,44.282 59.875 C 44.240 59.715,44.205 59.846,44.205 60.167 M122.292 61.956 C 122.773 61.990,123.560 61.990,124.042 61.956 C 124.523 61.923,124.129 61.895,123.167 61.895 C 122.204 61.895,121.810 61.923,122.292 61.956 M140.629 61.956 C 141.021 61.991,141.621 61.990,141.963 61.954 C 142.304 61.919,141.983 61.890,141.250 61.890 C 140.517 61.891,140.237 61.920,140.629 61.956 M179.129 61.956 C 179.521 61.991,180.121 61.990,180.463 61.954 C 180.804 61.919,180.483 61.890,179.750 61.890 C 179.017 61.891,178.737 61.920,179.129 61.956 M205.542 61.955 C 205.885 61.991,206.448 61.991,206.792 61.955 C 207.135 61.919,206.854 61.889,206.167 61.889 C 205.479 61.889,205.198 61.919,205.542 61.955 M220.708 61.956 C 221.144 61.990,221.856 61.990,222.292 61.956 C 222.727 61.922,222.371 61.893,221.500 61.893 C 220.629 61.893,220.273 61.922,220.708 61.956 M259.296 61.956 C 259.688 61.991,260.288 61.990,260.629 61.954 C 260.971 61.919,260.650 61.890,259.917 61.890 C 259.183 61.891,258.904 61.920,259.296 61.956 M281.963 61.956 C 282.355 61.991,282.955 61.990,283.296 61.954 C 283.637 61.919,283.317 61.890,282.583 61.890 C 281.850 61.891,281.571 61.920,281.963 61.956 M305.963 61.956 C 306.355 61.991,306.955 61.990,307.296 61.954 C 307.637 61.919,307.317 61.890,306.583 61.890 C 305.850 61.891,305.571 61.920,305.963 61.956 M344.875 61.955 C 345.219 61.991,345.781 61.991,346.125 61.955 C 346.469 61.919,346.188 61.889,345.500 61.889 C 344.813 61.889,344.531 61.919,344.875 61.955 M359.542 61.955 C 359.885 61.991,360.448 61.991,360.792 61.955 C 361.135 61.919,360.854 61.889,360.167 61.889 C 359.479 61.889,359.198 61.919,359.542 61.955 M374.880 61.956 C 375.318 61.990,375.993 61.990,376.380 61.955 C 376.767 61.920,376.408 61.892,375.583 61.892 C 374.758 61.893,374.442 61.922,374.880 61.956 M45.958 62.284 C 46.165 62.324,46.502 62.324,46.708 62.284 C 46.915 62.245,46.746 62.212,46.333 62.212 C 45.921 62.212,45.752 62.245,45.958 62.284 M63.958 62.284 C 64.165 62.324,64.502 62.324,64.708 62.284 C 64.915 62.245,64.746 62.212,64.333 62.212 C 63.921 62.212,63.752 62.245,63.958 62.284 M53.375 62.458 C 54.452 62.487,56.215 62.487,57.292 62.458 C 58.369 62.429,57.487 62.405,55.333 62.405 C 53.179 62.405,52.298 62.429,53.375 62.458 M47.167 65.277 C 48.985 65.399,50.796 65.406,50.725 65.292 C 50.682 65.223,49.695 65.180,48.532 65.197 C 47.368 65.213,46.754 65.249,47.167 65.277 M60.958 65.290 C 61.440 65.323,62.227 65.323,62.708 65.290 C 63.190 65.256,62.796 65.228,61.833 65.228 C 60.871 65.228,60.477 65.256,60.958 65.290 M52.548 66.917 C 52.549 67.375,52.581 67.543,52.620 67.289 C 52.658 67.036,52.657 66.661,52.617 66.456 C 52.578 66.251,52.546 66.458,52.548 66.917 M42.000 69.885 C 42.000 69.914,42.244 70.158,42.542 70.427 L 43.083 70.917 42.594 70.375 C 42.138 69.870,42.000 69.757,42.000 69.885 M51.542 71.458 C 53.169 71.485,55.831 71.485,57.458 71.458 C 59.085 71.431,57.754 71.408,54.500 71.408 C 51.246 71.408,49.915 71.431,51.542 71.458 M47.554 93.125 C 51.572 93.150,58.097 93.150,62.054 93.125 C 66.012 93.100,62.725 93.080,54.750 93.080 C 46.775 93.080,43.537 93.100,47.554 93.125 " stroke="none" fill="#6c7c7c" fill-rule="evenodd"></path><path id="path6" d="M51.886 27.125 C 53.794 27.152,56.869 27.152,58.719 27.125 C 60.570 27.098,59.008 27.076,55.250 27.076 C 51.492 27.076,49.978 27.098,51.886 27.125 M172.333 48.500 L 171.083 48.607 172.282 48.637 C 172.941 48.653,173.527 48.592,173.583 48.500 C 173.640 48.408,173.663 48.347,173.635 48.363 C 173.607 48.380,173.021 48.441,172.333 48.500 M195.955 48.620 C 196.250 48.657,196.775 48.658,197.121 48.622 C 197.467 48.586,197.225 48.555,196.583 48.555 C 195.942 48.554,195.659 48.583,195.955 48.620 M296.796 48.622 C 297.188 48.657,297.788 48.657,298.129 48.621 C 298.471 48.585,298.150 48.557,297.417 48.557 C 296.683 48.558,296.404 48.587,296.796 48.622 M41.388 67.083 C 41.389 67.725,41.419 67.967,41.455 67.621 C 41.491 67.275,41.490 66.750,41.454 66.455 C 41.417 66.159,41.387 66.442,41.388 67.083 M64.875 71.286 C 65.127 71.324,65.540 71.324,65.792 71.286 C 66.044 71.248,65.837 71.217,65.333 71.217 C 64.829 71.217,64.623 71.248,64.875 71.286 " stroke="none" fill="#647474" fill-rule="evenodd"></path><path id="path7" d="M44.958 24.287 C 45.256 24.324,45.744 24.324,46.042 24.287 C 46.340 24.250,46.096 24.220,45.500 24.220 C 44.904 24.220,44.660 24.250,44.958 24.287 M56.801 24.291 C 57.745 24.321,59.245 24.321,60.134 24.291 C 61.023 24.261,60.250 24.237,58.417 24.237 C 56.583 24.237,55.856 24.261,56.801 24.291 M65.295 24.454 C 65.594 24.491,66.044 24.490,66.295 24.452 C 66.545 24.414,66.300 24.384,65.750 24.385 C 65.200 24.386,64.995 24.417,65.295 24.454 M42.073 25.375 L 41.583 25.917 42.125 25.427 C 42.630 24.971,42.743 24.833,42.615 24.833 C 42.586 24.833,42.342 25.077,42.073 25.375 M46.708 27.121 C 47.052 27.157,47.615 27.157,47.958 27.121 C 48.302 27.085,48.021 27.056,47.333 27.056 C 46.646 27.056,46.365 27.085,46.708 27.121 M62.542 27.121 C 62.885 27.157,63.448 27.157,63.792 27.121 C 64.135 27.085,63.854 27.056,63.167 27.056 C 62.479 27.056,62.198 27.085,62.542 27.121 M69.241 32.667 C 69.241 35.462,69.263 36.606,69.291 35.208 C 69.319 33.810,69.319 31.523,69.291 30.125 C 69.263 28.727,69.241 29.871,69.241 32.667 M41.073 33.500 C 41.073 36.021,41.096 37.052,41.125 35.792 C 41.153 34.531,41.153 32.469,41.125 31.208 C 41.096 29.948,41.073 30.979,41.073 33.500 M41.398 41.667 C 41.398 42.813,41.424 43.281,41.457 42.708 C 41.489 42.135,41.489 41.198,41.457 40.625 C 41.424 40.052,41.398 40.521,41.398 41.667 M69.221 45.583 C 69.222 46.225,69.252 46.467,69.288 46.121 C 69.324 45.775,69.324 45.250,69.287 44.955 C 69.250 44.659,69.221 44.942,69.221 45.583 M41.075 50.583 C 41.075 53.792,41.097 55.081,41.125 53.448 C 41.152 51.815,41.152 49.190,41.125 47.614 C 41.097 46.039,41.075 47.375,41.075 50.583 M157.333 48.426 C 157.953 48.561,158.802 48.585,158.728 48.465 C 158.684 48.393,158.295 48.342,157.865 48.353 C 157.435 48.363,157.196 48.396,157.333 48.426 M322.353 48.485 C 322.211 48.574,322.438 48.597,322.936 48.543 C 323.384 48.495,323.781 48.428,323.819 48.394 C 323.970 48.262,322.569 48.348,322.353 48.485 M167.375 49.250 C 167.377 49.617,167.411 49.747,167.451 49.540 C 167.491 49.332,167.490 49.032,167.448 48.873 C 167.406 48.714,167.374 48.883,167.375 49.250 M292.375 49.250 C 292.377 49.617,292.411 49.747,292.451 49.540 C 292.491 49.332,292.490 49.032,292.448 48.873 C 292.406 48.714,292.374 48.883,292.375 49.250 M188.406 53.000 C 188.406 55.337,188.429 56.294,188.458 55.125 C 188.487 53.956,188.487 52.044,188.458 50.875 C 188.429 49.706,188.406 50.663,188.406 53.000 M367.503 51.347 C 367.504 51.569,367.579 51.862,367.669 52.000 C 367.784 52.176,367.801 52.077,367.726 51.667 C 367.594 50.948,367.499 50.812,367.503 51.347 M164.241 56.333 C 164.241 59.221,164.264 60.402,164.291 58.958 C 164.319 57.515,164.319 55.152,164.291 53.708 C 164.264 52.265,164.241 53.446,164.241 56.333 M314.228 53.417 C 314.228 54.333,314.256 54.687,314.290 54.203 C 314.324 53.718,314.323 52.968,314.289 52.536 C 314.255 52.104,314.227 52.500,314.228 53.417 M69.164 54.534 C 69.120 55.057,69.144 55.423,69.218 55.349 C 69.293 55.274,69.329 54.846,69.299 54.398 L 69.245 53.583 69.164 54.534 M367.539 55.667 C 367.539 55.987,367.573 56.119,367.615 55.958 C 367.657 55.798,367.657 55.535,367.615 55.375 C 367.573 55.215,367.539 55.346,367.539 55.667 M264.500 55.664 C 264.637 55.754,264.931 55.829,265.153 55.831 C 265.688 55.834,265.552 55.739,264.833 55.608 C 264.423 55.532,264.324 55.549,264.500 55.664 M287.167 55.664 C 287.304 55.754,287.598 55.829,287.819 55.831 C 288.354 55.834,288.219 55.739,287.500 55.608 C 287.090 55.532,286.991 55.549,287.167 55.664 M41.406 61.917 C 41.405 64.208,41.429 65.169,41.458 64.051 C 41.487 62.934,41.487 61.059,41.458 59.885 C 41.429 58.711,41.406 59.625,41.406 61.917 M169.819 61.719 C 169.894 61.794,170.284 61.830,170.686 61.799 L 171.417 61.744 170.550 61.664 C 170.073 61.619,169.744 61.644,169.819 61.719 M172.125 61.784 C 172.331 61.824,172.669 61.824,172.875 61.784 C 173.081 61.745,172.912 61.712,172.500 61.712 C 172.088 61.712,171.919 61.745,172.125 61.784 M186.127 61.785 C 186.334 61.824,186.634 61.823,186.794 61.781 C 186.953 61.739,186.783 61.707,186.417 61.709 C 186.050 61.711,185.920 61.745,186.127 61.785 M194.627 61.785 C 194.834 61.824,195.134 61.823,195.294 61.781 C 195.453 61.739,195.283 61.707,194.917 61.709 C 194.550 61.711,194.420 61.745,194.627 61.785 M196.458 61.784 C 196.665 61.824,197.002 61.824,197.208 61.784 C 197.415 61.745,197.246 61.712,196.833 61.712 C 196.421 61.712,196.252 61.745,196.458 61.784 M223.167 61.841 C 222.984 61.964,223.052 61.980,223.417 61.898 C 224.029 61.761,224.163 61.666,223.736 61.669 C 223.560 61.671,223.304 61.748,223.167 61.841 M68.910 62.011 C 68.827 62.145,68.850 62.176,68.974 62.099 C 69.111 62.014,69.176 62.306,69.199 63.115 L 69.231 64.250 69.291 63.184 C 69.349 62.138,69.171 61.589,68.910 62.011 M48.215 62.457 C 48.838 62.489,49.813 62.489,50.382 62.457 C 50.951 62.424,50.442 62.398,49.250 62.398 C 48.058 62.398,47.593 62.425,48.215 62.457 M60.208 62.457 C 60.827 62.489,61.840 62.489,62.458 62.457 C 63.077 62.425,62.571 62.399,61.333 62.399 C 60.096 62.399,59.590 62.425,60.208 62.457 M54.542 63.955 C 54.885 63.991,55.448 63.991,55.792 63.955 C 56.135 63.919,55.854 63.889,55.167 63.889 C 54.479 63.889,54.198 63.919,54.542 63.955 M66.661 67.125 L 65.750 68.083 66.708 67.172 C 67.599 66.326,67.743 66.167,67.619 66.167 C 67.593 66.167,67.162 66.598,66.661 67.125 M48.125 68.451 C 48.331 68.491,48.669 68.491,48.875 68.451 C 49.081 68.411,48.913 68.379,48.500 68.379 C 48.087 68.379,47.919 68.411,48.125 68.451 M62.125 68.451 C 62.331 68.491,62.669 68.491,62.875 68.451 C 63.081 68.411,62.913 68.379,62.500 68.379 C 62.087 68.379,61.919 68.411,62.125 68.451 M54.958 69.454 C 55.256 69.491,55.744 69.491,56.042 69.454 C 56.340 69.417,56.096 69.387,55.500 69.387 C 54.904 69.387,54.660 69.417,54.958 69.454 M45.458 71.290 C 46.031 71.323,46.969 71.323,47.542 71.290 C 48.115 71.258,47.646 71.231,46.500 71.231 C 45.354 71.231,44.885 71.258,45.458 71.290 M61.382 71.290 C 62.004 71.323,62.979 71.322,63.549 71.290 C 64.118 71.257,63.608 71.231,62.417 71.231 C 61.225 71.232,60.759 71.258,61.382 71.290 M95.067 74.500 C 95.067 75.921,95.093 76.502,95.124 75.792 C 95.155 75.081,95.155 73.919,95.124 73.208 C 95.093 72.498,95.067 73.079,95.067 74.500 M93.268 85.430 C 93.123 85.809,93.143 86.034,93.313 85.929 C 93.511 85.807,93.670 85.167,93.502 85.167 C 93.429 85.167,93.323 85.285,93.268 85.430 " stroke="none" fill="#5c6c6c" fill-rule="evenodd"></path><path id="path8" d="M51.958 28.625 C 53.265 28.653,55.402 28.653,56.708 28.625 C 58.015 28.596,56.946 28.573,54.333 28.573 C 51.721 28.573,50.652 28.596,51.958 28.625 M45.734 34.500 C 45.734 35.921,45.759 36.502,45.791 35.792 C 45.822 35.081,45.822 33.919,45.791 33.208 C 45.759 32.498,45.734 33.079,45.734 34.500 M69.333 37.952 C 69.471 38.002,69.733 38.165,69.917 38.313 C 70.247 38.581,70.247 38.580,69.933 38.208 C 69.758 38.002,69.495 37.839,69.349 37.846 C 69.124 37.858,69.121 37.874,69.333 37.952 M41.231 41.667 C 41.231 42.813,41.258 43.281,41.290 42.708 C 41.323 42.135,41.323 41.198,41.290 40.625 C 41.258 40.052,41.231 40.521,41.231 41.667 M45.732 48.083 C 45.733 49.367,45.759 49.870,45.791 49.201 C 45.822 48.532,45.822 47.482,45.790 46.868 C 45.758 46.253,45.732 46.800,45.732 48.083 M197.825 47.787 C 197.779 48.175,197.806 48.428,197.883 48.350 C 197.961 48.273,197.998 47.956,197.966 47.646 C 197.910 47.097,197.906 47.101,197.825 47.787 M140.875 48.282 C 141.035 48.323,141.298 48.323,141.458 48.282 C 141.619 48.240,141.487 48.205,141.167 48.205 C 140.846 48.205,140.715 48.240,140.875 48.282 M181.208 48.286 C 181.460 48.324,181.873 48.324,182.125 48.286 C 182.377 48.248,182.171 48.217,181.667 48.217 C 181.162 48.217,180.956 48.248,181.208 48.286 M33.079 59.500 C 33.079 65.412,33.099 67.831,33.125 64.875 C 33.150 61.919,33.150 57.081,33.125 54.125 C 33.099 51.169,33.079 53.587,33.079 59.500 M164.039 50.500 C 164.039 50.821,164.073 50.952,164.115 50.792 C 164.157 50.631,164.157 50.369,164.115 50.208 C 164.073 50.048,164.039 50.179,164.039 50.500 M65.167 52.219 C 65.167 52.248,65.410 52.491,65.708 52.760 L 66.250 53.250 65.760 52.708 C 65.304 52.203,65.167 52.090,65.167 52.219 M319.740 56.917 C 319.740 59.483,319.763 60.510,319.791 59.198 C 319.820 57.886,319.819 55.786,319.791 54.532 C 319.763 53.277,319.740 54.350,319.740 56.917 M70.577 53.875 L 69.750 54.750 70.625 53.923 C 71.106 53.468,71.500 53.074,71.500 53.048 C 71.500 52.924,71.346 53.062,70.577 53.875 M289.712 53.833 C 289.712 54.246,289.745 54.415,289.784 54.208 C 289.824 54.002,289.824 53.665,289.784 53.458 C 289.745 53.252,289.712 53.421,289.712 53.833 M258.542 54.625 C 260.077 54.652,262.590 54.652,264.125 54.625 C 265.660 54.597,264.404 54.575,261.333 54.575 C 258.262 54.575,257.006 54.597,258.542 54.625 M281.386 54.625 C 282.927 54.652,285.402 54.652,286.886 54.625 C 288.369 54.597,287.108 54.575,284.083 54.575 C 281.058 54.575,279.844 54.597,281.386 54.625 M41.239 61.750 C 41.239 64.042,41.262 65.002,41.291 63.885 C 41.320 62.767,41.320 60.892,41.291 59.718 C 41.263 58.544,41.239 59.458,41.239 61.750 M188.083 61.500 L 186.750 61.606 188.032 61.636 C 188.742 61.653,189.360 61.592,189.417 61.500 C 189.473 61.408,189.496 61.347,189.468 61.364 C 189.440 61.381,188.817 61.442,188.083 61.500 M152.875 61.619 C 153.127 61.658,153.540 61.658,153.792 61.619 C 154.044 61.581,153.837 61.550,153.333 61.550 C 152.829 61.550,152.623 61.581,152.875 61.619 M162.708 61.619 C 162.960 61.658,163.373 61.658,163.625 61.619 C 163.877 61.581,163.671 61.550,163.167 61.550 C 162.662 61.550,162.456 61.581,162.708 61.619 M246.295 61.621 C 246.594 61.658,247.044 61.657,247.295 61.619 C 247.545 61.581,247.300 61.551,246.750 61.552 C 246.200 61.553,245.995 61.584,246.295 61.621 M271.208 61.619 C 271.460 61.658,271.873 61.658,272.125 61.619 C 272.377 61.581,272.171 61.550,271.667 61.550 C 271.162 61.550,270.956 61.581,271.208 61.619 M294.542 61.619 C 294.794 61.658,295.206 61.658,295.458 61.619 C 295.710 61.581,295.504 61.550,295.000 61.550 C 294.496 61.550,294.290 61.581,294.542 61.619 M318.377 61.620 C 318.631 61.658,319.006 61.657,319.211 61.617 C 319.416 61.578,319.208 61.546,318.750 61.548 C 318.292 61.549,318.124 61.581,318.377 61.620 M328.042 61.619 C 328.294 61.658,328.706 61.658,328.958 61.619 C 329.210 61.581,329.004 61.550,328.500 61.550 C 327.996 61.550,327.790 61.581,328.042 61.619 M334.542 61.619 C 334.794 61.658,335.206 61.658,335.458 61.619 C 335.710 61.581,335.504 61.550,335.000 61.550 C 334.496 61.550,334.290 61.581,334.542 61.619 M73.083 63.667 C 73.628 64.217,74.110 64.667,74.156 64.667 C 74.202 64.667,73.794 64.217,73.250 63.667 C 72.706 63.117,72.223 62.667,72.177 62.667 C 72.131 62.667,72.539 63.117,73.083 63.667 M70.073 63.375 L 69.583 63.917 70.125 63.427 C 70.630 62.971,70.743 62.833,70.615 62.833 C 70.586 62.833,70.342 63.077,70.073 63.375 M74.375 65.583 C 74.377 65.950,74.411 66.080,74.451 65.873 C 74.491 65.666,74.490 65.366,74.448 65.206 C 74.406 65.047,74.374 65.217,74.375 65.583 M67.413 66.542 L 66.083 67.917 67.458 66.587 C 68.215 65.856,68.833 65.237,68.833 65.212 C 68.833 65.091,68.647 65.265,67.413 66.542 M55.460 69.285 C 55.668 69.324,55.968 69.323,56.127 69.281 C 56.286 69.239,56.117 69.207,55.750 69.209 C 55.383 69.211,55.253 69.245,55.460 69.285 M41.833 69.885 C 41.833 69.914,42.077 70.158,42.375 70.427 L 42.917 70.917 42.427 70.375 C 41.971 69.870,41.833 69.757,41.833 69.885 M44.627 71.451 C 44.834 71.491,45.134 71.490,45.294 71.448 C 45.453 71.406,45.283 71.374,44.917 71.375 C 44.550 71.377,44.420 71.411,44.627 71.451 M65.708 71.448 C 65.869 71.490,66.131 71.490,66.292 71.448 C 66.452 71.406,66.321 71.372,66.000 71.372 C 65.679 71.372,65.548 71.406,65.708 71.448 M40.164 77.875 C 41.125 78.860,41.931 79.667,41.955 79.667 C 42.076 79.667,41.872 79.453,40.208 77.830 L 38.417 76.083 40.164 77.875 M43.894 90.083 C 43.895 91.000,43.923 91.354,43.956 90.869 C 43.990 90.385,43.990 89.635,43.956 89.203 C 43.921 88.770,43.894 89.167,43.894 90.083 M46.292 92.123 C 46.773 92.157,47.560 92.157,48.042 92.123 C 48.523 92.089,48.129 92.062,47.167 92.062 C 46.204 92.062,45.810 92.089,46.292 92.123 M62.132 92.124 C 62.708 92.156,63.608 92.156,64.132 92.123 C 64.655 92.090,64.183 92.063,63.083 92.064 C 61.983 92.064,61.555 92.091,62.132 92.124 " stroke="none" fill="#bccccc" fill-rule="evenodd"></path></g></svg>