<svg id="svg" version="1.1" xmlns="http://www.w3.org/2000/svg" xmlns:xlink="http://www.w3.org/1999/xlink" width="400" height="106.66666666666667" viewBox="0, 0, 400,106.66666666666667"><g id="svgg"><path id="path0" d="M28.446 13.777 C 28.385 13.837,27.820 13.870,27.190 13.850 C 26.336 13.822,25.978 13.879,25.784 14.073 C 25.641 14.216,25.350 14.334,25.137 14.334 C 24.547 14.336,23.500 14.662,23.500 14.844 C 23.500 14.934,23.314 14.960,23.083 14.902 C 22.827 14.837,22.667 14.868,22.667 14.982 C 22.667 15.084,22.535 15.172,22.375 15.179 C 22.215 15.186,21.858 15.334,21.583 15.510 C 21.308 15.685,20.911 15.904,20.701 15.996 C 20.490 16.089,20.077 16.390,19.784 16.665 C 19.490 16.940,19.200 17.165,19.139 17.166 C 18.870 17.168,17.667 18.505,17.667 18.801 C 17.667 18.981,17.479 19.251,17.250 19.401 C 17.021 19.551,16.833 19.785,16.833 19.921 C 16.833 20.056,16.755 20.167,16.658 20.167 C 16.562 20.167,16.385 20.410,16.266 20.708 C 16.147 21.006,15.989 21.400,15.915 21.583 C 15.841 21.767,15.796 22.010,15.814 22.125 C 15.833 22.240,15.757 22.333,15.646 22.333 C 15.535 22.333,15.492 22.381,15.550 22.439 C 15.608 22.496,15.545 22.701,15.411 22.892 C 15.277 23.084,15.167 23.487,15.167 23.787 C 15.167 24.088,15.087 24.333,14.989 24.333 C 14.887 24.333,14.856 24.475,14.917 24.667 C 14.975 24.850,14.951 25.000,14.864 25.000 C 14.394 25.000,14.279 80.721,14.747 81.436 C 14.884 81.645,14.952 81.932,14.897 82.075 C 14.842 82.217,14.881 82.333,14.982 82.333 C 15.084 82.333,15.167 82.579,15.167 82.880 C 15.167 83.180,15.291 83.603,15.442 83.819 C 15.594 84.035,15.737 84.371,15.761 84.564 C 15.825 85.089,16.492 86.500,16.674 86.500 C 16.762 86.500,16.833 86.648,16.833 86.829 C 16.833 87.011,17.021 87.282,17.250 87.432 C 17.479 87.582,17.667 87.819,17.667 87.957 C 17.667 88.310,18.801 89.533,19.402 89.829 C 19.677 89.964,20.093 90.270,20.326 90.508 C 20.559 90.747,21.077 91.070,21.476 91.227 C 21.875 91.383,22.314 91.624,22.452 91.761 C 22.631 91.940,22.762 91.962,22.912 91.837 C 23.062 91.713,23.178 91.730,23.317 91.897 C 23.424 92.026,23.772 92.181,24.089 92.240 C 24.407 92.300,24.667 92.428,24.667 92.526 C 24.667 92.631,24.835 92.661,25.084 92.598 C 25.353 92.531,25.662 92.599,25.952 92.788 C 26.854 93.380,83.162 93.314,83.755 92.721 C 83.907 92.569,84.133 92.520,84.354 92.590 C 84.556 92.654,84.758 92.622,84.824 92.515 C 84.888 92.412,85.409 92.245,85.983 92.144 C 86.573 92.040,87.064 91.860,87.114 91.730 C 87.163 91.603,87.340 91.500,87.508 91.500 C 87.676 91.500,87.860 91.425,87.917 91.333 C 87.973 91.242,88.168 91.167,88.348 91.167 C 88.529 91.167,88.720 91.054,88.773 90.917 C 88.826 90.779,88.969 90.667,89.092 90.667 C 89.214 90.667,89.412 90.534,89.532 90.372 C 89.652 90.210,89.961 89.942,90.220 89.777 C 90.956 89.307,92.000 88.233,92.000 87.946 C 92.000 87.803,92.139 87.588,92.309 87.468 C 92.683 87.204,93.167 86.301,93.167 85.867 C 93.167 85.693,93.317 85.378,93.500 85.167 C 93.683 84.955,93.833 84.693,93.833 84.583 C 93.833 84.474,93.989 84.204,94.180 83.984 C 94.433 83.693,94.511 83.414,94.468 82.959 C 94.435 82.615,94.466 82.333,94.537 82.333 C 94.608 82.333,94.667 82.226,94.667 82.094 C 94.667 81.963,94.749 81.644,94.850 81.386 C 94.981 81.051,95.026 73.588,95.007 55.226 C 94.985 34.180,95.019 29.519,95.198 29.447 C 95.340 29.390,95.348 29.355,95.221 29.346 C 95.078 29.337,95.049 28.833,95.114 27.479 C 95.173 26.237,95.142 25.588,95.021 25.513 C 94.922 25.452,94.730 24.822,94.594 24.113 C 94.459 23.404,94.232 22.708,94.090 22.567 C 93.949 22.425,93.833 22.173,93.833 22.006 C 93.833 21.839,93.713 21.656,93.566 21.600 C 93.405 21.538,93.339 21.392,93.400 21.233 C 93.456 21.088,93.351 20.759,93.167 20.501 C 92.984 20.243,92.833 19.958,92.833 19.868 C 92.833 19.779,92.646 19.582,92.417 19.432 C 92.188 19.282,92.000 19.011,92.000 18.829 C 92.000 18.648,91.888 18.500,91.750 18.500 C 91.612 18.500,91.500 18.395,91.500 18.267 C 91.500 17.973,90.405 17.000,90.074 17.000 C 89.938 17.000,89.741 16.813,89.636 16.583 C 89.532 16.354,89.350 16.167,89.232 16.167 C 89.113 16.167,88.683 15.942,88.276 15.667 C 87.868 15.392,87.415 15.167,87.267 15.167 C 87.120 15.167,87.000 15.084,87.000 14.982 C 87.000 14.868,86.840 14.837,86.583 14.902 C 86.354 14.959,86.167 14.942,86.167 14.863 C 86.167 14.694,85.039 14.333,84.510 14.333 C 84.308 14.333,84.026 14.216,83.882 14.073 C 83.688 13.879,83.331 13.822,82.477 13.850 C 81.847 13.870,81.282 13.837,81.221 13.777 C 81.077 13.633,28.589 13.633,28.446 13.777 M67.275 24.687 C 69.155 25.655,69.333 26.358,69.333 32.822 L 69.333 37.599 68.071 38.758 C 67.377 39.395,66.744 39.940,66.665 39.969 C 66.585 39.998,66.497 37.485,66.468 34.386 C 66.408 27.836,66.378 27.676,65.138 27.303 C 63.776 26.894,46.093 26.995,45.250 27.417 C 44.140 27.972,44.186 27.218,44.176 44.797 C 44.166 62.513,44.108 61.610,45.286 62.117 C 46.247 62.532,64.424 62.527,65.389 62.113 C 66.015 61.844,66.040 61.847,66.572 62.252 C 67.259 62.777,67.792 62.776,68.566 62.251 C 69.317 61.741,69.401 61.873,69.304 63.408 L 69.236 64.475 67.535 66.304 C 65.590 68.395,65.648 68.247,66.418 69.168 C 68.203 71.305,68.223 71.301,54.381 71.320 C 40.542 71.339,41.577 72.037,41.300 62.500 C 41.203 59.154,41.134 53.679,41.146 50.333 C 41.175 42.825,41.173 40.487,41.135 33.000 C 41.096 25.421,41.229 25.049,44.250 24.267 C 44.433 24.220,49.515 24.205,55.543 24.235 L 66.502 24.289 67.275 24.687 M61.226 28.794 C 61.269 28.864,61.100 29.220,60.850 29.586 C 59.422 31.672,57.222 34.838,52.918 41.000 C 52.309 41.871,51.385 43.199,50.864 43.951 C 50.343 44.703,49.017 46.615,47.917 48.201 L 45.917 51.083 45.792 47.750 C 45.635 43.565,45.799 30.427,46.017 29.729 C 46.326 28.737,46.608 28.701,54.282 28.683 C 58.058 28.674,61.182 28.724,61.226 28.794 M41.002 38.996 C 41.591 41.119,41.079 44.954,40.013 46.402 C 38.882 47.936,38.921 47.744,38.861 51.984 C 38.787 57.234,38.851 57.462,40.264 56.995 C 41.110 56.716,41.075 56.492,41.173 62.805 C 41.320 72.198,40.172 71.500,55.484 71.500 C 66.331 71.500,66.460 71.496,66.894 71.155 C 67.501 70.677,67.445 70.212,66.667 69.270 C 65.798 68.219,65.775 68.300,67.422 66.663 C 68.204 65.886,69.044 64.950,69.288 64.583 C 70.243 63.151,71.209 62.385,71.818 62.578 C 73.095 62.984,74.802 65.753,74.189 66.425 C 74.109 66.512,73.404 67.933,72.621 69.583 C 70.086 74.929,69.153 76.873,67.941 79.333 L 66.750 81.750 66.701 86.790 L 66.653 91.830 66.285 91.921 C 65.799 92.040,44.222 91.944,44.100 91.822 C 44.048 91.770,43.962 89.558,43.909 86.906 C 43.856 84.253,43.778 81.915,43.737 81.710 C 43.695 81.505,41.666 79.297,39.227 76.803 C 36.788 74.310,34.427 71.830,33.980 71.293 L 33.167 70.316 33.170 58.700 C 33.174 45.873,33.108 46.731,34.209 45.246 C 34.415 44.968,35.583 43.338,36.806 41.622 C 39.424 37.947,39.661 37.713,40.356 38.123 C 40.656 38.300,40.900 38.630,41.002 38.996 M70.521 38.878 C 71.821 40.117,72.077 40.543,71.818 41.030 C 71.481 41.665,68.310 44.553,67.216 45.221 C 66.677 45.550,64.333 43.632,64.333 42.862 C 64.333 42.446,65.490 41.030,66.264 40.500 C 66.599 40.271,67.370 39.616,67.978 39.045 C 69.322 37.784,69.369 37.781,70.521 38.878 M309.173 40.583 C 309.174 40.675,309.327 40.938,309.515 41.167 C 309.741 41.443,309.798 41.471,309.683 41.250 C 309.402 40.706,309.172 40.405,309.173 40.583 M272.707 51.117 L 272.667 61.484 271.625 61.543 L 270.583 61.602 271.630 61.635 C 272.969 61.676,272.843 62.830,272.792 51.000 L 272.747 40.750 272.707 51.117 M336.033 42.118 L 336.000 43.485 334.792 43.543 L 333.583 43.600 334.797 43.634 C 336.224 43.672,336.205 43.696,336.124 41.984 L 336.066 40.750 336.033 42.118 M254.639 42.084 C 254.608 42.680,254.640 43.167,254.708 43.167 C 254.777 43.167,254.833 42.679,254.833 42.083 C 254.833 40.684,254.711 40.685,254.639 42.084 M129.999 41.792 C 130.218 42.090,130.422 42.333,130.454 42.333 C 130.580 42.333,130.167 41.708,129.894 41.486 C 129.714 41.340,129.754 41.456,129.999 41.792 M171.036 43.542 L 171.000 45.500 171.708 45.472 L 172.417 45.444 171.797 45.379 L 171.177 45.314 171.124 43.449 L 171.071 41.583 171.036 43.542 M299.614 42.178 L 299.496 42.773 298.109 42.701 C 296.356 42.609,296.000 42.916,296.000 44.522 L 296.000 45.500 296.708 45.472 L 297.417 45.444 296.792 45.379 L 296.167 45.313 296.167 44.407 C 296.167 43.021,296.498 42.771,298.201 42.870 C 299.604 42.951,299.977 42.710,299.790 41.846 C 299.758 41.702,299.679 41.851,299.614 42.178 M195.407 43.583 L 195.417 45.417 196.043 45.434 L 196.670 45.452 196.090 45.383 L 195.511 45.314 195.455 43.532 L 195.398 41.750 195.407 43.583 M121.533 42.831 C 121.231 42.903,120.936 43.008,120.879 43.066 C 120.821 43.123,121.031 43.113,121.345 43.043 C 122.065 42.884,124.396 42.879,125.167 43.035 C 125.716 43.147,125.712 43.140,125.083 42.923 C 124.360 42.673,122.415 42.622,121.533 42.831 M131.052 43.320 C 131.250 43.681,131.437 43.952,131.468 43.921 C 131.549 43.840,131.032 42.873,130.847 42.759 C 130.762 42.706,130.854 42.958,131.052 43.320 M305.900 43.576 L 305.296 44.485 304.273 44.544 L 303.250 44.602 304.290 44.635 L 305.330 44.667 305.949 43.735 L 306.567 42.803 307.044 43.360 C 307.502 43.894,307.418 43.562,306.943 42.958 C 306.614 42.541,306.569 42.568,305.900 43.576 M311.330 43.500 L 312.033 44.417 310.058 44.508 L 308.083 44.600 310.125 44.633 C 312.494 44.672,312.519 44.648,311.390 43.417 L 310.627 42.583 311.330 43.500 M126.574 43.893 C 127.027 44.318,127.436 44.667,127.482 44.667 C 127.636 44.667,126.420 43.475,126.083 43.296 C 125.900 43.199,126.121 43.467,126.574 43.893 M243.883 44.000 C 243.883 44.504,243.915 44.710,243.953 44.458 C 243.991 44.206,243.991 43.794,243.953 43.542 C 243.915 43.290,243.883 43.496,243.883 44.000 M247.707 52.284 L 247.667 61.485 246.542 61.543 L 245.417 61.601 246.547 61.634 C 247.981 61.675,247.844 62.720,247.792 52.167 L 247.747 43.083 247.707 52.284 M119.708 43.665 C 119.150 44.005,118.939 44.304,119.458 44.018 C 119.845 43.805,120.439 43.345,120.333 43.339 C 120.287 43.337,120.006 43.483,119.708 43.665 M69.322 45.624 L 69.333 46.666 68.145 47.916 C 66.545 49.601,66.500 49.584,66.500 47.333 C 66.500 45.591,66.517 45.500,66.845 45.500 C 67.034 45.500,67.612 45.156,68.129 44.735 C 69.225 43.842,69.302 43.899,69.322 45.624 M131.667 44.562 C 131.667 44.597,131.779 44.944,131.917 45.333 C 132.228 46.217,132.237 46.149,131.792 46.328 C 131.582 46.412,131.527 46.482,131.667 46.487 C 132.290 46.507,132.387 46.248,132.090 45.353 C 131.853 44.640,131.667 44.292,131.667 44.562 M117.833 45.833 C 117.646 46.200,117.531 46.500,117.577 46.500 C 117.622 46.500,117.813 46.200,118.000 45.833 C 118.187 45.467,118.303 45.167,118.257 45.167 C 118.211 45.167,118.020 45.467,117.833 45.833 M304.000 45.361 C 303.679 45.452,303.349 45.591,303.267 45.671 C 303.143 45.791,304.352 45.491,304.917 45.261 C 305.247 45.126,304.570 45.200,304.000 45.361 M309.000 45.389 C 309.000 45.432,309.242 45.552,309.538 45.655 C 309.834 45.758,310.002 45.774,309.913 45.690 C 309.723 45.512,309.000 45.274,309.000 45.389 M71.865 47.076 C 73.584 48.745,73.585 48.742,71.187 51.110 C 67.999 54.257,67.416 54.382,65.426 52.343 C 64.571 51.467,64.695 51.060,66.163 49.918 C 67.347 48.996,68.831 47.545,69.549 46.608 C 70.213 45.740,70.562 45.810,71.865 47.076 M311.000 46.227 C 311.000 46.273,311.225 46.471,311.500 46.667 C 311.775 46.862,312.000 46.985,312.000 46.939 C 312.000 46.894,311.775 46.696,311.500 46.500 C 311.225 46.304,311.000 46.181,311.000 46.227 M336.040 53.950 L 336.000 61.484 334.958 61.543 L 333.917 61.602 334.964 61.635 C 336.296 61.675,336.178 62.468,336.125 53.833 L 336.080 46.417 336.040 53.950 M129.833 46.787 C 129.222 46.896,129.067 47.124,129.663 47.036 C 129.942 46.995,130.212 46.895,130.262 46.814 C 130.312 46.733,130.330 46.677,130.302 46.689 C 130.273 46.702,130.063 46.746,129.833 46.787 M173.530 47.451 L 173.500 48.319 172.292 48.368 L 171.083 48.417 171.039 53.186 C 170.998 57.579,171.018 57.973,171.289 58.178 C 171.540 58.368,171.552 58.366,171.375 58.167 C 171.219 57.992,171.167 56.771,171.167 53.300 L 171.167 48.667 172.339 48.667 C 173.674 48.667,173.719 48.623,173.623 47.395 L 173.560 46.583 173.530 47.451 M187.797 47.591 C 187.951 48.008,188.100 48.284,188.126 48.205 C 188.180 48.044,187.705 46.833,187.589 46.833 C 187.549 46.833,187.642 47.174,187.797 47.591 M197.862 47.618 L 197.833 48.319 196.625 48.368 L 195.417 48.417 195.372 53.186 C 195.332 57.579,195.352 57.973,195.622 58.178 C 195.873 58.368,195.886 58.366,195.708 58.167 C 195.552 57.992,195.500 56.771,195.500 53.300 L 195.500 48.667 196.542 48.664 C 197.896 48.661,198.037 48.560,197.957 47.650 L 197.892 46.917 197.862 47.618 M226.674 47.125 C 226.683 47.292,227.317 48.446,227.326 48.312 C 227.338 48.140,226.835 47.000,226.748 47.000 C 226.703 47.000,226.670 47.056,226.674 47.125 M265.000 47.134 C 265.000 47.219,265.151 47.480,265.335 47.714 C 265.519 47.948,265.855 48.539,266.083 49.028 C 266.311 49.517,266.497 49.822,266.498 49.707 C 266.501 49.390,265.837 48.044,265.569 47.821 C 265.439 47.714,265.333 47.527,265.333 47.406 C 265.333 47.285,265.258 47.140,265.167 47.083 C 265.075 47.027,265.000 47.050,265.000 47.134 M380.852 47.167 C 380.855 47.304,381.002 47.717,381.179 48.083 C 381.355 48.450,381.452 48.567,381.395 48.344 C 381.239 47.734,380.846 46.881,380.852 47.167 M163.565 48.163 C 163.754 48.704,163.937 49.118,163.972 49.084 C 164.061 48.995,163.499 47.353,163.348 47.259 C 163.278 47.216,163.376 47.623,163.565 48.163 M211.667 47.243 C 211.667 47.310,211.817 47.555,212.000 47.788 C 212.183 48.021,212.333 48.157,212.333 48.090 C 212.333 48.024,212.183 47.779,212.000 47.545 C 211.817 47.312,211.667 47.176,211.667 47.243 M366.014 47.770 C 366.236 48.056,366.450 48.260,366.491 48.223 C 366.532 48.186,366.351 47.953,366.089 47.703 L 365.612 47.250 366.014 47.770 M312.798 48.232 C 313.047 48.635,313.276 48.940,313.308 48.910 C 313.401 48.823,312.620 47.500,312.476 47.500 C 312.404 47.500,312.550 47.830,312.798 48.232 M117.056 48.275 C 116.859 49.230,116.925 52.851,117.148 53.333 L 117.341 53.750 117.263 53.333 C 117.044 52.164,116.989 50.272,117.141 49.086 C 117.322 47.666,117.275 47.214,117.056 48.275 M147.601 48.601 C 148.109 49.606,148.191 49.682,147.962 48.935 C 147.861 48.605,147.648 48.218,147.490 48.074 C 147.272 47.877,147.299 48.005,147.601 48.601 M288.503 48.468 C 288.703 48.852,288.893 49.167,288.925 49.167 C 289.066 49.167,288.615 48.165,288.390 47.978 C 288.224 47.840,288.262 48.007,288.503 48.468 M140.875 48.282 C 141.035 48.323,141.298 48.323,141.458 48.282 C 141.619 48.240,141.487 48.205,141.167 48.205 C 140.846 48.205,140.715 48.240,140.875 48.282 M181.208 48.286 C 181.460 48.324,181.873 48.324,182.125 48.286 C 182.377 48.248,182.171 48.217,181.667 48.217 C 181.162 48.217,180.956 48.248,181.208 48.286 M205.794 48.285 C 206.001 48.324,206.301 48.323,206.460 48.281 C 206.620 48.239,206.450 48.207,206.083 48.209 C 205.717 48.211,205.586 48.245,205.794 48.285 M306.294 48.285 C 306.501 48.324,306.801 48.323,306.960 48.281 C 307.120 48.239,306.950 48.207,306.583 48.209 C 306.217 48.211,306.086 48.245,306.294 48.285 M345.125 48.284 C 345.331 48.324,345.669 48.324,345.875 48.284 C 346.081 48.245,345.912 48.212,345.500 48.212 C 345.087 48.212,344.919 48.245,345.125 48.284 M359.794 48.285 C 360.001 48.324,360.301 48.323,360.460 48.281 C 360.620 48.239,360.450 48.207,360.083 48.209 C 359.717 48.211,359.586 48.245,359.794 48.285 M139.236 48.745 C 138.519 49.174,137.768 50.132,137.600 50.833 C 137.545 51.063,137.639 50.950,137.809 50.583 C 138.095 49.966,139.001 49.024,139.763 48.551 C 139.939 48.442,140.046 48.349,140.000 48.345 C 139.954 48.340,139.610 48.520,139.236 48.745 M142.181 48.395 C 142.352 48.549,143.333 49.000,143.333 48.925 C 143.333 48.829,142.409 48.333,142.230 48.333 C 142.165 48.333,142.142 48.361,142.181 48.395 M156.375 48.582 C 156.077 48.711,155.833 48.855,155.833 48.900 C 155.833 48.980,157.012 48.533,157.153 48.399 C 157.298 48.261,156.895 48.356,156.375 48.582 M158.667 48.428 C 158.667 48.463,158.910 48.617,159.208 48.771 C 159.666 49.008,159.717 49.012,159.536 48.794 C 159.342 48.560,158.667 48.276,158.667 48.428 M179.482 48.583 C 179.053 48.816,178.659 49.309,178.451 49.875 C 178.260 50.395,178.476 50.184,178.771 49.563 C 178.954 49.177,179.257 48.875,179.612 48.727 C 179.917 48.600,180.167 48.459,180.167 48.414 C 180.167 48.279,179.938 48.335,179.482 48.583 M183.417 48.598 C 184.161 49.010,184.500 49.350,184.500 49.683 C 184.500 49.846,184.564 50.020,184.643 50.068 C 184.721 50.117,184.751 49.978,184.709 49.760 C 184.616 49.273,183.894 48.575,183.333 48.429 C 182.968 48.335,182.978 48.355,183.417 48.598 M204.237 48.648 C 203.647 49.007,202.733 50.062,202.613 50.521 C 202.568 50.693,202.599 50.792,202.682 50.740 C 202.765 50.689,202.833 50.537,202.833 50.402 C 202.833 50.084,204.251 48.667,204.569 48.667 C 204.704 48.667,204.860 48.592,204.917 48.500 C 205.075 48.243,204.803 48.302,204.237 48.648 M207.407 48.582 C 207.585 48.720,207.822 48.833,207.934 48.833 C 208.046 48.833,208.331 49.064,208.569 49.346 C 208.806 49.628,209.000 49.792,209.000 49.711 C 209.000 49.454,208.105 48.696,207.583 48.510 C 207.121 48.345,207.108 48.350,207.407 48.582 M218.987 48.821 C 218.268 49.540,218.354 50.172,219.229 50.602 L 219.750 50.858 219.208 50.417 C 218.530 49.864,218.523 49.434,219.184 48.817 C 219.469 48.551,219.651 48.333,219.588 48.333 C 219.526 48.333,219.255 48.553,218.987 48.821 M223.104 48.732 C 223.452 49.017,223.690 49.415,223.820 49.933 C 224.051 50.850,224.212 50.858,224.006 49.941 C 223.853 49.267,223.463 48.739,222.919 48.471 C 222.734 48.380,222.818 48.498,223.104 48.732 M257.892 48.600 C 257.604 48.742,257.192 49.059,256.976 49.304 L 256.583 49.750 257.000 49.394 C 257.229 49.199,257.717 48.883,258.083 48.693 C 258.852 48.295,258.680 48.211,257.892 48.600 M261.070 48.546 C 261.246 48.658,261.679 49.004,262.032 49.314 C 262.385 49.624,262.628 49.760,262.572 49.615 C 262.453 49.304,261.559 48.605,261.083 48.451 C 260.760 48.346,260.760 48.349,261.070 48.546 M280.625 48.595 C 279.979 48.946,280.052 49.067,280.708 48.733 C 281.337 48.414,281.448 48.331,281.236 48.340 C 281.152 48.344,280.877 48.459,280.625 48.595 M283.500 48.409 C 283.500 48.450,283.764 48.610,284.087 48.763 C 284.761 49.083,285.233 49.678,285.471 50.506 C 285.603 50.965,285.640 51.002,285.652 50.686 C 285.673 50.129,285.075 49.230,284.361 48.744 C 283.786 48.354,283.500 48.242,283.500 48.409 M296.111 48.444 C 296.050 48.506,296.000 51.464,296.000 55.020 L 296.000 61.484 294.958 61.548 L 293.917 61.611 295.000 61.597 L 296.083 61.583 296.127 55.125 L 296.171 48.667 297.377 48.664 C 298.040 48.663,298.696 48.589,298.833 48.500 C 299.006 48.389,298.638 48.338,297.653 48.336 C 296.866 48.334,296.172 48.383,296.111 48.444 M305.000 48.520 C 304.505 48.717,303.705 49.449,303.472 49.917 C 303.381 50.100,303.557 49.974,303.862 49.638 C 304.167 49.301,304.660 48.905,304.958 48.758 C 305.256 48.612,305.500 48.456,305.500 48.412 C 305.500 48.318,305.520 48.313,305.000 48.520 M307.667 48.409 C 307.667 48.450,307.938 48.613,308.269 48.770 C 308.866 49.054,309.833 50.184,309.833 50.599 C 309.833 50.717,309.908 50.860,309.999 50.916 C 310.271 51.084,309.855 50.143,309.386 49.528 C 308.870 48.852,307.667 48.069,307.667 48.409 M321.708 48.582 C 321.410 48.711,321.167 48.855,321.167 48.900 C 321.167 48.980,322.345 48.533,322.486 48.399 C 322.632 48.261,322.228 48.356,321.708 48.582 M324.443 48.686 C 324.917 48.916,325.198 49.190,325.333 49.553 C 325.725 50.604,325.840 50.783,325.729 50.169 C 325.556 49.220,324.629 48.298,323.891 48.342 C 323.814 48.346,324.062 48.501,324.443 48.686 M343.750 48.645 C 343.475 48.816,343.063 49.172,342.835 49.436 C 342.435 49.900,342.441 49.898,343.002 49.394 C 343.322 49.107,343.808 48.754,344.083 48.609 C 344.358 48.465,344.508 48.344,344.417 48.341 C 344.325 48.337,344.025 48.474,343.750 48.645 M347.217 48.854 C 347.565 49.163,347.963 49.717,348.100 50.083 C 348.348 50.749,348.348 50.749,348.255 50.173 C 348.160 49.589,347.528 48.783,346.917 48.464 C 346.733 48.369,346.868 48.544,347.217 48.854 M358.047 48.819 C 357.418 49.274,356.667 50.149,356.667 50.426 C 356.667 50.494,356.891 50.241,357.164 49.863 C 357.438 49.485,357.963 49.022,358.331 48.834 C 358.699 48.647,359.000 48.457,359.000 48.413 C 359.000 48.226,358.673 48.365,358.047 48.819 M361.167 48.412 C 361.167 48.456,361.410 48.612,361.708 48.758 C 362.006 48.905,362.500 49.301,362.805 49.638 C 363.110 49.974,363.285 50.100,363.194 49.917 C 362.852 49.226,361.167 47.976,361.167 48.412 M373.106 48.679 C 372.322 49.295,372.769 50.836,373.731 50.833 C 373.833 50.832,373.673 50.683,373.375 50.502 C 372.563 50.007,372.614 49.219,373.495 48.615 C 373.722 48.460,373.826 48.333,373.726 48.333 C 373.627 48.333,373.347 48.489,373.106 48.679 M377.208 48.828 C 377.552 49.119,377.833 49.498,377.833 49.669 C 377.833 49.840,377.901 50.022,377.984 50.074 C 378.068 50.125,378.095 49.998,378.045 49.792 C 377.938 49.351,377.389 48.706,376.917 48.467 C 376.733 48.375,376.865 48.537,377.208 48.828 M166.708 48.615 C 166.869 48.657,167.131 48.657,167.292 48.615 C 167.452 48.573,167.321 48.539,167.000 48.539 C 166.679 48.539,166.548 48.573,166.708 48.615 M191.199 48.618 C 191.559 48.673,191.660 48.791,191.714 49.218 C 191.777 49.729,191.781 49.726,191.807 49.125 C 191.832 48.521,191.815 48.501,191.292 48.525 C 190.802 48.548,190.793 48.557,191.199 48.618 M212.753 49.116 C 213.015 49.742,213.167 49.983,213.167 49.772 C 213.167 49.561,212.686 48.500,212.590 48.500 C 212.538 48.500,212.611 48.777,212.753 49.116 M291.458 48.618 C 291.665 48.657,292.002 48.657,292.208 48.618 C 292.415 48.578,292.246 48.545,291.833 48.545 C 291.421 48.545,291.252 48.578,291.458 48.618 M299.662 49.176 C 299.561 49.364,299.508 49.606,299.543 49.713 C 299.579 49.820,299.692 49.666,299.795 49.371 C 300.007 48.763,299.937 48.662,299.662 49.176 M329.372 50.500 C 329.446 51.413,329.485 54.243,329.461 56.788 L 329.417 61.417 328.417 61.518 L 327.417 61.620 328.500 61.601 L 329.583 61.583 329.579 55.379 C 329.577 51.445,329.514 49.114,329.407 49.007 C 329.295 48.895,329.283 49.386,329.372 50.500 M366.956 49.571 C 367.109 49.984,367.264 50.292,367.300 50.255 C 367.400 50.156,366.998 49.019,366.827 48.913 C 366.745 48.862,366.803 49.158,366.956 49.571 M143.833 49.500 C 144.029 49.775,144.227 50.000,144.273 50.000 C 144.319 50.000,144.196 49.775,144.000 49.500 C 143.804 49.225,143.606 49.000,143.561 49.000 C 143.515 49.000,143.638 49.225,143.833 49.500 M174.833 49.043 C 174.833 49.066,174.760 49.342,174.670 49.657 C 174.580 49.971,174.570 50.158,174.648 50.072 C 174.818 49.886,175.043 49.000,174.920 49.000 C 174.872 49.000,174.833 49.019,174.833 49.043 M279.635 49.292 C 279.317 49.662,279.123 50.000,279.229 50.000 C 279.274 50.000,279.471 49.775,279.667 49.500 C 280.055 48.955,280.035 48.825,279.635 49.292 M320.631 49.292 C 320.327 49.640,319.950 50.341,320.028 50.413 C 320.059 50.442,320.287 50.135,320.535 49.732 C 321.016 48.954,321.045 48.816,320.631 49.292 M351.852 49.855 C 352.078 50.894,352.185 51.042,352.076 50.167 C 352.025 49.754,351.918 49.351,351.838 49.272 C 351.758 49.192,351.764 49.454,351.852 49.855 M313.644 50.162 C 313.784 50.618,313.925 50.964,313.957 50.932 C 314.055 50.834,313.635 49.333,313.508 49.333 C 313.443 49.333,313.504 49.706,313.644 50.162 M227.571 49.881 C 227.582 50.208,227.472 50.258,226.522 50.365 C 225.938 50.431,225.419 50.525,225.369 50.576 C 225.206 50.739,227.410 50.460,227.625 50.290 C 227.862 50.103,227.901 49.728,227.696 49.601 C 227.620 49.555,227.564 49.681,227.571 49.881 M164.045 50.500 C 164.045 50.913,164.078 51.081,164.118 50.875 C 164.157 50.669,164.157 50.331,164.118 50.125 C 164.078 49.919,164.045 50.087,164.045 50.500 M256.241 50.411 C 255.808 51.448,255.860 51.504,257.208 51.467 L 258.417 51.435 257.292 51.376 C 256.077 51.313,256.046 51.279,256.408 50.411 C 256.541 50.093,256.612 49.833,256.566 49.833 C 256.520 49.833,256.374 50.093,256.241 50.411 M289.343 50.605 C 289.426 50.960,289.544 51.980,289.605 52.873 L 289.716 54.495 284.150 54.539 L 278.583 54.583 278.621 55.216 C 278.642 55.564,278.741 55.976,278.842 56.132 C 279.009 56.392,279.018 56.392,278.939 56.137 C 278.892 55.983,278.803 55.589,278.741 55.262 L 278.630 54.667 284.231 54.667 L 289.833 54.667 289.828 53.708 C 289.821 52.421,289.538 50.304,289.347 50.113 C 289.252 50.019,289.251 50.209,289.343 50.605 M154.563 50.458 C 154.487 50.619,154.399 53.165,154.369 56.117 L 154.313 61.485 153.365 61.546 L 152.417 61.607 153.417 61.595 L 154.417 61.583 154.507 56.167 C 154.557 53.188,154.659 50.619,154.733 50.458 C 154.808 50.298,154.831 50.167,154.786 50.167 C 154.740 50.167,154.640 50.298,154.563 50.458 M380.619 50.334 C 380.088 50.402,379.611 50.500,379.559 50.552 C 379.404 50.708,381.404 50.470,381.575 50.312 C 381.662 50.232,381.700 50.177,381.658 50.189 C 381.617 50.201,381.149 50.266,380.619 50.334 M148.427 50.583 C 148.632 51.155,148.709 54.706,148.538 55.638 C 148.416 56.297,148.423 56.477,148.562 56.338 C 148.846 56.054,148.817 51.018,148.529 50.583 L 148.308 50.250 148.427 50.583 M342.026 50.864 C 341.762 51.704,341.603 53.475,341.819 53.167 C 341.916 53.029,341.996 52.616,341.997 52.249 C 341.999 51.882,342.074 51.324,342.164 51.010 C 342.376 50.269,342.254 50.139,342.026 50.864 M278.768 50.764 C 278.512 51.431,278.623 51.501,279.875 51.467 L 281.083 51.435 279.942 51.376 C 278.825 51.319,278.803 51.309,278.904 50.909 C 279.018 50.453,278.925 50.354,278.768 50.764 M302.883 51.105 C 302.656 51.922,302.722 55.707,302.970 56.083 C 303.177 56.398,303.184 56.393,303.082 56.000 C 302.875 55.197,302.805 52.243,302.975 51.505 C 303.167 50.676,303.092 50.353,302.883 51.105 M176.083 50.998 C 176.589 51.129,178.281 51.218,178.153 51.106 C 178.115 51.073,177.521 51.006,176.833 50.957 C 176.101 50.905,175.790 50.922,176.083 50.998 M213.439 51.167 C 213.595 51.699,213.592 55.449,213.436 56.000 C 213.326 56.385,213.333 56.392,213.524 56.083 C 213.812 55.619,213.816 51.538,213.528 51.083 C 213.333 50.774,213.326 50.780,213.439 51.167 M266.851 51.704 C 266.919 52.188,266.981 53.014,266.988 53.539 L 267.000 54.496 261.375 54.543 L 255.750 54.590 261.417 54.587 L 267.083 54.583 267.047 52.847 C 267.027 51.892,266.946 51.046,266.868 50.968 C 266.789 50.889,266.781 51.217,266.851 51.704 M350.465 50.987 C 350.034 51.048,349.627 51.151,349.562 51.216 C 349.391 51.387,351.052 51.152,351.242 50.978 C 351.329 50.899,351.366 50.843,351.325 50.856 C 351.284 50.868,350.897 50.927,350.465 50.987 M356.272 51.542 C 356.136 52.047,356.161 55.177,356.303 55.535 C 356.366 55.692,356.417 54.774,356.417 53.494 C 356.417 50.967,356.419 50.994,356.272 51.542 M178.685 52.013 C 178.283 52.093,177.911 52.200,177.858 52.253 C 177.719 52.392,179.204 52.148,179.500 51.983 C 179.797 51.817,179.658 51.822,178.685 52.013 M202.113 52.792 C 202.059 53.319,202.072 54.050,202.140 54.417 C 202.234 54.919,202.267 54.683,202.276 53.458 C 202.289 51.595,202.250 51.434,202.113 52.792 M367.583 53.500 C 367.583 54.398,367.638 55.048,367.706 54.942 C 367.773 54.836,367.828 54.188,367.828 53.500 C 367.828 52.813,367.773 52.163,367.706 52.058 C 367.638 51.952,367.583 52.601,367.583 53.500 M319.667 56.825 L 319.667 61.484 318.625 61.543 L 317.583 61.602 318.708 61.635 L 319.833 61.667 319.833 56.917 C 319.833 54.304,319.796 52.167,319.750 52.167 C 319.704 52.167,319.667 54.263,319.667 56.825 M137.209 53.417 C 137.211 53.783,137.245 53.914,137.285 53.706 C 137.324 53.499,137.323 53.199,137.281 53.040 C 137.239 52.880,137.207 53.050,137.209 53.417 M73.691 54.180 C 75.211 55.749,75.269 55.582,72.119 58.732 C 67.961 62.890,67.794 62.974,66.168 61.737 C 64.406 60.398,64.507 59.338,66.500 58.238 C 66.729 58.112,67.217 57.694,67.583 57.311 L 68.250 56.614 67.483 57.224 C 66.455 58.041,66.500 58.108,66.500 55.750 C 66.500 53.721,66.670 53.164,67.083 53.833 C 67.272 54.138,68.214 54.013,68.623 53.629 C 69.531 52.776,69.669 54.902,68.769 55.884 C 68.459 56.223,68.266 56.500,68.341 56.500 C 68.416 56.500,68.759 56.144,69.104 55.708 C 71.557 52.607,72.018 52.453,73.691 54.180 M216.504 53.422 C 216.672 53.624,217.667 54.055,217.667 53.925 C 217.667 53.894,217.364 53.719,216.995 53.536 C 216.620 53.350,216.403 53.300,216.504 53.422 M370.667 53.485 C 371.038 53.779,371.667 54.052,371.667 53.918 C 371.667 53.890,371.348 53.707,370.958 53.511 C 370.305 53.182,370.283 53.180,370.667 53.485 M381.426 53.825 C 382.095 54.805,382.338 56.782,381.946 58.041 C 381.810 58.477,381.758 58.797,381.829 58.753 C 382.555 58.304,382.392 54.757,381.609 53.941 C 381.412 53.735,381.329 53.683,381.426 53.825 M341.748 54.583 C 341.859 55.647,342.118 56.653,342.344 56.899 C 342.420 56.981,342.374 56.688,342.241 56.248 C 342.108 55.807,341.999 55.140,341.997 54.765 C 341.996 54.390,341.916 53.971,341.819 53.833 C 341.692 53.653,341.673 53.860,341.748 54.583 M227.485 54.065 C 227.591 54.193,227.786 54.624,227.919 55.023 C 228.066 55.462,228.127 55.552,228.075 55.250 C 227.948 54.518,227.651 53.833,227.459 53.833 C 227.360 53.833,227.371 53.927,227.485 54.065 M183.917 54.332 C 183.642 54.406,183.128 54.517,182.775 54.578 C 182.422 54.638,182.166 54.721,182.206 54.762 C 182.280 54.836,183.814 54.579,184.401 54.395 C 184.693 54.303,184.710 54.365,184.622 55.189 C 184.563 55.745,184.580 55.957,184.668 55.750 C 184.746 55.567,184.815 55.135,184.822 54.792 C 184.834 54.127,184.779 54.099,183.917 54.332 M218.500 54.270 C 218.500 54.310,218.669 54.404,218.875 54.480 C 219.451 54.692,220.261 54.872,220.153 54.764 C 220.024 54.635,218.500 54.180,218.500 54.270 M372.585 54.336 C 372.673 54.479,374.177 54.879,374.271 54.785 C 374.305 54.750,373.923 54.607,373.422 54.468 C 372.920 54.328,372.544 54.269,372.585 54.336 M117.596 54.833 C 117.801 55.661,119.102 57.311,119.563 57.328 C 119.644 57.331,119.399 57.052,119.019 56.708 C 118.639 56.365,118.140 55.708,117.911 55.250 C 117.681 54.792,117.539 54.604,117.596 54.833 M179.687 55.167 C 179.041 55.320,178.300 55.826,178.209 56.177 C 178.172 56.319,178.222 56.298,178.332 56.125 C 178.560 55.765,179.369 55.333,179.815 55.333 C 179.998 55.333,180.193 55.258,180.250 55.167 C 180.307 55.075,180.330 55.008,180.302 55.017 C 180.273 55.026,179.997 55.094,179.687 55.167 M221.191 55.073 C 221.330 55.221,223.047 55.676,223.134 55.588 C 223.171 55.552,222.874 55.438,222.475 55.334 C 222.076 55.231,221.600 55.104,221.417 55.053 C 221.233 55.001,221.132 55.010,221.191 55.073 M375.417 55.134 C 375.609 55.312,377.173 55.715,377.275 55.614 C 377.312 55.577,376.984 55.453,376.546 55.340 C 376.108 55.227,375.637 55.099,375.500 55.057 C 375.340 55.008,375.310 55.036,375.417 55.134 M255.944 55.583 C 256.052 56.109,256.455 57.000,256.585 57.000 C 256.654 57.000,256.574 56.785,256.021 55.500 C 255.850 55.102,255.847 55.106,255.944 55.583 M131.956 55.998 C 131.812 56.366,131.729 56.667,131.772 56.667 C 131.885 56.667,132.366 55.477,132.286 55.397 C 132.249 55.360,132.100 55.631,131.956 55.998 M286.102 55.637 C 286.056 55.712,286.239 55.741,286.509 55.701 C 286.779 55.661,287.000 55.600,287.000 55.564 C 287.000 55.437,286.185 55.503,286.102 55.637 M377.949 56.069 C 378.206 56.291,378.454 56.434,378.500 56.388 C 378.601 56.287,377.861 55.667,377.639 55.667 C 377.552 55.667,377.692 55.848,377.949 56.069 M137.500 55.896 C 137.500 56.063,138.159 57.333,138.245 57.333 C 138.285 57.333,138.182 57.032,138.018 56.665 C 137.719 55.998,137.500 55.672,137.500 55.896 M224.026 56.083 C 224.179 56.267,224.337 56.604,224.379 56.833 L 224.455 57.250 224.477 56.817 C 224.491 56.554,224.354 56.261,224.125 56.067 C 223.753 55.753,223.752 55.753,224.026 56.083 M214.516 56.283 C 214.491 56.868,214.843 58.320,215.039 58.441 C 215.146 58.507,215.170 58.473,215.098 58.358 C 215.032 58.251,214.878 57.658,214.755 57.040 C 214.632 56.422,214.524 56.082,214.516 56.283 M313.634 56.912 C 313.495 57.413,313.436 57.790,313.503 57.748 C 313.646 57.660,314.046 56.157,313.952 56.063 C 313.917 56.028,313.774 56.410,313.634 56.912 M368.500 56.175 C 368.500 56.524,369.034 58.688,369.103 58.620 C 369.141 58.581,369.057 58.047,368.915 57.434 C 368.772 56.821,368.700 56.247,368.755 56.159 C 368.809 56.072,368.774 56.000,368.677 56.000 C 368.579 56.000,368.500 56.079,368.500 56.175 M202.617 56.495 C 202.664 56.675,202.819 56.919,202.960 57.036 C 203.178 57.217,203.175 57.166,202.938 56.708 C 202.622 56.096,202.490 56.008,202.617 56.495 M133.845 56.681 C 133.851 56.902,133.925 57.233,134.008 57.417 C 134.113 57.649,134.128 57.548,134.057 57.083 C 133.939 56.309,133.828 56.098,133.845 56.681 M178.039 57.000 C 178.039 57.321,178.073 57.452,178.115 57.292 C 178.157 57.131,178.157 56.869,178.115 56.708 C 178.073 56.548,178.039 56.679,178.039 57.000 M218.443 56.917 C 218.546 57.432,219.262 58.333,219.568 58.333 C 219.663 58.333,219.567 58.212,219.355 58.063 C 219.143 57.914,218.828 57.483,218.656 57.105 C 218.398 56.537,218.361 56.504,218.443 56.917 M372.460 56.875 C 372.599 57.425,372.998 57.987,373.399 58.199 C 373.637 58.325,373.576 58.206,373.208 57.828 C 372.910 57.521,372.667 57.139,372.667 56.978 C 372.667 56.818,372.599 56.644,372.516 56.593 C 372.432 56.542,372.407 56.668,372.460 56.875 M351.869 57.292 C 351.700 57.853,351.706 57.884,351.924 57.593 C 352.136 57.311,352.266 56.667,352.111 56.667 C 352.081 56.667,351.972 56.948,351.869 57.292 M352.844 56.833 C 352.845 56.971,352.958 57.271,353.096 57.500 L 353.347 57.917 353.237 57.500 C 353.076 56.895,352.843 56.499,352.844 56.833 M356.834 56.769 C 356.833 57.116,357.529 57.841,358.182 58.175 C 358.540 58.357,358.833 58.469,358.833 58.423 C 358.833 58.378,358.530 58.186,358.160 57.997 C 357.790 57.808,357.340 57.412,357.161 57.118 C 356.981 56.824,356.834 56.667,356.834 56.769 M366.956 57.429 C 366.803 57.842,366.745 58.138,366.827 58.087 C 366.998 57.981,367.400 56.844,367.300 56.745 C 367.264 56.708,367.109 57.016,366.956 57.429 M131.219 57.514 C 131.021 57.875,130.929 58.127,131.014 58.075 C 131.199 57.960,131.716 56.993,131.635 56.913 C 131.604 56.882,131.417 57.152,131.219 57.514 M279.309 57.083 C 279.519 57.520,280.135 58.054,280.708 58.298 C 281.393 58.589,281.261 58.388,280.518 58.009 C 280.162 57.827,279.707 57.470,279.509 57.214 C 279.311 56.959,279.221 56.900,279.309 57.083 M303.474 57.083 C 303.686 57.520,304.303 58.055,304.875 58.298 C 305.513 58.569,305.450 58.400,304.792 58.072 C 304.494 57.924,304.039 57.566,303.781 57.276 C 303.522 56.986,303.385 56.899,303.474 57.083 M289.283 57.585 C 289.130 57.905,289.040 58.167,289.082 58.167 C 289.196 58.167,289.702 57.146,289.625 57.070 C 289.589 57.034,289.435 57.266,289.283 57.585 M188.333 57.608 C 188.333 58.388,188.675 60.066,188.871 60.250 C 188.996 60.366,189.011 60.316,188.922 60.083 C 188.852 59.900,188.739 59.203,188.669 58.535 C 188.540 57.290,188.333 56.720,188.333 57.608 M212.691 58.017 C 212.481 58.475,211.883 59.271,211.363 59.785 C 210.842 60.298,210.578 60.634,210.775 60.529 C 211.544 60.122,213.415 57.527,213.139 57.250 C 213.103 57.214,212.901 57.559,212.691 58.017 M257.058 57.610 C 257.487 58.085,258.301 58.519,258.074 58.151 C 258.022 58.068,257.895 58.000,257.791 58.000 C 257.687 58.000,257.372 57.794,257.092 57.542 L 256.583 57.083 257.058 57.610 M342.500 57.212 C 342.500 57.367,343.190 57.996,343.583 58.201 C 343.767 58.296,343.842 58.308,343.750 58.227 C 343.658 58.147,343.340 57.861,343.042 57.593 C 342.744 57.324,342.500 57.153,342.500 57.212 M203.167 57.418 C 203.167 57.547,204.344 58.378,204.420 58.302 C 204.463 58.259,204.198 58.028,203.832 57.789 C 203.466 57.549,203.167 57.382,203.167 57.418 M138.959 57.958 C 139.175 58.165,139.441 58.331,139.551 58.328 C 139.660 58.325,139.600 58.240,139.417 58.138 C 139.233 58.037,138.967 57.870,138.825 57.768 C 138.683 57.667,138.744 57.752,138.959 57.958 M147.667 58.249 C 147.468 58.661,146.842 59.421,146.277 59.937 C 145.712 60.454,145.408 60.795,145.600 60.696 C 146.155 60.409,147.774 58.577,147.970 58.013 C 148.229 57.272,148.086 57.383,147.667 58.249 M227.809 58.255 C 227.663 58.661,227.604 58.956,227.677 58.911 C 227.833 58.814,228.228 57.673,228.137 57.581 C 228.102 57.547,227.955 57.850,227.809 58.255 M178.314 57.955 C 178.522 58.354,179.134 58.755,179.292 58.597 C 179.345 58.544,179.298 58.500,179.186 58.500 C 179.075 58.500,178.790 58.294,178.552 58.042 C 178.195 57.662,178.154 57.647,178.314 57.955 M266.083 58.500 C 265.941 58.775,265.862 59.000,265.908 59.000 C 265.954 59.000,266.108 58.775,266.250 58.500 C 266.392 58.225,266.471 58.000,266.425 58.000 C 266.379 58.000,266.226 58.225,266.083 58.500 M312.872 58.595 C 312.665 58.910,312.554 59.166,312.623 59.166 C 312.758 59.164,313.378 58.156,313.295 58.073 C 313.268 58.046,313.078 58.281,312.872 58.595 M130.546 58.542 C 130.221 58.963,130.109 59.222,130.307 59.100 C 130.504 58.978,130.899 58.333,130.776 58.333 C 130.738 58.333,130.635 58.427,130.546 58.542 M288.653 58.708 C 288.548 58.915,288.114 59.452,287.689 59.903 C 287.172 60.451,287.082 60.598,287.417 60.347 C 287.990 59.917,288.725 59.053,288.882 58.625 C 289.036 58.208,288.880 58.264,288.653 58.708 M350.935 59.137 C 350.714 59.488,350.244 60.017,349.891 60.313 C 349.539 60.610,349.406 60.777,349.598 60.685 C 349.989 60.496,351.042 59.377,351.325 58.848 C 351.643 58.255,351.360 58.465,350.935 59.137 M365.451 59.685 C 364.920 60.236,364.625 60.612,364.795 60.521 C 365.259 60.272,366.751 58.616,366.458 58.675 C 366.435 58.680,365.982 59.134,365.451 59.685 M115.995 59.288 C 116.093 59.492,116.341 59.740,116.545 59.839 C 116.891 60.006,116.895 60.001,116.612 59.773 C 116.444 59.637,116.196 59.390,116.061 59.222 C 115.832 58.938,115.828 58.943,115.995 59.288 M380.837 59.867 C 380.427 60.343,380.201 60.665,380.335 60.582 C 380.708 60.352,381.817 59.000,381.633 59.000 C 381.606 59.000,381.248 59.390,380.837 59.867 M226.618 60.011 C 226.179 60.463,225.857 60.833,225.904 60.833 C 226.066 60.833,227.181 59.785,227.346 59.477 C 227.580 59.039,227.516 59.086,226.618 60.011 M264.750 60.118 C 263.905 60.900,264.041 60.933,264.941 60.165 C 265.378 59.792,265.773 59.322,265.635 59.340 C 265.607 59.344,265.208 59.694,264.750 60.118 M311.667 60.023 C 311.254 60.394,311.067 60.622,311.250 60.530 C 311.559 60.374,312.653 59.325,312.490 59.340 C 312.449 59.344,312.079 59.651,311.667 60.023 M135.870 60.094 C 136.119 60.354,136.362 60.527,136.410 60.479 C 136.457 60.432,136.253 60.220,135.956 60.008 L 135.417 59.623 135.870 60.094 M200.750 60.078 C 201.253 60.519,201.833 60.897,201.833 60.784 C 201.833 60.751,201.477 60.479,201.042 60.182 C 200.442 59.772,200.372 59.747,200.750 60.078 M369.833 59.815 C 369.833 59.973,370.648 60.750,370.713 60.653 C 370.739 60.615,370.552 60.382,370.297 60.136 C 370.042 59.889,369.833 59.745,369.833 59.815 M355.037 60.255 C 355.286 60.518,355.520 60.699,355.556 60.658 C 355.593 60.617,355.389 60.402,355.103 60.181 L 354.583 59.779 355.037 60.255 M117.000 60.119 C 117.000 60.264,117.666 60.724,117.750 60.637 C 117.778 60.607,117.621 60.449,117.400 60.284 C 117.180 60.119,117.000 60.045,117.000 60.119 M128.643 60.343 C 128.271 60.667,128.269 60.676,128.616 60.509 C 128.817 60.411,129.028 60.257,129.084 60.166 C 129.248 59.901,129.068 59.973,128.643 60.343 M184.583 60.434 L 184.083 60.868 184.556 60.587 C 184.816 60.433,185.043 60.331,185.061 60.362 C 185.079 60.392,185.221 60.698,185.377 61.042 L 185.661 61.667 187.581 61.667 C 189.389 61.667,189.500 61.647,189.500 61.333 C 189.500 61.150,189.427 61.000,189.339 61.000 C 189.250 61.000,189.220 61.112,189.273 61.250 C 189.355 61.463,189.097 61.500,187.539 61.500 L 185.708 61.500 185.396 60.750 L 185.083 59.999 184.583 60.434 M254.406 60.149 C 254.468 60.249,254.673 60.414,254.863 60.516 C 255.109 60.648,255.175 60.648,255.094 60.518 C 255.032 60.417,254.827 60.252,254.637 60.151 C 254.391 60.019,254.325 60.018,254.406 60.149 M277.000 60.064 C 277.000 60.099,277.206 60.261,277.458 60.423 L 277.917 60.718 277.599 60.359 C 277.318 60.041,277.000 59.885,277.000 60.064 M301.334 60.114 C 301.335 60.189,301.560 60.378,301.834 60.534 C 302.476 60.899,302.476 60.791,301.833 60.333 C 301.558 60.138,301.334 60.039,301.334 60.114 M175.925 60.847 C 176.040 61.032,177.007 61.549,177.087 61.468 C 177.118 61.437,176.848 61.250,176.486 61.052 C 176.125 60.854,175.873 60.762,175.925 60.847 M255.333 60.757 C 255.333 60.879,256.686 61.522,256.829 61.468 C 256.904 61.440,256.599 61.253,256.150 61.052 C 255.701 60.852,255.333 60.719,255.333 60.757 M310.000 61.083 C 309.587 61.304,309.309 61.488,309.382 61.492 C 309.559 61.503,310.833 60.848,310.833 60.747 C 310.833 60.636,310.840 60.633,310.000 61.083 M371.175 60.889 C 371.455 61.195,372.574 61.587,372.410 61.323 C 372.357 61.237,372.203 61.167,372.068 61.167 C 371.932 61.167,371.618 61.041,371.369 60.887 C 370.945 60.625,370.933 60.625,371.175 60.889 M379.167 61.096 C 378.754 61.324,378.604 61.460,378.833 61.398 C 379.245 61.287,380.000 60.855,380.000 60.731 C 380.000 60.637,379.986 60.643,379.167 61.096 M118.418 61.002 C 118.519 61.165,119.691 61.531,119.791 61.431 C 119.824 61.398,119.508 61.254,119.088 61.111 C 118.668 60.968,118.367 60.919,118.418 61.002 M127.083 61.158 C 126.717 61.331,126.475 61.479,126.547 61.487 C 126.743 61.507,127.833 61.031,127.833 60.925 C 127.833 60.801,127.841 60.799,127.083 61.158 M137.167 60.939 C 137.167 61.051,138.356 61.533,138.436 61.452 C 138.473 61.416,138.203 61.267,137.835 61.123 C 137.467 60.978,137.167 60.895,137.167 60.939 M144.417 61.167 C 144.050 61.336,143.809 61.481,143.880 61.488 C 144.078 61.506,145.167 61.030,145.167 60.925 C 145.167 60.812,145.218 60.796,144.417 61.167 M183.167 61.179 C 182.731 61.427,182.689 61.483,183.000 61.400 C 183.446 61.281,184.182 60.829,183.912 60.840 C 183.823 60.844,183.487 60.997,183.167 61.179 M202.000 60.923 C 202.000 61.069,203.191 61.531,203.296 61.426 C 203.347 61.375,203.348 61.333,203.298 61.333 C 203.248 61.333,202.936 61.220,202.604 61.081 C 202.272 60.942,202.000 60.871,202.000 60.923 M209.250 61.176 C 208.883 61.349,208.681 61.493,208.800 61.496 C 209.043 61.501,210.000 61.035,210.000 60.912 C 210.000 60.815,210.049 60.798,209.250 61.176 M217.167 60.939 C 217.167 61.051,218.356 61.533,218.436 61.452 C 218.473 61.416,218.203 61.267,217.835 61.123 C 217.467 60.978,217.167 60.895,217.167 60.939 M225.000 61.167 C 224.679 61.342,224.477 61.489,224.550 61.493 C 224.727 61.502,225.667 61.013,225.667 60.912 C 225.667 60.803,225.657 60.807,225.000 61.167 M263.167 61.179 C 262.723 61.432,262.683 61.486,263.000 61.405 C 263.229 61.346,263.526 61.193,263.661 61.065 C 263.988 60.754,263.864 60.783,263.167 61.179 M278.333 60.925 C 278.333 61.047,279.354 61.521,279.504 61.468 C 279.585 61.440,279.355 61.291,278.992 61.137 C 278.630 60.984,278.333 60.888,278.333 60.925 M285.833 61.189 C 285.400 61.427,285.357 61.482,285.667 61.403 C 285.896 61.345,286.193 61.193,286.327 61.065 C 286.635 60.773,286.558 60.792,285.833 61.189 M302.667 60.966 C 302.667 61.097,303.687 61.535,303.779 61.444 C 303.806 61.416,303.568 61.268,303.248 61.116 C 302.928 60.963,302.667 60.896,302.667 60.966 M341.500 60.925 C 341.500 61.047,342.520 61.521,342.670 61.468 C 342.751 61.440,342.521 61.291,342.159 61.137 C 341.797 60.984,341.500 60.888,341.500 60.925 M348.500 61.167 C 348.179 61.342,347.977 61.489,348.050 61.493 C 348.227 61.502,349.167 61.013,349.167 60.912 C 349.167 60.803,349.157 60.807,348.500 61.167 M356.000 60.910 C 356.000 61.029,356.948 61.500,357.186 61.500 C 357.298 61.500,357.354 61.465,357.311 61.422 C 357.173 61.284,356.000 60.826,356.000 60.910 M363.333 61.167 C 363.012 61.342,362.810 61.489,362.883 61.493 C 363.060 61.502,364.000 61.013,364.000 60.912 C 364.000 60.803,363.990 60.807,363.333 61.167 M163.000 61.500 L 161.917 61.609 163.042 61.638 C 163.700 61.655,164.167 61.597,164.167 61.500 C 164.167 61.408,164.148 61.346,164.125 61.362 C 164.102 61.378,163.596 61.440,163.000 61.500 M121.391 61.872 C 121.497 61.940,122.333 61.995,123.250 61.995 C 124.167 61.995,125.003 61.940,125.109 61.872 C 125.215 61.805,124.378 61.750,123.250 61.750 C 122.122 61.750,121.285 61.805,121.391 61.872 M139.558 61.872 C 139.663 61.940,140.350 61.995,141.083 61.995 C 141.817 61.995,142.503 61.940,142.608 61.872 C 142.713 61.805,142.026 61.750,141.082 61.750 C 140.138 61.750,139.452 61.805,139.558 61.872 M178.443 61.875 C 178.542 62.036,181.189 62.034,181.443 61.872 C 181.549 61.805,180.900 61.750,180.001 61.750 C 179.102 61.750,178.401 61.806,178.443 61.875 M204.558 61.872 C 204.797 62.025,207.147 62.017,207.535 61.863 C 207.692 61.801,207.043 61.750,206.093 61.750 C 205.143 61.750,204.452 61.805,204.558 61.872 M219.776 61.875 C 219.875 62.036,222.855 62.034,223.109 61.872 C 223.215 61.805,222.491 61.750,221.500 61.750 C 220.509 61.750,219.733 61.806,219.776 61.875 M258.056 61.871 C 258.311 62.034,261.291 62.037,261.390 61.875 C 261.432 61.806,260.655 61.749,259.663 61.749 C 258.672 61.748,257.949 61.803,258.056 61.871 M280.797 61.863 C 281.187 62.017,283.870 62.025,284.108 61.872 C 284.213 61.805,283.447 61.750,282.405 61.750 C 281.364 61.750,280.640 61.801,280.797 61.863 M304.964 61.863 C 305.358 62.019,307.962 62.029,308.057 61.875 C 308.099 61.806,307.356 61.750,306.406 61.750 C 305.456 61.750,304.807 61.801,304.964 61.863 M343.891 61.872 C 343.997 61.940,344.683 61.995,345.417 61.995 C 346.150 61.995,346.836 61.940,346.941 61.872 C 347.046 61.805,346.359 61.750,345.415 61.750 C 344.471 61.750,343.785 61.805,343.891 61.872 M358.557 61.872 C 358.811 62.034,361.458 62.036,361.557 61.875 C 361.600 61.806,360.899 61.750,359.999 61.750 C 359.100 61.750,358.451 61.805,358.557 61.872 M373.890 61.872 C 374.145 62.034,377.125 62.036,377.224 61.875 C 377.266 61.806,376.490 61.750,375.499 61.750 C 374.508 61.750,373.784 61.805,373.890 61.872 M53.140 64.475 C 52.142 65.367,52.450 69.167,53.521 69.167 C 53.592 69.167,53.476 68.979,53.263 68.749 C 52.570 68.000,52.516 65.530,53.174 64.656 C 53.864 63.742,57.388 64.019,57.885 65.027 C 58.084 65.430,58.159 65.492,58.158 65.250 C 58.152 63.957,54.373 63.373,53.140 64.475 M46.065 65.330 C 44.183 66.090,44.916 68.356,47.029 68.311 L 48.083 68.288 47.011 68.166 C 45.305 67.973,44.670 66.971,45.640 66.001 C 46.699 64.942,50.960 65.132,51.475 66.262 C 51.880 67.151,51.168 67.982,49.833 68.178 L 49.083 68.289 49.941 68.311 C 51.627 68.355,52.370 66.724,51.164 65.625 C 50.637 65.145,47.038 64.937,46.065 65.330 M59.917 65.324 C 57.877 66.159,58.779 68.369,61.136 68.310 L 62.083 68.286 60.930 68.169 C 58.927 67.966,58.259 66.328,59.897 65.636 C 60.723 65.287,64.145 65.338,64.710 65.708 C 66.038 66.579,65.475 67.912,63.667 68.178 L 62.917 68.289 63.725 68.311 C 65.942 68.372,66.327 65.743,64.162 65.325 C 63.222 65.144,60.359 65.143,59.917 65.324 M58.220 66.667 C 58.220 67.262,58.250 67.506,58.287 67.208 C 58.324 66.910,58.324 66.423,58.287 66.125 C 58.250 65.827,58.220 66.071,58.220 66.667 M58.019 68.049 C 58.009 68.214,57.816 68.533,57.591 68.758 C 57.315 69.033,57.260 69.167,57.420 69.167 C 57.746 69.167,58.212 68.419,58.116 68.050 C 58.042 67.762,58.038 67.762,58.019 68.049 M54.631 69.290 C 55.115 69.324,55.865 69.323,56.297 69.289 C 56.730 69.255,56.333 69.227,55.417 69.228 C 54.500 69.228,54.146 69.256,54.631 69.290 " stroke="none" fill="#8cacac" fill-rule="evenodd"></path><path id="path1" d="M95.111 28.611 C 94.938 28.784,94.980 29.333,95.167 29.333 C 95.258 29.333,95.333 29.146,95.333 28.917 C 95.333 28.480,95.295 28.427,95.111 28.611 M46.798 28.953 C 46.353 29.136,46.133 29.354,46.017 29.729 C 45.799 30.427,45.635 43.565,45.792 47.750 L 45.917 51.083 47.917 48.201 C 49.017 46.615,50.343 44.703,50.864 43.951 C 51.385 43.199,52.309 41.871,52.918 41.000 C 57.222 34.838,59.422 31.672,60.850 29.586 C 61.100 29.220,61.269 28.864,61.226 28.794 C 61.061 28.527,47.470 28.677,46.798 28.953 M39.450 38.170 C 39.218 38.353,38.028 39.906,36.806 41.622 C 35.583 43.338,34.415 44.968,34.209 45.246 C 33.108 46.731,33.174 45.873,33.170 58.700 L 33.167 70.316 33.980 71.293 C 34.427 71.830,36.788 74.310,39.227 76.803 C 41.666 79.297,43.695 81.505,43.737 81.710 C 43.778 81.915,43.856 84.253,43.909 86.906 C 43.962 89.558,44.048 91.770,44.100 91.822 C 44.222 91.944,65.799 92.040,66.285 91.921 L 66.653 91.830 66.701 86.790 L 66.750 81.750 67.941 79.333 C 69.153 76.873,70.086 74.929,72.621 69.583 C 73.404 67.933,74.109 66.512,74.189 66.425 C 74.802 65.753,73.095 62.984,71.818 62.578 C 71.209 62.385,70.243 63.151,69.288 64.583 C 69.044 64.950,68.204 65.886,67.422 66.663 C 65.775 68.300,65.798 68.219,66.667 69.270 C 67.445 70.212,67.501 70.677,66.894 71.155 C 66.460 71.496,66.331 71.500,55.484 71.500 C 40.172 71.500,41.320 72.198,41.173 62.805 C 41.075 56.492,41.110 56.716,40.264 56.995 C 38.851 57.462,38.787 57.234,38.861 51.984 C 38.921 47.744,38.882 47.936,40.013 46.402 C 41.960 43.759,41.470 36.582,39.450 38.170 M67.978 39.045 C 67.370 39.616,66.599 40.271,66.264 40.500 C 65.490 41.030,64.333 42.446,64.333 42.862 C 64.333 43.632,66.677 45.550,67.216 45.221 C 68.310 44.553,71.481 41.665,71.818 41.030 C 72.077 40.543,71.821 40.117,70.521 38.878 C 69.369 37.781,69.322 37.784,67.978 39.045 M120.167 39.594 C 119.572 39.724,119.059 39.905,119.028 39.998 C 118.998 40.091,118.896 40.167,118.803 40.167 C 118.323 40.167,117.114 40.904,116.411 41.625 C 116.210 41.831,115.960 42.000,115.856 42.000 C 115.752 42.000,115.667 42.078,115.667 42.174 C 115.667 42.270,115.498 42.518,115.292 42.725 C 115.085 42.932,114.767 43.397,114.583 43.757 C 114.400 44.117,114.162 44.506,114.054 44.622 C 113.946 44.738,113.763 45.264,113.647 45.792 C 113.532 46.319,113.375 46.793,113.298 46.846 C 112.828 47.168,112.873 54.135,113.346 54.306 C 113.430 54.336,113.500 54.472,113.500 54.608 C 113.500 54.983,114.023 56.500,114.152 56.500 C 114.215 56.500,114.364 56.771,114.484 57.102 C 115.201 59.084,118.105 61.133,120.941 61.657 C 125.884 62.571,129.686 60.747,131.691 56.500 C 132.146 55.538,132.589 54.620,132.676 54.461 C 132.952 53.954,132.857 53.875,131.708 53.661 C 131.090 53.546,130.544 53.392,130.497 53.320 C 130.449 53.248,130.024 53.137,129.552 53.074 L 128.693 52.961 128.578 53.730 C 128.514 54.154,128.406 54.500,128.337 54.500 C 128.268 54.500,128.081 54.842,127.922 55.259 C 127.375 56.691,125.466 58.167,124.161 58.167 C 123.981 58.167,123.833 58.242,123.833 58.333 C 123.833 58.525,122.390 58.564,122.306 58.375 C 122.275 58.306,121.731 58.117,121.096 57.955 C 115.735 56.586,115.229 45.910,120.401 43.299 C 123.461 41.755,126.943 42.890,127.899 45.744 C 128.337 47.050,128.616 47.330,129.197 47.047 C 129.410 46.943,130.128 46.732,130.793 46.578 C 132.278 46.233,132.258 46.266,131.780 44.951 C 131.082 43.027,129.022 40.333,128.249 40.333 C 128.125 40.333,127.908 40.217,127.766 40.075 C 127.083 39.393,122.451 39.100,120.167 39.594 M294.725 39.592 C 293.797 39.917,293.063 40.636,292.801 41.476 C 292.683 41.856,292.529 42.167,292.459 42.167 C 292.390 42.167,292.333 42.879,292.333 43.750 L 292.333 45.333 291.250 45.333 L 290.167 45.333 290.167 47.010 L 290.167 48.687 291.295 48.576 L 292.424 48.464 292.359 55.171 L 292.294 61.877 292.855 61.774 C 293.164 61.717,293.997 61.621,294.706 61.562 L 295.996 61.453 296.040 54.935 L 296.083 48.417 297.542 48.369 L 299.000 48.320 299.000 46.805 L 299.000 45.290 297.500 45.408 L 296.000 45.525 296.000 44.535 C 296.000 42.918,296.354 42.608,298.098 42.700 L 299.474 42.772 299.808 41.511 C 299.992 40.817,300.191 40.092,300.251 39.899 C 300.437 39.298,296.229 39.064,294.725 39.592 M237.000 41.333 L 237.000 43.167 240.458 43.167 L 243.917 43.167 243.862 52.521 L 243.806 61.875 244.362 61.772 C 244.667 61.715,245.535 61.620,246.292 61.561 L 247.667 61.453 247.667 52.310 L 247.667 43.167 251.073 43.167 C 252.947 43.167,254.513 43.110,254.553 43.042 C 254.592 42.973,254.678 42.148,254.743 41.208 L 254.860 39.500 245.930 39.500 L 237.000 39.500 237.000 41.333 M268.833 50.685 L 268.833 61.870 269.458 61.773 C 269.802 61.720,270.665 61.626,271.375 61.564 L 272.667 61.452 272.667 51.501 C 272.667 46.027,272.715 41.088,272.774 40.524 L 272.881 39.500 270.857 39.500 L 268.833 39.500 268.833 50.685 M304.380 39.899 C 304.184 40.124,303.888 40.519,303.721 40.776 C 303.553 41.034,303.304 41.366,303.167 41.514 C 302.453 42.283,301.167 44.188,301.167 44.476 C 301.167 44.695,301.666 44.710,303.800 44.559 L 305.319 44.451 305.911 43.559 C 306.622 42.489,306.656 42.483,307.175 43.344 C 307.949 44.629,307.860 44.593,310.051 44.500 L 312.020 44.417 310.611 42.604 C 309.837 41.607,309.060 40.519,308.885 40.187 L 308.568 39.583 306.652 39.537 C 304.798 39.492,304.724 39.503,304.380 39.899 M332.167 41.592 L 332.167 43.685 334.042 43.570 C 336.271 43.434,335.933 43.787,336.061 41.458 L 336.168 39.500 334.167 39.500 L 332.167 39.500 332.167 41.592 M170.268 39.923 C 170.127 40.064,169.747 40.290,169.423 40.425 C 169.098 40.560,168.833 40.738,168.833 40.819 C 168.833 40.900,168.496 41.106,168.084 41.275 L 167.335 41.583 167.334 43.458 L 167.333 45.333 166.417 45.333 L 165.500 45.333 165.500 47.016 L 165.500 48.699 166.471 48.587 L 167.441 48.474 167.365 53.904 C 167.310 57.880,167.340 59.333,167.478 59.333 C 167.582 59.333,167.667 59.486,167.667 59.673 C 167.667 61.090,170.688 62.102,173.250 61.542 L 173.917 61.397 173.872 60.407 C 173.773 58.198,173.415 57.360,172.917 58.167 C 172.762 58.417,171.404 58.369,171.184 58.105 C 171.050 57.943,171.008 56.497,171.039 53.146 L 171.083 48.417 172.292 48.368 C 173.493 48.319,173.500 48.316,173.500 47.850 C 173.500 47.593,173.549 46.912,173.609 46.338 L 173.718 45.294 172.332 45.417 L 170.946 45.539 171.057 42.603 C 171.176 39.457,171.075 39.115,170.268 39.923 M194.548 39.971 C 194.384 40.138,194.006 40.373,193.708 40.491 C 193.410 40.610,193.167 40.766,193.167 40.837 C 193.167 40.909,192.960 41.041,192.708 41.131 C 191.637 41.513,191.500 41.797,191.500 43.645 L 191.500 45.333 190.577 45.333 L 189.655 45.333 189.702 46.958 L 189.750 48.583 190.810 48.534 L 191.870 48.484 191.758 49.200 C 191.547 50.548,191.459 57.667,191.653 57.667 C 191.760 57.667,191.833 58.031,191.833 58.558 C 191.833 60.742,193.078 61.688,195.896 61.647 C 198.453 61.610,198.332 61.749,198.081 59.125 C 197.976 58.023,197.604 57.594,197.250 58.167 C 197.095 58.417,195.737 58.369,195.518 58.105 C 195.383 57.943,195.341 56.497,195.372 53.146 L 195.417 48.417 196.602 48.368 L 197.787 48.320 197.894 47.302 C 197.952 46.742,198.000 46.065,198.000 45.798 L 198.000 45.311 196.708 45.364 L 195.417 45.417 195.459 42.542 C 195.506 39.430,195.392 39.110,194.548 39.971 M140.167 45.000 C 140.167 45.092,139.913 45.167,139.602 45.167 C 138.880 45.167,137.290 45.667,137.117 45.950 C 137.043 46.069,136.893 46.167,136.782 46.167 C 136.501 46.167,135.331 47.205,135.332 47.452 C 135.333 47.564,135.197 47.728,135.030 47.817 C 134.863 47.907,134.626 48.284,134.503 48.656 C 134.381 49.029,134.226 49.333,134.160 49.333 C 133.929 49.333,133.639 50.929,133.554 52.667 C 133.436 55.048,134.113 58.118,134.938 58.939 C 135.132 59.133,135.320 59.358,135.354 59.439 C 136.140 61.289,141.501 62.403,144.193 61.275 C 151.004 58.422,149.762 45.167,142.683 45.167 C 142.399 45.167,142.167 45.092,142.167 45.000 C 142.167 44.907,141.722 44.833,141.167 44.833 C 140.611 44.833,140.167 44.907,140.167 45.000 M157.167 45.000 C 157.167 45.092,157.019 45.167,156.839 45.167 C 156.332 45.167,154.974 45.669,154.680 45.964 C 154.439 46.207,154.412 46.191,154.364 45.782 L 154.311 45.333 152.489 45.333 L 150.667 45.333 150.667 53.602 L 150.667 61.871 151.208 61.771 C 151.506 61.716,152.327 61.622,153.031 61.562 L 154.313 61.454 154.365 56.102 C 154.415 50.908,154.428 50.729,154.795 50.042 C 155.723 48.305,158.564 47.731,159.763 49.039 L 160.333 49.662 160.333 55.769 L 160.333 61.876 161.042 61.750 C 161.431 61.681,162.275 61.577,162.917 61.520 L 164.083 61.417 164.080 55.500 L 164.077 49.583 163.589 48.197 C 163.147 46.941,162.845 46.466,162.121 45.889 C 161.755 45.597,160.388 45.167,159.828 45.167 C 159.556 45.167,159.333 45.092,159.333 45.000 C 159.333 44.906,158.861 44.833,158.250 44.833 C 157.639 44.833,157.167 44.906,157.167 45.000 M180.500 45.000 C 180.500 45.092,180.304 45.167,180.066 45.167 C 179.421 45.167,177.333 45.699,177.333 45.863 C 177.333 45.941,177.071 46.131,176.750 46.284 C 176.429 46.437,176.167 46.631,176.167 46.715 C 176.167 46.800,175.993 47.075,175.780 47.328 C 175.567 47.581,175.263 48.229,175.104 48.769 C 174.944 49.308,174.740 49.886,174.649 50.052 C 174.252 50.780,174.553 50.936,176.395 50.958 L 178.120 50.979 178.326 50.293 C 178.755 48.860,179.306 48.428,180.939 48.244 C 183.191 47.989,184.716 48.775,184.697 50.180 C 184.684 51.062,184.670 51.070,182.615 51.333 C 181.681 51.453,180.842 51.605,180.750 51.671 C 180.658 51.737,180.358 51.832,180.083 51.881 C 176.108 52.593,174.333 53.839,174.333 55.920 C 174.333 56.147,174.258 56.333,174.167 56.333 C 174.075 56.333,174.000 56.671,174.000 57.083 C 174.000 57.496,174.075 57.833,174.167 57.833 C 174.258 57.833,174.333 58.046,174.333 58.305 C 174.333 58.580,174.596 59.152,174.964 59.680 C 176.752 62.241,181.510 62.586,184.604 60.379 L 185.124 60.008 185.409 60.754 L 185.694 61.500 187.525 61.500 C 189.533 61.500,189.580 61.463,188.913 60.401 C 188.476 59.707,188.333 58.038,188.333 53.631 C 188.333 49.554,188.303 49.066,187.990 48.137 C 187.617 47.030,186.930 46.000,186.564 46.000 C 186.437 46.000,186.333 45.928,186.333 45.840 C 186.333 45.630,184.762 45.167,184.053 45.167 C 183.749 45.167,183.500 45.092,183.500 45.000 C 183.500 44.901,182.889 44.833,182.000 44.833 C 181.111 44.833,180.500 44.901,180.500 45.000 M205.167 44.976 C 205.167 45.055,204.725 45.165,204.184 45.222 C 203.176 45.327,202.418 45.586,202.030 45.956 C 201.909 46.072,201.736 46.167,201.647 46.167 C 201.238 46.167,199.958 47.715,199.488 48.777 C 199.211 49.404,198.894 50.097,198.784 50.318 C 198.229 51.427,198.606 57.297,199.275 57.966 C 199.399 58.089,199.500 58.299,199.500 58.432 C 199.500 58.565,199.911 59.079,200.414 59.574 C 203.700 62.808,209.587 62.484,212.140 58.929 C 214.685 55.385,213.669 47.857,210.419 46.171 C 210.149 46.031,209.833 45.829,209.717 45.723 C 209.485 45.510,208.058 45.167,207.408 45.167 C 207.184 45.167,207.000 45.092,207.000 45.000 C 207.000 44.908,206.588 44.833,206.083 44.833 C 205.579 44.833,205.167 44.898,205.167 44.976 M219.833 45.000 C 219.833 45.092,219.659 45.167,219.447 45.167 C 218.824 45.167,217.262 45.681,217.117 45.934 C 217.043 46.062,216.895 46.167,216.788 46.167 C 216.430 46.167,215.481 47.406,215.288 48.125 C 215.183 48.515,215.038 48.833,214.965 48.833 C 214.781 48.833,214.799 50.626,214.985 50.741 C 215.069 50.793,215.189 51.137,215.251 51.507 C 215.507 53.024,217.238 54.012,221.500 55.077 C 223.681 55.622,224.500 56.082,224.500 56.763 C 224.500 57.194,223.749 58.167,223.416 58.167 C 223.294 58.167,223.169 58.239,223.139 58.328 C 223.044 58.601,221.289 58.716,220.309 58.512 C 219.146 58.271,218.476 57.641,218.451 56.766 C 218.442 56.436,218.374 56.167,218.300 56.167 C 218.227 56.167,218.167 56.006,218.167 55.811 C 218.167 55.397,216.753 55.420,215.359 55.857 L 214.635 56.083 214.732 56.801 C 215.246 60.590,218.765 62.579,223.359 61.675 C 229.374 60.492,229.885 53.193,224.042 51.924 C 223.744 51.860,223.500 51.750,223.500 51.681 C 223.500 51.612,222.619 51.384,221.542 51.175 C 218.711 50.624,218.048 50.131,218.732 49.088 C 219.916 47.280,223.808 48.129,224.063 50.250 C 224.107 50.617,224.148 50.945,224.155 50.979 C 224.161 51.013,224.260 50.968,224.375 50.879 C 224.587 50.714,226.177 50.370,227.083 50.292 C 228.013 50.213,227.061 46.972,225.890 46.226 C 225.629 46.060,225.379 45.875,225.333 45.814 C 225.180 45.610,223.447 45.167,222.803 45.167 C 222.453 45.167,222.167 45.092,222.167 45.000 C 222.167 44.905,221.667 44.833,221.000 44.833 C 220.333 44.833,219.833 44.905,219.833 45.000 M258.833 45.000 C 258.833 45.092,258.564 45.167,258.234 45.167 C 257.904 45.167,257.222 45.287,256.717 45.433 C 255.838 45.689,255.618 45.821,254.788 46.596 C 254.584 46.786,254.285 46.990,254.125 47.049 C 253.965 47.108,253.833 47.267,253.833 47.402 C 253.833 47.537,253.696 47.746,253.528 47.866 C 253.360 47.985,253.087 48.440,252.922 48.875 C 252.757 49.310,252.568 49.667,252.502 49.667 C 251.889 49.667,251.883 56.854,252.496 57.333 C 252.554 57.379,252.703 57.679,252.826 58.000 C 254.365 62.014,261.916 63.121,265.107 59.801 C 265.865 59.013,267.237 56.591,267.112 56.263 C 267.049 56.100,264.569 55.667,263.699 55.667 C 263.615 55.667,263.329 55.984,263.064 56.373 C 262.624 57.019,261.943 57.747,261.263 58.300 C 259.586 59.662,256.237 57.777,255.895 55.278 L 255.788 54.500 261.394 54.500 L 267.000 54.500 266.997 53.625 C 266.985 50.636,265.951 47.948,264.250 46.489 C 263.883 46.175,263.546 45.878,263.500 45.830 C 263.267 45.587,262.359 45.313,261.483 45.222 C 260.942 45.165,260.500 45.055,260.500 44.976 C 260.500 44.898,260.125 44.833,259.667 44.833 C 259.208 44.833,258.833 44.908,258.833 45.000 M281.500 45.000 C 281.500 45.092,281.256 45.168,280.958 45.169 C 280.177 45.171,278.720 45.590,278.409 45.900 C 278.263 46.047,278.090 46.167,278.025 46.167 C 277.961 46.167,277.661 46.392,277.360 46.667 C 277.059 46.942,276.751 47.167,276.676 47.167 C 276.601 47.167,276.495 47.298,276.441 47.458 C 276.333 47.781,275.976 48.370,275.810 48.500 C 275.634 48.638,275.167 49.853,275.167 50.173 C 275.167 50.338,275.073 50.503,274.958 50.542 C 274.680 50.634,274.657 56.285,274.934 56.464 C 275.036 56.530,275.168 56.854,275.229 57.184 C 275.574 59.064,278.150 61.189,280.660 61.665 C 284.511 62.396,287.408 61.076,289.171 57.788 C 290.012 56.221,289.977 56.075,288.722 55.929 C 288.187 55.867,287.406 55.775,286.985 55.724 C 286.255 55.635,286.206 55.656,285.888 56.190 C 285.429 56.964,284.322 58.167,284.070 58.167 C 283.955 58.167,283.830 58.260,283.792 58.375 C 283.695 58.666,281.576 58.646,280.833 58.347 C 279.680 57.884,278.694 56.482,278.619 55.203 L 278.583 54.583 284.150 54.539 L 289.717 54.495 289.614 52.938 C 289.426 50.073,288.729 48.232,287.307 46.842 C 286.020 45.585,285.611 45.375,284.149 45.222 C 283.609 45.165,283.167 45.055,283.167 44.976 C 283.167 44.898,282.792 44.833,282.333 44.833 C 281.875 44.833,281.500 44.908,281.500 45.000 M322.667 45.000 C 322.667 45.092,322.460 45.168,322.208 45.169 C 321.586 45.173,320.617 45.526,320.265 45.877 C 319.863 46.280,319.667 46.238,319.667 45.750 L 319.667 45.333 317.833 45.333 L 316.000 45.333 316.000 53.602 L 316.000 61.871 316.542 61.771 C 316.840 61.716,317.665 61.621,318.375 61.561 L 319.667 61.452 319.670 57.018 C 319.675 49.626,320.081 48.544,322.915 48.364 C 325.637 48.190,325.701 48.361,325.675 55.790 L 325.654 61.880 326.452 61.756 C 326.891 61.688,327.737 61.584,328.333 61.524 L 329.417 61.417 329.464 56.833 C 329.538 49.600,329.100 46.845,327.763 46.129 C 327.576 46.029,327.329 45.853,327.214 45.738 C 327.004 45.528,325.599 45.167,324.992 45.167 C 324.813 45.167,324.667 45.092,324.667 45.000 C 324.667 44.907,324.222 44.833,323.667 44.833 C 323.111 44.833,322.667 44.907,322.667 45.000 M344.333 45.000 C 344.333 45.092,344.145 45.167,343.914 45.167 C 343.335 45.167,341.500 45.691,341.500 45.856 C 341.500 45.931,341.265 46.113,340.977 46.262 C 340.463 46.528,339.667 47.276,339.667 47.493 C 339.667 47.554,339.532 47.749,339.367 47.927 C 339.017 48.305,338.500 49.534,338.500 49.989 C 338.500 50.163,338.406 50.337,338.292 50.375 C 338.008 50.470,337.990 56.621,338.274 56.798 C 338.378 56.863,338.580 57.309,338.722 57.790 C 339.634 60.868,344.905 62.803,348.232 61.280 C 350.359 60.306,352.333 57.655,352.333 55.772 C 352.333 55.324,352.622 55.465,352.717 55.958 C 353.458 59.829,356.573 62.066,360.817 61.775 C 365.460 61.457,368.157 57.571,367.535 52.096 C 367.238 49.483,365.292 46.000,364.128 46.000 C 363.986 46.000,363.831 45.902,363.786 45.783 C 363.695 45.547,362.275 45.167,361.487 45.167 C 361.219 45.167,361.000 45.092,361.000 45.000 C 361.000 44.907,360.556 44.833,360.000 44.833 C 359.444 44.833,359.000 44.907,359.000 45.000 C 359.000 45.092,358.794 45.168,358.542 45.169 C 357.973 45.171,356.314 45.603,356.181 45.784 C 356.079 45.923,355.571 46.262,355.200 46.439 C 354.832 46.614,354.024 47.490,353.713 48.050 C 353.550 48.343,353.359 48.626,353.288 48.679 C 353.088 48.827,352.333 53.290,352.334 54.325 L 352.334 55.250 351.417 55.193 C 350.913 55.162,350.500 55.068,350.500 54.985 C 350.500 54.901,350.092 54.833,349.594 54.833 L 348.687 54.833 348.575 55.583 C 348.513 55.996,348.396 56.333,348.314 56.333 C 348.233 56.333,348.167 56.434,348.167 56.558 C 348.167 57.003,347.661 57.782,347.251 57.969 C 347.021 58.074,346.833 58.232,346.833 58.320 C 346.833 58.883,344.354 58.686,343.364 58.044 C 341.197 56.639,341.077 50.991,343.175 49.096 C 345.053 47.399,347.836 48.131,348.357 50.458 C 348.556 51.345,348.570 51.361,349.071 51.273 C 349.353 51.223,350.108 51.098,350.748 50.995 C 352.163 50.769,352.070 50.865,351.852 49.848 C 351.283 47.193,349.216 45.167,347.078 45.167 C 346.760 45.167,346.500 45.092,346.500 45.000 C 346.500 44.906,346.028 44.833,345.417 44.833 C 344.806 44.833,344.333 44.906,344.333 45.000 M374.000 45.000 C 374.000 45.092,373.808 45.167,373.574 45.167 C 372.936 45.167,371.618 45.520,371.333 45.768 C 370.186 46.765,369.684 47.340,369.491 47.875 C 369.368 48.219,369.206 48.500,369.133 48.500 C 368.602 48.500,369.247 52.093,369.910 52.826 C 370.358 53.321,372.188 54.124,374.083 54.659 C 375.092 54.943,376.329 55.293,376.833 55.437 C 378.186 55.822,378.500 56.069,378.500 56.747 C 378.500 57.323,377.841 58.167,377.391 58.167 C 377.283 58.167,377.163 58.260,377.125 58.375 C 377.076 58.522,376.619 58.580,375.569 58.571 C 373.334 58.552,372.585 58.020,372.382 56.304 L 372.282 55.455 371.089 55.556 C 369.208 55.715,368.627 56.025,368.763 56.797 C 369.223 59.401,369.879 60.199,372.583 61.439 C 374.874 62.491,379.324 61.596,380.937 59.760 C 382.716 57.735,382.418 53.671,380.430 52.842 C 380.148 52.725,379.642 52.492,379.306 52.325 C 378.971 52.157,378.408 51.968,378.056 51.903 C 377.704 51.838,377.375 51.722,377.325 51.644 C 377.274 51.567,376.353 51.325,375.278 51.106 C 372.679 50.578,371.853 49.664,373.092 48.690 C 374.666 47.451,378.034 48.405,378.033 50.089 C 378.033 50.869,378.126 51.072,378.390 50.865 C 378.597 50.702,379.410 50.527,380.750 50.356 L 381.583 50.250 381.565 49.635 C 381.532 48.513,380.402 46.167,379.894 46.167 C 379.778 46.167,379.622 46.058,379.548 45.925 C 379.386 45.636,377.685 45.167,376.798 45.167 C 376.451 45.167,376.167 45.092,376.167 45.000 C 376.167 44.906,375.694 44.833,375.083 44.833 C 374.472 44.833,374.000 44.906,374.000 45.000 M305.917 45.134 C 305.095 45.197,303.172 45.753,302.167 46.219 C 301.193 46.671,301.051 46.861,299.717 49.500 L 298.917 51.083 298.924 53.655 C 298.929 55.508,298.988 56.246,299.132 56.294 C 299.243 56.331,299.333 56.486,299.333 56.639 C 299.324 59.424,303.475 62.077,307.371 61.777 C 311.637 61.448,314.070 58.446,314.079 53.500 C 314.090 47.935,310.981 44.748,305.917 45.134 M332.167 53.596 L 332.167 61.870 332.792 61.773 C 333.135 61.720,333.998 61.626,334.708 61.564 L 336.000 61.452 336.032 53.976 C 336.050 49.864,336.069 46.256,336.074 45.958 L 336.083 45.417 334.125 45.370 L 332.167 45.323 332.167 53.596 M69.549 46.608 C 68.831 47.545,67.347 48.996,66.163 49.918 C 64.695 51.060,64.571 51.467,65.426 52.343 C 67.416 54.382,67.999 54.257,71.187 51.110 C 73.585 48.742,73.584 48.745,71.865 47.076 C 70.562 45.810,70.213 45.740,69.549 46.608 M143.110 48.759 C 143.981 49.267,144.421 49.975,144.652 51.239 C 145.005 53.168,144.793 56.182,144.266 56.711 C 144.153 56.824,143.928 57.121,143.765 57.370 C 143.602 57.619,143.213 57.916,142.901 58.028 C 142.589 58.141,142.333 58.290,142.333 58.359 C 142.333 58.983,139.595 58.553,138.730 57.793 C 136.539 55.869,136.786 50.253,139.125 48.808 C 140.324 48.067,141.892 48.047,143.110 48.759 M207.797 48.619 C 209.844 49.638,210.636 55.364,208.962 57.038 C 208.800 57.200,208.667 57.405,208.667 57.492 C 208.667 57.580,208.385 57.782,208.042 57.942 C 207.698 58.102,207.363 58.312,207.297 58.408 C 207.095 58.705,204.989 58.605,204.290 58.265 C 201.432 56.874,201.385 50.161,204.223 48.636 C 205.206 48.108,206.755 48.100,207.797 48.619 M260.736 48.350 C 261.983 48.696,262.683 49.447,262.916 50.687 L 263.027 51.280 259.566 51.387 C 255.648 51.509,255.880 51.559,256.151 50.652 C 256.689 48.856,258.780 47.807,260.736 48.350 M284.277 48.683 C 285.031 49.149,285.667 50.113,285.667 50.789 L 285.667 51.333 283.943 51.333 C 282.994 51.333,281.419 51.382,280.443 51.442 C 278.394 51.567,278.380 51.555,279.079 50.176 C 280.001 48.356,282.559 47.622,284.277 48.683 M308.328 48.580 C 308.903 48.878,309.632 49.726,309.978 50.500 C 310.286 51.189,310.371 55.761,310.080 55.964 C 309.986 56.030,309.815 56.299,309.699 56.563 C 309.444 57.142,308.661 58.000,308.387 58.000 C 308.279 58.000,308.077 58.113,307.939 58.252 C 307.283 58.908,304.945 58.624,304.025 57.777 C 302.139 56.041,302.201 50.945,304.131 49.113 C 305.085 48.207,307.109 47.950,308.328 48.580 M361.823 48.578 C 362.409 48.881,363.303 49.893,363.413 50.378 C 363.759 51.905,363.826 52.381,363.829 53.367 C 363.833 54.465,363.559 56.170,363.352 56.333 C 363.294 56.379,363.101 56.694,362.923 57.033 C 362.738 57.387,362.347 57.778,362.008 57.950 C 361.683 58.115,361.363 58.325,361.298 58.417 C 361.071 58.734,358.971 58.586,358.224 58.201 C 355.524 56.806,355.337 50.873,357.931 48.895 C 358.911 48.147,360.707 48.001,361.823 48.578 M70.516 54.125 C 69.945 54.744,68.940 55.838,68.281 56.556 C 67.622 57.275,66.821 58.033,66.500 58.241 C 64.437 59.580,64.362 60.364,66.168 61.737 C 67.794 62.974,67.961 62.890,72.119 58.732 C 75.269 55.582,75.211 55.749,73.691 54.180 C 72.165 52.605,71.921 52.601,70.516 54.125 M184.833 54.720 C 184.833 55.387,184.364 56.833,184.147 56.833 C 184.062 56.833,183.907 57.021,183.802 57.251 C 183.630 57.630,182.845 58.167,182.462 58.167 C 182.378 58.167,182.197 58.279,182.060 58.417 C 181.603 58.873,179.081 58.763,178.583 58.264 C 177.173 56.854,178.098 55.473,180.787 54.973 C 181.683 54.806,182.867 54.566,183.417 54.440 C 184.861 54.108,184.833 54.103,184.833 54.720 M53.638 64.279 C 52.619 64.549,52.350 67.763,53.263 68.749 C 53.693 69.212,56.620 69.382,57.358 68.987 C 58.519 68.366,58.407 64.773,57.214 64.319 C 56.814 64.168,54.172 64.138,53.638 64.279 M46.385 65.507 C 44.360 66.132,44.941 67.918,47.253 68.177 C 50.293 68.518,52.125 67.687,51.475 66.262 C 51.133 65.511,47.918 65.034,46.385 65.507 M60.583 65.434 C 59.273 65.766,58.728 66.499,59.185 67.315 C 59.971 68.717,64.744 68.590,65.340 67.150 C 65.863 65.887,62.948 64.836,60.583 65.434 M95.091 77.375 C 95.021 77.535,95.021 77.798,95.091 77.958 C 95.212 78.236,95.222 78.236,95.288 77.958 C 95.406 77.466,95.251 77.008,95.091 77.375 " stroke="none" fill="#fbfbfb" fill-rule="evenodd"></path><path id="path2" d="M24.917 14.167 C 24.858 14.261,24.998 14.333,25.240 14.333 C 25.475 14.333,25.667 14.258,25.667 14.167 C 25.667 14.075,25.521 14.000,25.343 14.000 C 25.165 14.000,24.973 14.075,24.917 14.167 M84.000 14.167 C 84.000 14.258,84.150 14.333,84.333 14.333 C 84.517 14.333,84.667 14.258,84.667 14.167 C 84.667 14.075,84.517 14.000,84.333 14.000 C 84.150 14.000,84.000 14.075,84.000 14.167 M17.243 19.011 C 17.183 19.109,17.173 19.229,17.222 19.278 C 17.342 19.397,17.667 19.187,17.667 18.990 C 17.667 18.777,17.379 18.791,17.243 19.011 M93.365 21.344 C 93.405 21.464,93.536 21.595,93.656 21.635 C 93.781 21.677,93.844 21.615,93.802 21.490 C 93.762 21.369,93.631 21.238,93.510 21.198 C 93.385 21.156,93.323 21.219,93.365 21.344 M15.434 22.264 C 15.283 22.658,15.312 22.866,15.503 22.748 C 15.596 22.691,15.629 22.574,15.576 22.488 C 15.523 22.403,15.560 22.333,15.657 22.333 C 15.754 22.333,15.833 22.258,15.833 22.167 C 15.833 21.903,15.546 21.973,15.434 22.264 M44.250 24.267 C 41.229 25.049,41.096 25.421,41.135 33.000 C 41.173 40.487,41.175 42.825,41.146 50.333 C 41.134 53.679,41.203 59.154,41.300 62.500 C 41.577 72.037,40.542 71.339,54.381 71.320 C 68.223 71.301,68.203 71.305,66.418 69.168 C 65.648 68.247,65.590 68.395,67.535 66.304 L 69.236 64.475 69.304 63.408 C 69.401 61.873,69.317 61.741,68.566 62.251 C 67.792 62.776,67.259 62.777,66.572 62.252 C 66.040 61.847,66.015 61.844,65.389 62.113 C 64.424 62.527,46.247 62.532,45.286 62.117 C 44.108 61.610,44.166 62.513,44.176 44.797 C 44.186 27.218,44.140 27.972,45.250 27.417 C 46.093 26.995,63.776 26.894,65.138 27.303 C 66.378 27.676,66.408 27.836,66.468 34.386 C 66.497 37.485,66.585 39.998,66.665 39.969 C 66.744 39.940,67.377 39.395,68.071 38.758 L 69.333 37.599 69.333 32.822 C 69.333 26.358,69.155 25.655,67.275 24.687 L 66.502 24.289 55.543 24.235 C 49.515 24.205,44.433 24.220,44.250 24.267 M95.089 27.716 C 95.017 27.880,95.006 28.061,95.063 28.118 C 95.232 28.288,95.368 28.050,95.291 27.721 C 95.221 27.430,95.212 27.430,95.089 27.716 M14.414 53.333 C 14.414 66.487,14.434 71.869,14.458 65.292 C 14.482 58.715,14.482 47.952,14.458 41.375 C 14.434 34.798,14.414 40.179,14.414 53.333 M95.000 53.240 C 95.000 68.887,95.057 77.015,95.167 77.083 C 95.277 77.152,95.333 69.196,95.333 53.343 C 95.333 37.559,95.277 29.500,95.167 29.500 C 95.056 29.500,95.000 37.524,95.000 53.240 M300.290 40.125 C 300.195 40.309,299.882 41.485,299.722 42.250 L 299.583 42.917 298.225 42.859 C 296.484 42.784,296.167 43.025,296.167 44.417 L 296.167 45.333 297.323 45.333 C 297.995 45.333,298.529 45.255,298.595 45.147 C 298.673 45.021,299.080 44.998,299.858 45.074 C 301.028 45.190,301.667 45.101,301.667 44.822 C 301.667 44.737,301.517 44.667,301.333 44.667 C 301.150 44.667,301.000 44.624,301.000 44.572 C 301.000 44.376,301.390 43.739,301.681 43.459 C 302.319 42.847,302.552 40.909,302.042 40.465 C 301.719 40.184,300.391 39.926,300.290 40.125 M254.833 41.667 L 254.833 43.167 251.335 43.167 L 247.836 43.167 247.793 52.375 L 247.750 61.583 246.917 61.624 C 244.224 61.753,244.075 61.844,244.520 63.077 C 244.794 63.834,245.314 64.000,247.418 64.000 C 249.052 64.000,249.314 63.960,249.635 63.660 L 250.000 63.320 250.000 54.410 L 250.000 45.500 253.065 45.500 C 257.085 45.500,256.917 45.617,256.917 42.839 C 256.917 40.526,256.726 40.178,255.458 40.170 L 254.833 40.167 254.833 41.667 M272.793 50.875 L 272.750 61.583 272.000 61.624 C 269.388 61.765,269.335 61.798,269.596 63.106 C 269.772 63.984,273.318 64.455,274.401 63.745 L 274.791 63.490 274.802 52.122 C 274.815 39.320,274.903 40.167,273.559 40.167 L 272.836 40.167 272.793 50.875 M309.013 40.380 C 309.157 40.492,309.416 40.808,309.588 41.083 C 309.760 41.358,309.997 41.696,310.115 41.833 C 311.290 43.207,312.167 44.341,312.167 44.488 C 312.167 44.903,307.715 44.712,307.601 44.292 C 307.545 44.085,307.290 43.666,307.033 43.360 L 306.567 42.803 305.949 43.735 L 305.330 44.667 303.769 44.667 C 302.076 44.667,301.948 44.727,301.759 45.609 C 301.604 46.336,301.763 46.363,302.952 45.809 C 306.822 44.007,313.326 46.032,313.333 49.042 C 313.333 49.202,313.402 49.333,313.487 49.333 C 314.062 49.333,314.373 54.251,313.930 56.341 C 313.381 58.928,311.166 61.230,308.870 61.597 C 308.479 61.659,308.119 61.776,308.070 61.855 C 307.773 62.336,303.128 61.622,302.667 61.025 C 302.621 60.965,302.349 60.787,302.062 60.628 C 301.432 60.278,300.500 59.429,300.500 59.204 C 300.500 59.114,300.387 58.947,300.250 58.833 C 299.667 58.349,300.524 60.243,301.411 61.399 C 304.250 65.097,311.097 65.157,314.374 61.512 C 315.872 59.846,315.917 59.657,315.917 55.000 L 315.917 50.917 315.429 49.953 C 315.161 49.424,314.504 48.549,313.971 48.010 C 312.882 46.912,312.843 46.833,313.383 46.833 C 314.696 46.833,314.480 45.562,312.833 43.604 C 312.100 42.731,311.500 41.956,311.500 41.881 C 311.500 41.405,309.957 40.167,309.369 40.172 C 308.849 40.176,308.792 40.210,309.013 40.380 M336.131 41.875 L 336.083 43.583 334.449 43.631 L 332.816 43.679 332.866 44.464 L 332.917 45.250 334.542 45.298 C 335.835 45.336,336.167 45.395,336.167 45.589 C 336.167 45.897,337.667 45.933,337.967 45.633 C 338.103 45.497,338.167 44.687,338.167 43.076 C 338.167 40.366,338.078 40.167,336.868 40.167 L 336.178 40.167 336.131 41.875 M171.458 40.615 C 171.198 40.683,171.167 40.942,171.167 43.012 L 171.167 45.333 172.250 45.333 L 173.333 45.333 173.333 43.179 C 173.333 40.526,173.087 40.189,171.458 40.615 M195.792 40.680 C 195.537 40.828,195.500 41.132,195.500 43.092 L 195.500 45.333 196.500 45.333 L 197.500 45.333 197.500 43.089 C 197.500 40.518,197.082 39.928,195.792 40.680 M129.000 40.801 C 129.000 40.871,129.222 41.059,129.492 41.219 C 130.324 41.710,131.548 43.702,132.160 45.561 C 132.412 46.327,132.329 46.413,131.181 46.584 C 130.761 46.647,130.323 46.775,130.209 46.869 C 130.095 46.963,129.607 47.050,129.126 47.062 L 128.250 47.083 128.640 47.917 C 128.855 48.375,129.088 48.862,129.157 49.000 C 129.410 49.498,130.903 49.399,133.290 48.724 C 135.024 48.234,134.492 45.451,132.190 42.964 C 131.056 41.739,129.000 40.345,129.000 40.801 M121.424 43.021 C 119.470 43.479,117.790 45.375,117.364 47.605 C 116.424 52.527,117.735 56.774,120.495 57.748 L 121.189 57.993 120.697 57.372 C 118.979 55.200,118.675 51.009,120.010 47.894 C 121.243 45.016,125.364 44.114,127.625 46.226 C 128.265 46.824,128.261 46.835,127.822 45.667 C 126.962 43.381,124.404 42.323,121.424 43.021 M237.550 44.107 C 237.687 45.433,237.629 45.409,240.925 45.472 L 243.833 45.528 243.833 44.347 L 243.833 43.167 240.643 43.167 L 237.453 43.167 237.550 44.107 M68.129 44.735 C 67.612 45.156,67.034 45.500,66.845 45.500 C 66.517 45.500,66.500 45.591,66.500 47.333 C 66.500 49.584,66.545 49.601,68.145 47.916 L 69.333 46.666 69.322 45.624 C 69.302 43.899,69.225 43.842,68.129 44.735 M162.595 46.235 C 163.874 47.131,164.165 48.927,164.166 55.958 L 164.167 61.667 163.208 61.669 C 161.206 61.672,161.000 61.766,161.000 62.669 C 161.000 63.820,161.345 64.000,163.544 64.000 C 166.570 64.000,166.367 64.545,166.300 56.625 L 166.250 50.667 166.767 50.764 C 167.276 50.860,167.286 50.848,167.392 50.074 C 167.585 48.665,167.586 48.667,166.750 48.667 C 166.045 48.667,166.000 48.694,166.000 49.119 C 166.000 49.487,165.904 49.380,165.481 48.541 C 164.945 47.476,164.421 46.972,163.215 46.357 C 162.415 45.950,162.098 45.887,162.595 46.235 M173.632 47.292 L 173.583 48.583 172.375 48.632 L 171.167 48.681 171.167 53.307 C 171.167 58.703,171.171 58.715,172.780 58.133 L 173.333 57.933 173.333 54.383 L 173.333 50.833 173.984 50.833 C 174.532 50.833,174.623 50.785,174.556 50.530 C 174.465 50.183,175.182 48.023,175.572 47.465 C 176.151 46.639,175.663 46.000,174.452 46.000 L 173.681 46.000 173.632 47.292 M187.130 46.428 C 187.288 46.645,187.472 46.825,187.539 46.828 C 188.060 46.850,188.238 48.144,188.354 52.750 C 188.493 58.267,188.820 61.000,189.341 61.000 C 189.429 61.000,189.500 61.150,189.500 61.333 C 189.500 61.647,189.389 61.667,187.581 61.667 L 185.661 61.667 185.377 61.042 C 185.221 60.698,185.081 60.395,185.067 60.367 C 185.052 60.340,184.657 60.544,184.190 60.820 C 182.683 61.708,179.070 62.366,178.449 61.865 C 178.339 61.777,177.935 61.652,177.550 61.589 C 176.355 61.392,174.500 59.838,174.500 59.033 C 174.500 58.923,174.345 58.833,174.155 58.833 C 173.826 58.833,173.816 58.893,173.925 60.149 L 174.040 61.465 173.504 61.582 C 171.893 61.936,169.256 61.630,168.449 60.996 L 168.021 60.659 168.171 61.183 C 168.731 63.136,170.187 64.000,172.915 64.000 C 175.022 64.000,175.890 63.775,176.079 63.182 C 176.205 62.785,176.699 62.721,176.985 63.065 C 178.026 64.320,182.680 64.546,185.133 63.461 C 185.747 63.189,185.903 63.174,186.138 63.361 C 186.837 63.919,187.208 64.000,189.050 64.000 C 191.741 64.000,192.179 63.521,191.208 61.639 L 190.750 60.750 190.667 55.647 L 190.583 50.545 190.959 50.716 C 191.453 50.942,191.481 50.898,191.607 49.695 L 191.714 48.667 191.024 48.667 C 190.422 48.667,190.332 48.715,190.323 49.042 L 190.312 49.417 190.161 49.042 C 190.079 48.835,189.933 48.667,189.839 48.667 C 189.744 48.667,189.667 48.522,189.667 48.346 C 189.667 47.820,188.844 47.002,187.811 46.502 C 186.848 46.036,186.844 46.035,187.130 46.428 M198.000 47.232 C 198.000 48.655,197.987 48.667,196.486 48.667 L 195.500 48.667 195.500 53.300 C 195.500 58.635,195.563 58.829,197.075 58.140 L 197.500 57.946 197.500 54.390 L 197.500 50.833 198.083 50.833 C 198.501 50.833,198.667 50.759,198.667 50.573 C 198.667 50.430,198.850 49.924,199.074 49.448 C 199.297 48.972,199.558 48.377,199.653 48.125 C 199.748 47.873,199.902 47.667,199.996 47.667 C 200.259 47.667,200.198 46.786,199.907 46.370 C 199.699 46.073,199.486 46.000,198.824 46.000 L 198.000 46.000 198.000 47.232 M299.000 47.232 C 299.000 48.672,299.006 48.667,297.322 48.667 L 296.171 48.667 296.127 55.125 L 296.083 61.583 295.333 61.624 C 292.723 61.765,292.542 61.880,293.007 63.101 C 293.358 64.025,296.641 64.461,297.756 63.731 L 298.167 63.462 298.167 57.147 C 298.167 50.872,298.169 50.833,298.512 50.833 C 298.957 50.833,299.287 50.497,299.432 49.895 C 299.561 49.359,300.189 48.187,300.777 47.386 C 301.423 46.507,301.109 46.000,299.921 46.000 L 299.000 46.000 299.000 47.232 M336.127 53.792 L 336.083 61.583 335.333 61.624 C 332.722 61.765,332.668 61.798,332.930 63.106 C 333.106 63.990,336.652 64.454,337.746 63.737 L 338.148 63.474 338.130 55.029 C 338.110 45.527,338.175 46.000,336.892 46.000 L 336.170 46.000 336.127 53.792 M350.413 46.791 C 350.829 47.225,351.295 47.919,351.447 48.332 C 351.599 48.745,351.783 49.162,351.855 49.258 C 352.249 49.786,352.216 50.833,351.805 50.833 C 351.582 50.833,351.329 50.904,351.242 50.990 C 350.852 51.376,348.500 51.404,348.500 51.023 C 348.500 50.827,348.434 50.667,348.354 50.667 C 348.274 50.667,348.161 50.430,348.103 50.140 C 347.599 47.618,343.319 47.823,342.331 50.417 C 341.041 53.801,342.265 58.082,344.667 58.584 L 345.250 58.706 344.902 58.311 C 343.462 56.679,343.829 52.163,345.493 51.042 C 346.336 50.473,348.328 50.634,348.332 51.271 C 348.333 51.375,348.436 51.545,348.563 51.649 C 348.689 51.754,348.885 52.173,348.999 52.580 C 349.272 53.554,349.850 53.779,351.306 53.479 L 352.302 53.273 352.498 51.928 C 352.606 51.189,352.800 50.200,352.929 49.730 C 353.254 48.548,352.762 47.653,351.352 46.859 C 349.420 45.771,349.437 45.773,350.413 46.791 M145.905 46.364 C 147.759 47.439,148.905 50.417,148.798 53.878 C 148.753 55.330,148.655 56.245,148.530 56.370 C 148.422 56.478,148.333 56.695,148.333 56.853 C 148.333 60.787,140.712 63.476,137.018 60.846 C 136.751 60.656,136.464 60.500,136.382 60.500 C 136.172 60.500,135.167 59.440,135.167 59.218 C 135.167 59.118,135.049 58.991,134.906 58.936 C 134.559 58.803,134.713 59.328,135.309 60.311 C 135.552 60.711,135.833 61.183,135.935 61.359 C 136.206 61.828,136.866 62.500,137.055 62.500 C 137.145 62.500,137.462 62.686,137.760 62.913 C 139.874 64.526,144.964 64.568,147.177 62.992 C 147.429 62.813,147.702 62.667,147.784 62.667 C 147.979 62.667,149.140 61.474,149.431 60.974 C 150.589 58.989,150.579 59.035,150.634 55.121 L 150.685 51.492 150.027 50.121 C 149.238 48.476,148.033 47.192,146.708 46.586 C 145.762 46.153,145.341 46.036,145.905 46.364 M211.504 47.036 C 211.960 47.515,212.333 47.968,212.333 48.043 C 212.333 48.119,212.481 48.383,212.662 48.632 C 214.609 51.309,213.892 57.735,211.392 60.017 C 208.039 63.076,201.174 62.244,199.566 58.583 C 199.373 58.144,199.346 58.129,199.340 58.458 C 199.334 58.781,199.244 58.833,198.697 58.833 L 198.060 58.833 198.184 59.708 C 198.428 61.419,198.417 61.456,197.625 61.592 C 195.706 61.920,193.210 61.588,192.729 60.941 C 192.473 60.596,192.467 60.606,192.556 61.214 C 192.812 62.974,194.530 64.000,197.222 64.000 C 200.332 64.000,200.692 63.726,200.421 61.563 C 200.339 60.907,200.359 60.663,200.486 60.741 C 200.585 60.803,200.667 60.946,200.667 61.059 C 200.667 61.173,200.960 61.552,201.318 61.901 C 204.065 64.585,209.473 64.990,212.447 62.736 C 212.739 62.514,213.045 62.333,213.126 62.333 C 213.303 62.333,214.000 61.617,214.000 61.436 C 214.000 61.368,214.185 61.068,214.412 60.772 C 215.209 59.726,215.346 59.170,214.996 58.406 C 214.421 57.152,214.373 56.000,214.895 56.000 C 215.136 56.000,215.333 55.925,215.333 55.833 C 215.333 55.742,215.446 55.667,215.583 55.667 C 215.780 55.667,215.835 55.428,215.840 54.542 L 215.847 53.417 216.174 54.074 C 216.637 55.002,217.155 55.500,217.655 55.500 C 218.088 55.500,218.300 55.803,218.586 56.833 C 218.850 57.786,219.434 58.297,220.571 58.570 C 220.987 58.670,221.028 58.652,220.855 58.443 C 220.612 58.150,220.313 57.167,220.417 57.000 C 220.457 56.935,221.244 57.099,222.166 57.365 C 224.036 57.905,224.333 57.837,224.333 56.871 C 224.333 56.198,223.890 55.860,222.514 55.487 C 221.865 55.311,220.790 55.019,220.125 54.839 C 219.461 54.659,218.767 54.441,218.583 54.355 C 218.400 54.268,217.923 54.075,217.523 53.926 C 216.346 53.486,215.546 52.709,215.324 51.791 C 215.219 51.355,215.066 50.957,214.983 50.906 C 214.901 50.855,214.832 50.574,214.830 50.282 C 214.828 49.989,214.679 49.563,214.500 49.333 C 214.321 49.104,214.172 48.839,214.170 48.743 C 214.166 48.551,212.806 47.167,212.621 47.167 C 212.557 47.167,212.139 46.942,211.692 46.667 C 210.574 45.978,210.546 46.032,211.504 47.036 M226.208 46.392 C 226.369 46.518,226.500 46.706,226.500 46.810 C 226.500 46.915,226.574 47.000,226.664 47.000 C 226.859 47.000,227.251 47.887,227.408 48.684 C 227.469 48.995,227.601 49.416,227.701 49.619 C 228.008 50.241,227.651 50.448,226.037 50.582 C 225.238 50.648,224.535 50.779,224.477 50.873 C 224.283 51.182,224.036 50.846,223.832 49.995 C 223.335 47.921,219.219 47.489,218.724 49.459 C 218.529 50.236,220.495 51.405,221.055 50.845 C 221.672 50.228,224.058 50.750,224.403 51.577 C 224.568 51.971,224.759 52.167,224.980 52.167 C 225.161 52.167,225.412 52.269,225.538 52.395 C 225.663 52.520,225.938 52.677,226.149 52.744 C 228.483 53.485,228.915 57.883,226.866 60.047 C 225.544 61.444,221.252 62.544,219.763 61.868 C 219.572 61.782,219.042 61.622,218.583 61.514 C 217.614 61.285,216.641 60.701,215.875 59.889 C 215.237 59.213,215.229 59.229,215.676 60.272 C 216.865 63.045,218.840 64.085,222.917 64.081 L 225.583 64.079 226.864 63.454 C 230.222 61.815,231.409 58.169,229.603 55.043 C 229.145 54.249,228.819 53.990,227.376 53.270 C 226.808 52.986,226.916 52.889,227.909 52.786 C 229.422 52.630,229.741 52.396,229.800 51.398 C 229.897 49.722,228.684 47.462,227.293 46.733 C 226.513 46.324,225.856 46.117,226.208 46.392 M264.321 46.487 C 264.497 46.664,264.797 46.891,264.987 46.993 C 265.178 47.095,265.333 47.256,265.333 47.350 C 265.333 47.445,265.513 47.761,265.733 48.053 C 266.144 48.599,266.667 49.953,266.667 50.472 C 266.667 50.634,266.744 50.844,266.839 50.939 C 266.933 51.033,267.027 51.892,267.047 52.847 L 267.083 54.583 261.458 54.627 C 258.365 54.651,255.834 54.726,255.836 54.794 C 255.839 54.979,256.325 56.337,256.529 56.735 C 256.857 57.373,257.408 57.858,258.266 58.264 C 259.392 58.798,259.448 58.777,258.845 58.045 C 258.013 57.035,258.068 57.000,260.484 57.000 L 262.635 57.000 263.075 56.250 C 263.560 55.422,263.535 55.432,264.539 55.666 C 264.930 55.757,265.681 55.874,266.208 55.928 C 267.353 56.043,267.378 56.135,266.677 57.617 C 265.655 59.779,264.222 61.128,262.528 61.524 C 262.100 61.624,261.620 61.772,261.461 61.853 C 259.690 62.752,253.500 60.574,253.500 59.052 C 253.500 58.932,253.424 58.833,253.330 58.833 C 252.707 58.833,254.106 61.122,255.475 62.342 C 258.622 65.148,265.074 64.702,267.646 61.501 C 268.801 60.064,268.855 59.766,268.798 55.117 C 268.743 50.584,268.794 50.878,267.755 49.024 C 267.342 48.288,266.094 47.163,265.136 46.664 C 264.017 46.082,263.887 46.053,264.321 46.487 M287.042 46.505 C 287.147 46.674,287.368 46.847,287.531 46.890 C 287.695 46.933,287.897 47.147,287.981 47.366 C 288.064 47.585,288.242 47.855,288.378 47.968 C 288.513 48.080,288.750 48.527,288.905 48.961 C 289.060 49.395,289.259 49.884,289.349 50.048 C 289.555 50.427,289.821 52.461,289.828 53.708 L 289.833 54.667 284.250 54.667 C 279.692 54.667,278.667 54.708,278.667 54.890 C 278.667 56.017,279.565 57.517,280.556 58.043 C 281.879 58.746,282.049 58.731,281.488 57.957 C 280.791 56.995,280.783 57.000,283.160 57.000 L 285.319 57.000 285.768 56.235 C 286.183 55.526,286.255 55.477,286.733 55.576 C 287.296 55.691,289.289 55.978,289.625 55.991 C 290.623 56.032,288.635 59.518,286.958 60.669 C 283.679 62.919,277.221 61.878,276.089 58.917 C 276.015 58.724,275.930 58.666,275.887 58.780 C 275.717 59.233,276.702 60.880,277.798 61.977 C 280.976 65.155,287.630 64.905,290.296 61.508 C 291.461 60.023,292.137 58.171,291.842 57.275 C 291.712 56.883,291.708 56.579,291.828 56.263 C 292.070 55.628,292.032 53.780,291.750 52.500 C 291.416 50.982,291.429 50.833,291.894 50.833 C 292.236 50.833,292.302 50.732,292.394 50.060 C 292.591 48.626,292.617 48.667,291.500 48.667 C 290.950 48.667,290.500 48.726,290.500 48.798 C 290.500 48.870,289.992 48.439,289.371 47.840 C 288.246 46.755,286.614 45.819,287.042 46.505 M328.411 46.758 C 328.632 47.083,328.898 47.627,329.001 47.967 C 329.105 48.306,329.278 48.762,329.385 48.981 C 329.524 49.264,329.581 51.152,329.582 55.481 L 329.583 61.583 328.833 61.624 C 328.421 61.646,327.690 61.708,327.208 61.761 L 326.333 61.857 326.333 62.520 C 326.333 63.723,326.847 64.001,329.066 63.996 C 330.578 63.993,330.987 63.939,331.301 63.697 L 331.685 63.402 331.627 56.743 C 331.573 50.579,331.545 50.027,331.243 49.320 C 330.608 47.833,329.756 46.896,328.598 46.412 L 328.010 46.166 328.411 46.758 M365.454 47.025 C 369.736 51.410,367.816 60.615,362.417 61.590 C 362.050 61.656,361.661 61.781,361.551 61.868 C 361.020 62.288,357.150 61.700,356.199 61.054 C 355.952 60.887,355.666 60.712,355.563 60.667 C 354.570 60.225,353.017 57.901,352.745 56.449 C 352.593 55.640,352.391 55.668,352.247 56.519 C 351.707 59.712,348.512 62.159,345.153 61.952 C 342.663 61.799,340.259 60.615,339.497 59.167 C 339.079 58.374,339.143 59.155,339.565 59.995 C 342.211 65.264,350.090 65.737,353.303 60.819 L 353.960 59.813 354.133 60.307 C 355.455 64.101,362.752 65.454,366.629 62.625 C 367.681 61.857,368.923 60.327,369.080 59.604 C 369.192 59.091,369.201 59.101,369.738 60.250 C 371.630 64.301,377.929 65.601,382.108 62.803 C 384.491 61.209,385.298 56.866,383.561 54.991 C 383.344 54.757,383.167 54.480,383.167 54.375 C 383.167 54.270,382.989 54.087,382.771 53.967 C 382.553 53.848,382.134 53.613,381.839 53.446 C 381.136 53.048,381.022 53.197,381.550 53.825 C 383.546 56.197,381.671 60.746,378.379 61.519 C 377.942 61.622,377.453 61.772,377.294 61.853 C 376.909 62.049,374.408 62.041,373.762 61.842 C 373.480 61.756,372.823 61.563,372.302 61.414 C 371.780 61.264,371.265 61.035,371.156 60.904 C 371.048 60.774,370.863 60.667,370.744 60.667 C 370.462 60.667,369.665 59.710,369.461 59.127 C 369.373 58.874,369.239 58.667,369.164 58.667 C 369.043 58.667,368.500 56.630,368.500 56.175 C 368.500 56.079,368.688 56.000,368.917 56.000 C 369.146 56.000,369.333 55.925,369.333 55.833 C 369.333 55.742,369.446 55.667,369.583 55.667 C 369.782 55.667,369.835 55.418,369.840 54.458 L 369.847 53.250 370.176 53.910 C 370.663 54.886,371.315 55.500,371.865 55.500 C 372.317 55.500,372.424 55.672,372.349 56.279 C 372.335 56.387,372.401 56.522,372.496 56.581 C 372.590 56.639,372.669 56.813,372.672 56.968 C 372.683 57.535,373.561 58.307,374.412 58.499 C 375.004 58.633,375.143 58.543,374.830 58.230 C 374.623 58.023,374.333 57.056,374.444 56.944 C 374.489 56.900,374.763 56.936,375.054 57.025 C 375.345 57.113,376.108 57.325,376.750 57.495 L 377.917 57.805 378.205 57.444 C 378.827 56.663,378.269 55.953,376.728 55.566 C 376.190 55.432,375.600 55.254,375.417 55.173 C 375.233 55.091,374.671 54.935,374.167 54.825 C 373.662 54.716,373.025 54.532,372.750 54.416 C 372.475 54.301,371.988 54.109,371.667 53.990 C 370.389 53.518,369.333 52.426,369.333 51.578 C 369.333 51.443,369.258 51.333,369.167 51.333 C 369.075 51.333,369.000 51.028,369.000 50.655 C 369.000 49.870,368.443 48.968,367.307 47.911 C 366.187 46.870,365.953 46.699,365.244 46.406 L 364.583 46.133 365.454 47.025 M380.442 46.598 C 380.587 46.819,380.762 47.000,380.832 47.000 C 381.054 47.000,381.694 49.260,381.638 49.849 L 381.583 50.417 380.167 50.583 C 378.387 50.793,378.093 50.944,378.362 51.513 C 378.946 52.751,382.243 53.294,383.500 52.360 C 384.829 51.372,383.027 47.350,380.862 46.473 L 380.179 46.196 380.442 46.598 M259.167 48.341 C 257.631 48.606,256.167 49.983,256.167 51.161 C 256.167 51.506,259.199 51.366,259.667 51.000 C 260.238 50.553,261.550 50.557,262.391 51.008 C 262.980 51.323,263.021 51.326,262.944 51.049 C 262.897 50.885,262.808 50.563,262.744 50.333 C 262.394 49.072,260.629 48.089,259.167 48.341 M281.833 48.339 C 280.458 48.581,279.204 49.669,278.909 50.875 L 278.797 51.333 280.357 51.330 C 281.648 51.327,281.988 51.270,282.333 51.000 C 282.927 50.535,284.352 50.548,285.125 51.026 C 285.766 51.422,285.737 51.492,285.408 50.333 C 285.028 48.995,283.368 48.069,281.833 48.339 M374.750 48.280 C 373.434 48.442,372.833 48.876,372.833 49.664 C 372.833 50.477,374.459 51.257,375.261 50.827 C 375.493 50.704,376.092 50.653,376.833 50.695 L 378.031 50.763 377.931 50.090 C 377.808 49.266,376.864 48.333,376.153 48.333 C 375.900 48.333,375.594 48.307,375.472 48.276 C 375.350 48.244,375.025 48.246,374.750 48.280 M139.500 48.741 C 136.103 51.001,136.712 57.667,140.397 58.567 L 140.878 58.684 140.451 58.177 C 138.916 56.353,139.355 51.964,141.168 51.019 C 142.214 50.474,143.517 50.591,144.375 51.308 C 144.885 51.734,144.552 50.462,143.930 49.608 C 143.046 48.395,140.708 47.937,139.500 48.741 M156.417 48.735 C 154.642 49.551,154.615 49.655,154.507 56.167 L 154.417 61.583 153.667 61.624 C 151.056 61.765,150.876 61.880,151.340 63.101 C 151.731 64.130,155.357 64.492,156.258 63.591 L 156.667 63.182 156.667 58.152 C 156.667 54.787,156.731 52.906,156.862 52.470 C 157.235 51.226,158.690 50.410,159.829 50.807 C 160.296 50.970,160.333 50.954,160.333 50.594 C 160.333 48.809,158.327 47.858,156.417 48.735 M179.650 48.675 C 179.079 48.964,178.167 50.393,178.167 50.996 C 178.167 51.163,177.835 51.184,176.667 51.092 L 175.167 50.975 175.167 51.824 C 175.167 53.073,175.565 53.212,177.195 52.534 C 177.867 52.254,178.901 51.971,179.494 51.904 C 180.421 51.799,180.644 51.705,181.097 51.224 C 181.667 50.619,183.537 50.407,184.370 50.853 C 184.767 51.065,184.711 49.705,184.303 49.213 C 183.569 48.329,180.932 48.024,179.650 48.675 M204.500 48.694 C 201.063 50.682,201.637 57.971,205.275 58.541 C 205.536 58.582,205.675 58.586,205.583 58.549 C 204.596 58.161,204.105 54.136,204.846 52.503 C 205.705 50.610,207.635 50.037,209.000 51.269 C 209.751 51.949,209.847 51.790,209.383 50.631 C 208.595 48.661,206.200 47.711,204.500 48.694 M304.893 48.769 C 303.464 49.603,302.833 51.009,302.833 53.361 C 302.833 56.397,303.689 57.892,305.789 58.524 L 306.160 58.636 305.767 58.110 C 304.664 56.631,304.645 53.254,305.732 51.781 C 306.722 50.440,308.559 50.260,309.792 51.383 C 310.318 51.863,310.293 51.442,309.731 50.357 C 308.738 48.443,306.636 47.753,304.893 48.769 M321.725 48.743 C 321.056 49.047,320.763 49.311,320.392 49.941 L 319.917 50.750 319.865 56.208 L 319.813 61.667 318.761 61.667 C 316.839 61.667,316.667 61.749,316.667 62.668 C 316.667 63.831,317.002 64.000,319.303 64.000 C 320.999 64.000,321.147 63.973,321.559 63.591 L 322.000 63.183 322.000 58.236 C 322.000 54.967,322.066 53.056,322.195 52.603 C 322.632 51.062,324.007 50.341,325.399 50.922 C 325.686 51.042,325.703 50.998,325.597 50.429 C 325.244 48.549,323.665 47.861,321.725 48.743 M358.334 48.816 C 357.453 49.351,356.706 50.344,356.493 51.262 C 356.170 52.657,356.393 56.315,356.823 56.667 C 356.879 56.712,357.055 56.955,357.215 57.206 C 357.497 57.650,358.513 58.291,359.312 58.531 L 359.708 58.649 359.369 58.283 C 357.869 56.664,358.168 52.369,359.868 51.112 C 360.882 50.363,362.881 50.651,363.509 51.638 C 363.643 51.850,363.661 51.757,363.584 51.250 C 363.228 48.934,360.341 47.595,358.334 48.816 M68.583 53.667 C 68.263 54.020,67.267 54.131,67.083 53.833 C 66.670 53.164,66.500 53.721,66.500 55.750 C 66.500 58.226,66.468 58.209,68.088 56.584 C 69.261 55.407,69.333 55.292,69.333 54.598 C 69.333 53.344,69.118 53.076,68.583 53.667 M132.542 54.785 C 132.427 55.031,132.333 55.305,132.333 55.392 C 132.333 56.100,130.771 58.645,129.749 59.605 C 127.818 61.416,123.688 62.524,121.333 61.861 C 121.013 61.771,120.337 61.604,119.833 61.490 C 118.987 61.299,117.499 60.607,116.887 60.121 C 115.950 59.377,114.905 58.160,114.596 57.456 C 114.467 57.159,114.354 57.008,114.347 57.119 C 114.319 57.539,115.535 59.826,116.171 60.548 C 116.535 60.962,116.833 61.379,116.833 61.475 C 116.833 61.570,117.010 61.746,117.227 61.866 C 117.443 61.985,118.024 62.360,118.518 62.698 C 121.542 64.765,127.810 64.655,130.768 62.483 C 132.350 61.321,134.693 57.992,134.161 57.663 C 134.014 57.572,133.908 57.076,133.569 54.875 C 133.460 54.169,132.852 54.116,132.542 54.785 M183.981 54.494 C 183.741 54.567,182.878 54.715,182.064 54.823 C 181.250 54.932,180.433 55.085,180.250 55.164 C 180.067 55.243,179.704 55.354,179.444 55.410 C 177.510 55.832,177.912 58.667,179.906 58.667 C 180.220 58.667,180.333 58.580,180.333 58.338 C 180.333 57.890,181.048 57.551,182.437 57.337 C 184.255 57.058,184.667 56.578,184.667 54.742 C 184.667 54.303,184.642 54.294,183.981 54.494 M57.391 64.185 C 58.272 64.587,58.658 67.642,57.961 68.705 C 57.403 69.558,53.874 69.617,53.044 68.787 C 52.295 68.037,52.359 65.173,53.140 64.475 C 53.726 63.952,56.468 63.765,57.391 64.185 M51.164 65.625 C 51.932 66.324,51.984 66.983,51.332 67.726 L 50.799 68.333 48.387 68.333 L 45.974 68.333 45.487 67.846 C 44.702 67.061,45.000 65.760,46.065 65.330 C 47.038 64.937,50.637 65.145,51.164 65.625 M64.162 65.325 C 65.638 65.610,66.087 66.779,65.100 67.767 L 64.533 68.333 62.361 68.333 C 59.886 68.333,59.518 68.239,59.041 67.486 C 57.958 65.777,60.639 64.645,64.162 65.325 M15.339 83.945 C 15.330 84.261,15.524 84.667,15.684 84.667 C 15.903 84.667,15.866 84.441,15.589 84.074 C 15.454 83.896,15.342 83.838,15.339 83.945 M93.456 85.212 C 93.158 85.579,93.071 86.000,93.293 86.000 C 93.435 86.000,93.904 85.015,93.807 84.918 C 93.773 84.884,93.615 85.016,93.456 85.212 M17.198 87.677 C 17.238 87.797,17.369 87.929,17.490 87.969 C 17.615 88.010,17.677 87.948,17.635 87.823 C 17.595 87.703,17.464 87.571,17.344 87.531 C 17.219 87.490,17.156 87.552,17.198 87.677 M22.921 91.826 C 22.861 91.923,22.933 92.049,23.080 92.105 C 23.447 92.246,23.561 92.091,23.269 91.849 C 23.105 91.713,22.996 91.706,22.921 91.826 M25.167 92.667 C 25.167 92.758,25.321 92.833,25.510 92.833 C 25.699 92.833,25.807 92.758,25.750 92.667 C 25.693 92.575,25.539 92.500,25.407 92.500 C 25.275 92.500,25.167 92.575,25.167 92.667 M83.833 92.667 C 83.833 92.758,83.988 92.833,84.177 92.833 C 84.365 92.833,84.473 92.758,84.417 92.667 C 84.360 92.575,84.206 92.500,84.073 92.500 C 83.941 92.500,83.833 92.575,83.833 92.667 " stroke="none" fill="#343434" fill-rule="evenodd"></path></g></svg>